%TF.GenerationSoftware,KiCad,Pcbnew,(6.0.6)*%
%TF.CreationDate,2022-09-25T18:06:26-06:00*%
%TF.ProjectId,miniErgo,6d696e69-4572-4676-9f2e-6b696361645f,rev?*%
%TF.SameCoordinates,Original*%
%TF.FileFunction,Legend,Top*%
%TF.FilePolarity,Positive*%
%FSLAX46Y46*%
G04 Gerber Fmt 4.6, Leading zero omitted, Abs format (unit mm)*
G04 Created by KiCad (PCBNEW (6.0.6)) date 2022-09-25 18:06:26*
%MOMM*%
%LPD*%
G01*
G04 APERTURE LIST*
%ADD10C,0.120000*%
%ADD11C,0.150000*%
G04 APERTURE END LIST*
D10*
%TO.C,M1*%
X118433824Y-125216200D02*
G75*
G03*
X119703824Y-126486200I1270000J0D01*
G01*
X119703824Y-108706200D02*
G75*
G03*
X118433824Y-109976200I0J-1270000D01*
G01*
X138245824Y-126486200D02*
G75*
G03*
X139515824Y-125216200I0J1270000D01*
G01*
X139515824Y-109976200D02*
G75*
G03*
X138245824Y-108706200I-1270000J0D01*
G01*
X118433824Y-113096200D02*
X116909824Y-113096200D01*
X116909824Y-113096200D02*
X116909824Y-122096200D01*
X116909824Y-122096200D02*
X118433824Y-122096200D01*
X118433824Y-122096200D02*
X118433824Y-113096200D01*
X139515824Y-125216200D02*
X139515824Y-109976200D01*
X118433824Y-109976200D02*
X118433824Y-125216200D01*
X138245824Y-108706200D02*
X119703824Y-108706200D01*
X119703824Y-126486200D02*
X138245824Y-126486200D01*
D11*
%TO.C,D7*%
X149675736Y-63477400D02*
X150691736Y-63477400D01*
X149802736Y-62842400D02*
X150564736Y-62842400D01*
X151083736Y-64959900D02*
X151083736Y-61419900D01*
X149283736Y-64959900D02*
X149283736Y-61419900D01*
X150183736Y-63477400D02*
X149802736Y-62842400D01*
X150183736Y-62842400D02*
X150183736Y-62461400D01*
X150183736Y-63858400D02*
X150183736Y-63477400D01*
X150564736Y-62842400D02*
X150183736Y-63477400D01*
%TO.C,D12*%
X168183736Y-100227400D02*
X167802736Y-99592400D01*
X167283736Y-101709900D02*
X167283736Y-98169900D01*
X167675736Y-100227400D02*
X168691736Y-100227400D01*
X168183736Y-99592400D02*
X168183736Y-99211400D01*
X168564736Y-99592400D02*
X168183736Y-100227400D01*
X169083736Y-101709900D02*
X169083736Y-98169900D01*
X167802736Y-99592400D02*
X168564736Y-99592400D01*
X168183736Y-100608400D02*
X168183736Y-100227400D01*
%TO.C,D15*%
X184325770Y-102939800D02*
X185341770Y-102939800D01*
X183933770Y-104422300D02*
X183933770Y-100882300D01*
X184833770Y-102304800D02*
X184833770Y-101923800D01*
X184833770Y-103320800D02*
X184833770Y-102939800D01*
X184833770Y-102939800D02*
X184452770Y-102304800D01*
X185214770Y-102304800D02*
X184833770Y-102939800D01*
X184452770Y-102304800D02*
X185214770Y-102304800D01*
X185733770Y-104422300D02*
X185733770Y-100882300D01*
%TO.C,D10*%
X168183736Y-66858400D02*
X168183736Y-66477400D01*
X167802736Y-65842400D02*
X168564736Y-65842400D01*
X167675736Y-66477400D02*
X168691736Y-66477400D01*
X168183736Y-65842400D02*
X168183736Y-65461400D01*
X168564736Y-65842400D02*
X168183736Y-66477400D01*
X167283736Y-67959900D02*
X167283736Y-64419900D01*
X169083736Y-67959900D02*
X169083736Y-64419900D01*
X168183736Y-66477400D02*
X167802736Y-65842400D01*
%TO.C,D5*%
X132183736Y-82592400D02*
X132183736Y-82211400D01*
X132183736Y-83608400D02*
X132183736Y-83227400D01*
X131802736Y-82592400D02*
X132564736Y-82592400D01*
X132564736Y-82592400D02*
X132183736Y-83227400D01*
X132183736Y-83227400D02*
X131802736Y-82592400D01*
X131283736Y-84709900D02*
X131283736Y-81169900D01*
X131675736Y-83227400D02*
X132691736Y-83227400D01*
X133083736Y-84709900D02*
X133083736Y-81169900D01*
%TO.C,D18*%
X190265409Y-133094594D02*
X189639027Y-133489602D01*
X188167273Y-134407071D02*
X189763380Y-131247317D01*
X189185593Y-133260556D02*
X190092460Y-133718648D01*
X189925334Y-132922810D02*
X190097118Y-132582735D01*
X189467242Y-133829677D02*
X189639027Y-133489602D01*
X189773928Y-135218650D02*
X191370034Y-132058897D01*
X189639027Y-133489602D02*
X189585259Y-132751026D01*
X189585259Y-132751026D02*
X190265409Y-133094594D01*
%TO.C,D1*%
X113033736Y-74959900D02*
X113033736Y-71419900D01*
X114314736Y-72842400D02*
X113933736Y-73477400D01*
X113933736Y-73477400D02*
X113552736Y-72842400D01*
X113552736Y-72842400D02*
X114314736Y-72842400D01*
X113933736Y-73858400D02*
X113933736Y-73477400D01*
X113933736Y-72842400D02*
X113933736Y-72461400D01*
X113425736Y-73477400D02*
X114441736Y-73477400D01*
X114833736Y-74959900D02*
X114833736Y-71419900D01*
%TO.C,D17*%
X172232612Y-125906906D02*
X172009144Y-125200897D01*
X172144316Y-126277533D02*
X172232612Y-125906906D01*
X172379772Y-125289193D02*
X172468068Y-124918565D01*
X171738442Y-125789178D02*
X172726782Y-126024634D01*
X171013547Y-127140473D02*
X171833935Y-123696846D01*
X172009144Y-125200897D02*
X172750400Y-125377489D01*
X172750400Y-125377489D02*
X172232612Y-125906906D01*
X172764544Y-127557619D02*
X173584932Y-124113992D01*
%TO.C,D6*%
X131802736Y-99592400D02*
X132564736Y-99592400D01*
X132564736Y-99592400D02*
X132183736Y-100227400D01*
X132183736Y-100608400D02*
X132183736Y-100227400D01*
X132183736Y-100227400D02*
X131802736Y-99592400D01*
X132183736Y-99592400D02*
X132183736Y-99211400D01*
X131283736Y-101709900D02*
X131283736Y-98169900D01*
X131675736Y-100227400D02*
X132691736Y-100227400D01*
X133083736Y-101709900D02*
X133083736Y-98169900D01*
%TO.C,D16*%
X153683911Y-122752200D02*
X153683911Y-122371200D01*
X154583911Y-123853700D02*
X154583911Y-120313700D01*
X152783911Y-123853700D02*
X152783911Y-120313700D01*
X153175911Y-122371200D02*
X154191911Y-122371200D01*
X153683911Y-122371200D02*
X153302911Y-121736200D01*
X153683911Y-121736200D02*
X153683911Y-121355200D01*
X154064911Y-121736200D02*
X153683911Y-122371200D01*
X153302911Y-121736200D02*
X154064911Y-121736200D01*
%TO.C,D3*%
X114564736Y-106592150D02*
X114183736Y-107227150D01*
X114183736Y-106592150D02*
X114183736Y-106211150D01*
X115083736Y-108709650D02*
X115083736Y-105169650D01*
X114183736Y-107608150D02*
X114183736Y-107227150D01*
X113802736Y-106592150D02*
X114564736Y-106592150D01*
X113283736Y-108709650D02*
X113283736Y-105169650D01*
X114183736Y-107227150D02*
X113802736Y-106592150D01*
X113675736Y-107227150D02*
X114691736Y-107227150D01*
%TO.C,D11*%
X168183736Y-83608400D02*
X168183736Y-83227400D01*
X169083736Y-84709900D02*
X169083736Y-81169900D01*
X168183736Y-82592400D02*
X168183736Y-82211400D01*
X168183736Y-83227400D02*
X167802736Y-82592400D01*
X167283736Y-84709900D02*
X167283736Y-81169900D01*
X168564736Y-82592400D02*
X168183736Y-83227400D01*
X167675736Y-83227400D02*
X168691736Y-83227400D01*
X167802736Y-82592400D02*
X168564736Y-82592400D01*
%TO.C,D8*%
X151083736Y-81853700D02*
X151083736Y-78313700D01*
X150183736Y-80371200D02*
X149802736Y-79736200D01*
X149675736Y-80371200D02*
X150691736Y-80371200D01*
X150183736Y-80752200D02*
X150183736Y-80371200D01*
X149283736Y-81853700D02*
X149283736Y-78313700D01*
X150564736Y-79736200D02*
X150183736Y-80371200D01*
X149802736Y-79736200D02*
X150564736Y-79736200D01*
X150183736Y-79736200D02*
X150183736Y-79355200D01*
%TO.C,D2*%
X113675736Y-90227150D02*
X114691736Y-90227150D01*
X114183736Y-90227150D02*
X113802736Y-89592150D01*
X113802736Y-89592150D02*
X114564736Y-89592150D01*
X114183736Y-89592150D02*
X114183736Y-89211150D01*
X115083736Y-91709650D02*
X115083736Y-88169650D01*
X114183736Y-90608150D02*
X114183736Y-90227150D01*
X113283736Y-91709650D02*
X113283736Y-88169650D01*
X114564736Y-89592150D02*
X114183736Y-90227150D01*
%TO.C,D9*%
X149675736Y-97371200D02*
X150691736Y-97371200D01*
X149802736Y-96736200D02*
X150564736Y-96736200D01*
X149283736Y-98853700D02*
X149283736Y-95313700D01*
X151083736Y-98853700D02*
X151083736Y-95313700D01*
X150183736Y-96736200D02*
X150183736Y-96355200D01*
X150183736Y-97371200D02*
X149802736Y-96736200D01*
X150564736Y-96736200D02*
X150183736Y-97371200D01*
X150183736Y-97752200D02*
X150183736Y-97371200D01*
%TO.C,D14*%
X187083736Y-87566100D02*
X187083736Y-84026100D01*
X185802736Y-85448600D02*
X186564736Y-85448600D01*
X186183736Y-86083600D02*
X185802736Y-85448600D01*
X186183736Y-85448600D02*
X186183736Y-85067600D01*
X185675736Y-86083600D02*
X186691736Y-86083600D01*
X186183736Y-86464600D02*
X186183736Y-86083600D01*
X186564736Y-85448600D02*
X186183736Y-86083600D01*
X185283736Y-87566100D02*
X185283736Y-84026100D01*
%TO.C,D13*%
X185283736Y-70709900D02*
X185283736Y-67169900D01*
X185675736Y-69227400D02*
X186691736Y-69227400D01*
X186183736Y-69608400D02*
X186183736Y-69227400D01*
X186183736Y-69227400D02*
X185802736Y-68592400D01*
X186564736Y-68592400D02*
X186183736Y-69227400D01*
X186183736Y-68592400D02*
X186183736Y-68211400D01*
X185802736Y-68592400D02*
X186564736Y-68592400D01*
X187083736Y-70709900D02*
X187083736Y-67169900D01*
%TO.C,D4*%
X132564736Y-65592400D02*
X132183736Y-66227400D01*
X133083736Y-67709900D02*
X133083736Y-64169900D01*
X132183736Y-66608400D02*
X132183736Y-66227400D01*
X132183736Y-65592400D02*
X132183736Y-65211400D01*
X131283736Y-67709900D02*
X131283736Y-64169900D01*
X132183736Y-66227400D02*
X131802736Y-65592400D01*
X131802736Y-65592400D02*
X132564736Y-65592400D01*
X131675736Y-66227400D02*
X132691736Y-66227400D01*
D10*
%TO.C,SW8*%
X143012736Y-67970200D02*
X142670736Y-68199200D01*
X141001736Y-70090200D02*
X138201736Y-70090200D01*
X137400736Y-73940200D02*
X137037736Y-73940200D01*
X143415736Y-67890200D02*
X143012736Y-67970200D01*
X142953736Y-72787200D02*
X143515736Y-72682200D01*
X142050736Y-69392200D02*
X141806736Y-69759200D01*
X142137736Y-68954200D02*
X142050736Y-69392200D01*
X142670736Y-68199200D02*
X142137736Y-68732200D01*
X141707736Y-74653200D02*
X141900736Y-74395200D01*
X143515736Y-72682200D02*
X146162736Y-72682200D01*
X141806736Y-69759200D02*
X141439736Y-70003200D01*
X137037736Y-74882200D02*
X141123736Y-74882200D01*
X138201736Y-70090200D02*
X137874736Y-70155200D01*
X142474736Y-73086200D02*
X142953736Y-72787200D01*
X147099736Y-68827200D02*
X146162736Y-67890200D01*
X137874736Y-70155200D02*
X137591736Y-70344200D01*
X141123736Y-74882200D02*
X141433736Y-74823200D01*
X141900736Y-74395200D02*
X141982736Y-74097200D01*
X146162736Y-72682200D02*
X147183736Y-71661200D01*
X141439736Y-70003200D02*
X141001736Y-70090200D01*
X142137736Y-68732200D02*
X142137736Y-68954200D01*
X146162736Y-67890200D02*
X143415736Y-67890200D01*
X137402736Y-70627200D02*
X137317736Y-71054200D01*
X141433736Y-74823200D02*
X141707736Y-74653200D01*
X137591736Y-70344200D02*
X137402736Y-70627200D01*
X141982736Y-74097200D02*
X142136736Y-73539200D01*
X137037736Y-73940200D02*
X137037736Y-74882200D01*
X142136736Y-73539200D02*
X142474736Y-73086200D01*
%TO.C,SW17*%
X160952586Y-116539064D02*
X160734279Y-117455419D01*
X166439481Y-116968327D02*
X166974733Y-116788474D01*
X161305703Y-116623189D02*
X160952586Y-116539064D01*
X166974733Y-116788474D02*
X167545767Y-116816575D01*
X168559025Y-112131858D02*
X168148457Y-112116286D01*
X170120705Y-117430012D02*
X171350523Y-116673422D01*
X164709042Y-118402341D02*
X165024275Y-118416789D01*
X165700899Y-113712526D02*
X162977126Y-113063632D01*
X165330213Y-118314916D02*
X165577750Y-118108667D01*
X167545767Y-116816575D02*
X170120705Y-117430012D01*
X167069238Y-112870718D02*
X166883101Y-113276632D01*
X166883101Y-113276632D02*
X166560692Y-113577094D01*
X160734279Y-117455419D02*
X164709042Y-118402341D01*
X165726578Y-117837783D02*
X166005701Y-117330664D01*
X162643965Y-113051080D02*
X162324869Y-113169350D01*
X167762697Y-112259794D02*
X167120686Y-112654762D01*
X165024275Y-118416789D02*
X165330213Y-118314916D01*
X162324869Y-113169350D02*
X162075430Y-113400846D01*
X166560692Y-113577094D02*
X166147137Y-113729400D01*
X166005701Y-117330664D02*
X166439481Y-116968327D01*
X165577750Y-118108667D02*
X165726578Y-117837783D01*
X162075430Y-113400846D02*
X161893788Y-113796522D01*
X162977126Y-113063632D02*
X162643965Y-113051080D01*
X171231241Y-112768470D02*
X168559025Y-112131858D01*
X167120686Y-112654762D02*
X167069238Y-112870718D01*
X166147137Y-113729400D02*
X165700899Y-113712526D01*
X168148457Y-112116286D02*
X167762697Y-112259794D01*
X171925584Y-113897108D02*
X171231241Y-112768470D01*
%TO.C,SW12*%
X155874736Y-90011400D02*
X155591736Y-90200400D01*
X159982736Y-93953400D02*
X160136736Y-93395400D01*
X160050736Y-89248400D02*
X159806736Y-89615400D01*
X161012736Y-87826400D02*
X160670736Y-88055400D01*
X161415736Y-87746400D02*
X161012736Y-87826400D01*
X159439736Y-89859400D02*
X159001736Y-89946400D01*
X155402736Y-90483400D02*
X155317736Y-90910400D01*
X160137736Y-88588400D02*
X160137736Y-88810400D01*
X160136736Y-93395400D02*
X160474736Y-92942400D01*
X160474736Y-92942400D02*
X160953736Y-92643400D01*
X159433736Y-94679400D02*
X159707736Y-94509400D01*
X164162736Y-92538400D02*
X165183736Y-91517400D01*
X156201736Y-89946400D02*
X155874736Y-90011400D01*
X165099736Y-88683400D02*
X164162736Y-87746400D01*
X155037736Y-94738400D02*
X159123736Y-94738400D01*
X155037736Y-93796400D02*
X155037736Y-94738400D01*
X159806736Y-89615400D02*
X159439736Y-89859400D01*
X155400736Y-93796400D02*
X155037736Y-93796400D01*
X159707736Y-94509400D02*
X159900736Y-94251400D01*
X164162736Y-87746400D02*
X161415736Y-87746400D01*
X159001736Y-89946400D02*
X156201736Y-89946400D01*
X160670736Y-88055400D02*
X160137736Y-88588400D01*
X160137736Y-88810400D02*
X160050736Y-89248400D01*
X155591736Y-90200400D02*
X155402736Y-90483400D01*
X161515736Y-92538400D02*
X164162736Y-92538400D01*
X159900736Y-94251400D02*
X159982736Y-93953400D01*
X160953736Y-92643400D02*
X161515736Y-92538400D01*
X159123736Y-94738400D02*
X159433736Y-94679400D01*
%TO.C,SW5*%
X124670736Y-71055400D02*
X124137736Y-71588400D01*
X124137736Y-71810400D02*
X124050736Y-72248400D01*
X124953736Y-75643400D02*
X125515736Y-75538400D01*
X123433736Y-77679400D02*
X123707736Y-77509400D01*
X119874736Y-73011400D02*
X119591736Y-73200400D01*
X125012736Y-70826400D02*
X124670736Y-71055400D01*
X123123736Y-77738400D02*
X123433736Y-77679400D01*
X123439736Y-72859400D02*
X123001736Y-72946400D01*
X119402736Y-73483400D02*
X119317736Y-73910400D01*
X123806736Y-72615400D02*
X123439736Y-72859400D01*
X129099736Y-71683400D02*
X128162736Y-70746400D01*
X125515736Y-75538400D02*
X128162736Y-75538400D01*
X124474736Y-75942400D02*
X124953736Y-75643400D01*
X119400736Y-76796400D02*
X119037736Y-76796400D01*
X123900736Y-77251400D02*
X123982736Y-76953400D01*
X120201736Y-72946400D02*
X119874736Y-73011400D01*
X119037736Y-76796400D02*
X119037736Y-77738400D01*
X123707736Y-77509400D02*
X123900736Y-77251400D01*
X124050736Y-72248400D02*
X123806736Y-72615400D01*
X128162736Y-70746400D02*
X125415736Y-70746400D01*
X125415736Y-70746400D02*
X125012736Y-70826400D01*
X123001736Y-72946400D02*
X120201736Y-72946400D01*
X123982736Y-76953400D02*
X124136736Y-76395400D01*
X119037736Y-77738400D02*
X123123736Y-77738400D01*
X128162736Y-75538400D02*
X129183736Y-74517400D01*
X119591736Y-73200400D02*
X119402736Y-73483400D01*
X124137736Y-71588400D02*
X124137736Y-71810400D01*
X124136736Y-76395400D02*
X124474736Y-75942400D01*
%TO.C,SW1*%
X111099736Y-61683150D02*
X110162736Y-60746150D01*
X105001736Y-62946150D02*
X102201736Y-62946150D01*
X107012736Y-60826150D02*
X106670736Y-61055150D01*
X101400736Y-66796150D02*
X101037736Y-66796150D01*
X101591736Y-63200150D02*
X101402736Y-63483150D01*
X106050736Y-62248150D02*
X105806736Y-62615150D01*
X101037736Y-67738150D02*
X105123736Y-67738150D01*
X106137736Y-61588150D02*
X106137736Y-61810150D01*
X106137736Y-61810150D02*
X106050736Y-62248150D01*
X101037736Y-66796150D02*
X101037736Y-67738150D01*
X106953736Y-65643150D02*
X107515736Y-65538150D01*
X107415736Y-60746150D02*
X107012736Y-60826150D01*
X101874736Y-63011150D02*
X101591736Y-63200150D01*
X106670736Y-61055150D02*
X106137736Y-61588150D01*
X110162736Y-60746150D02*
X107415736Y-60746150D01*
X107515736Y-65538150D02*
X110162736Y-65538150D01*
X106474736Y-65942150D02*
X106953736Y-65643150D01*
X105707736Y-67509150D02*
X105900736Y-67251150D01*
X106136736Y-66395150D02*
X106474736Y-65942150D01*
X105900736Y-67251150D02*
X105982736Y-66953150D01*
X101402736Y-63483150D02*
X101317736Y-63910150D01*
X105806736Y-62615150D02*
X105439736Y-62859150D01*
X105982736Y-66953150D02*
X106136736Y-66395150D01*
X102201736Y-62946150D02*
X101874736Y-63011150D01*
X105439736Y-62859150D02*
X105001736Y-62946150D01*
X110162736Y-65538150D02*
X111183736Y-64517150D01*
X105433736Y-67679150D02*
X105707736Y-67509150D01*
X105123736Y-67738150D02*
X105433736Y-67679150D01*
%TO.C,SW18*%
X188699630Y-119212506D02*
X188291115Y-119262708D01*
X191547345Y-120561364D02*
X189095412Y-119322803D01*
X186475090Y-123485490D02*
X187024066Y-123645162D01*
X180998699Y-122010919D02*
X180674691Y-121847250D01*
X183449539Y-118935616D02*
X183128356Y-118846197D01*
X191961226Y-121820189D02*
X191547345Y-120561364D01*
X184521591Y-124589262D02*
X184810186Y-124445994D01*
X185406788Y-123788348D02*
X185912729Y-123536403D01*
X187474954Y-119696293D02*
X187199814Y-120048019D01*
X186378958Y-120317903D02*
X185948779Y-120198073D01*
X180674691Y-121847250D02*
X180249964Y-122688066D01*
X187575049Y-119498139D02*
X187474954Y-119696293D01*
X184810186Y-124445994D02*
X185017740Y-124216976D01*
X185912729Y-123536403D02*
X186475090Y-123485490D01*
X188291115Y-119262708D02*
X187575049Y-119498139D01*
X182790539Y-118887298D02*
X182494242Y-119054684D01*
X185017740Y-124216976D02*
X185406788Y-123788348D01*
X183128356Y-118846197D02*
X182790539Y-118887298D01*
X180249964Y-122688066D02*
X183897070Y-124530352D01*
X189095412Y-119322803D02*
X188699630Y-119212506D01*
X187024066Y-123645162D02*
X189386740Y-124838635D01*
X187199814Y-120048019D02*
X186816551Y-120265584D01*
X184200373Y-124617461D02*
X184521591Y-124589262D01*
X186816551Y-120265584D02*
X186378958Y-120317903D01*
X183897070Y-124530352D02*
X184200373Y-124617461D01*
X182494242Y-119054684D02*
X182225847Y-119397493D01*
X189386740Y-124838635D02*
X190758416Y-124387651D01*
X185948779Y-120198073D02*
X183449539Y-118935616D01*
D11*
%TO.C,J1*%
X189733770Y-81454800D02*
X189733770Y-93554800D01*
X189983770Y-81454800D02*
X189983770Y-79454800D01*
X195583770Y-79454800D02*
X189983770Y-79454800D01*
X195833770Y-81454800D02*
X195833770Y-93554800D01*
X195833770Y-81454800D02*
X189733770Y-81454800D01*
X195833770Y-93554800D02*
X189733770Y-93554800D01*
X195583770Y-81454800D02*
X195583770Y-79454800D01*
D10*
%TO.C,SW3*%
X111099736Y-95683150D02*
X110162736Y-94746150D01*
X101874736Y-97011150D02*
X101591736Y-97200150D01*
X101037736Y-101738150D02*
X105123736Y-101738150D01*
X106670736Y-95055150D02*
X106137736Y-95588150D01*
X106474736Y-99942150D02*
X106953736Y-99643150D01*
X105806736Y-96615150D02*
X105439736Y-96859150D01*
X105707736Y-101509150D02*
X105900736Y-101251150D01*
X101037736Y-100796150D02*
X101037736Y-101738150D01*
X106137736Y-95588150D02*
X106137736Y-95810150D01*
X106136736Y-100395150D02*
X106474736Y-99942150D01*
X107515736Y-99538150D02*
X110162736Y-99538150D01*
X101400736Y-100796150D02*
X101037736Y-100796150D01*
X105982736Y-100953150D02*
X106136736Y-100395150D01*
X107012736Y-94826150D02*
X106670736Y-95055150D01*
X105439736Y-96859150D02*
X105001736Y-96946150D01*
X101402736Y-97483150D02*
X101317736Y-97910150D01*
X107415736Y-94746150D02*
X107012736Y-94826150D01*
X106050736Y-96248150D02*
X105806736Y-96615150D01*
X106953736Y-99643150D02*
X107515736Y-99538150D01*
X110162736Y-94746150D02*
X107415736Y-94746150D01*
X105123736Y-101738150D02*
X105433736Y-101679150D01*
X106137736Y-95810150D02*
X106050736Y-96248150D01*
X105900736Y-101251150D02*
X105982736Y-100953150D01*
X102201736Y-96946150D02*
X101874736Y-97011150D01*
X105001736Y-96946150D02*
X102201736Y-96946150D01*
X101591736Y-97200150D02*
X101402736Y-97483150D01*
X110162736Y-99538150D02*
X111183736Y-98517150D01*
X105433736Y-101679150D02*
X105707736Y-101509150D01*
%TO.C,SW6*%
X124953736Y-92643400D02*
X125515736Y-92538400D01*
X124050736Y-89248400D02*
X123806736Y-89615400D01*
X125012736Y-87826400D02*
X124670736Y-88055400D01*
X123439736Y-89859400D02*
X123001736Y-89946400D01*
X119591736Y-90200400D02*
X119402736Y-90483400D01*
X124670736Y-88055400D02*
X124137736Y-88588400D01*
X119874736Y-90011400D02*
X119591736Y-90200400D01*
X128162736Y-92538400D02*
X129183736Y-91517400D01*
X123001736Y-89946400D02*
X120201736Y-89946400D01*
X119037736Y-93796400D02*
X119037736Y-94738400D01*
X123900736Y-94251400D02*
X123982736Y-93953400D01*
X125415736Y-87746400D02*
X125012736Y-87826400D01*
X124137736Y-88588400D02*
X124137736Y-88810400D01*
X123707736Y-94509400D02*
X123900736Y-94251400D01*
X123433736Y-94679400D02*
X123707736Y-94509400D01*
X124474736Y-92942400D02*
X124953736Y-92643400D01*
X123123736Y-94738400D02*
X123433736Y-94679400D01*
X123806736Y-89615400D02*
X123439736Y-89859400D01*
X119402736Y-90483400D02*
X119317736Y-90910400D01*
X123982736Y-93953400D02*
X124136736Y-93395400D01*
X124136736Y-93395400D02*
X124474736Y-92942400D01*
X129099736Y-88683400D02*
X128162736Y-87746400D01*
X125515736Y-92538400D02*
X128162736Y-92538400D01*
X124137736Y-88810400D02*
X124050736Y-89248400D01*
X119400736Y-93796400D02*
X119037736Y-93796400D01*
X120201736Y-89946400D02*
X119874736Y-90011400D01*
X128162736Y-87746400D02*
X125415736Y-87746400D01*
X119037736Y-94738400D02*
X123123736Y-94738400D01*
%TO.C,SW9*%
X141439736Y-87003200D02*
X141001736Y-87090200D01*
X137037736Y-90940200D02*
X137037736Y-91882200D01*
X146162736Y-89682200D02*
X147183736Y-88661200D01*
X137591736Y-87344200D02*
X137402736Y-87627200D01*
X137874736Y-87155200D02*
X137591736Y-87344200D01*
X137400736Y-90940200D02*
X137037736Y-90940200D01*
X137037736Y-91882200D02*
X141123736Y-91882200D01*
X141900736Y-91395200D02*
X141982736Y-91097200D01*
X142953736Y-89787200D02*
X143515736Y-89682200D01*
X143415736Y-84890200D02*
X143012736Y-84970200D01*
X142474736Y-90086200D02*
X142953736Y-89787200D01*
X142670736Y-85199200D02*
X142137736Y-85732200D01*
X142050736Y-86392200D02*
X141806736Y-86759200D01*
X141982736Y-91097200D02*
X142136736Y-90539200D01*
X141123736Y-91882200D02*
X141433736Y-91823200D01*
X141433736Y-91823200D02*
X141707736Y-91653200D01*
X142137736Y-85954200D02*
X142050736Y-86392200D01*
X146162736Y-84890200D02*
X143415736Y-84890200D01*
X141001736Y-87090200D02*
X138201736Y-87090200D01*
X143012736Y-84970200D02*
X142670736Y-85199200D01*
X143515736Y-89682200D02*
X146162736Y-89682200D01*
X141806736Y-86759200D02*
X141439736Y-87003200D01*
X147099736Y-85827200D02*
X146162736Y-84890200D01*
X142137736Y-85732200D02*
X142137736Y-85954200D01*
X141707736Y-91653200D02*
X141900736Y-91395200D01*
X137402736Y-87627200D02*
X137317736Y-88054200D01*
X142136736Y-90539200D02*
X142474736Y-90086200D01*
X138201736Y-87090200D02*
X137874736Y-87155200D01*
%TO.C,SW7*%
X141806736Y-52759200D02*
X141439736Y-53003200D01*
X142137736Y-51954200D02*
X142050736Y-52392200D01*
X138201736Y-53090200D02*
X137874736Y-53155200D01*
X142474736Y-56086200D02*
X142953736Y-55787200D01*
X142050736Y-52392200D02*
X141806736Y-52759200D01*
X141001736Y-53090200D02*
X138201736Y-53090200D01*
X143415736Y-50890200D02*
X143012736Y-50970200D01*
X141900736Y-57395200D02*
X141982736Y-57097200D01*
X146162736Y-55682200D02*
X147183736Y-54661200D01*
X143012736Y-50970200D02*
X142670736Y-51199200D01*
X137591736Y-53344200D02*
X137402736Y-53627200D01*
X147099736Y-51827200D02*
X146162736Y-50890200D01*
X142953736Y-55787200D02*
X143515736Y-55682200D01*
X141433736Y-57823200D02*
X141707736Y-57653200D01*
X142670736Y-51199200D02*
X142137736Y-51732200D01*
X142137736Y-51732200D02*
X142137736Y-51954200D01*
X137874736Y-53155200D02*
X137591736Y-53344200D01*
X141707736Y-57653200D02*
X141900736Y-57395200D01*
X141982736Y-57097200D02*
X142136736Y-56539200D01*
X137037736Y-57882200D02*
X141123736Y-57882200D01*
X141123736Y-57882200D02*
X141433736Y-57823200D01*
X143515736Y-55682200D02*
X146162736Y-55682200D01*
X146162736Y-50890200D02*
X143415736Y-50890200D01*
X141439736Y-53003200D02*
X141001736Y-53090200D01*
X137402736Y-53627200D02*
X137317736Y-54054200D01*
X142136736Y-56539200D02*
X142474736Y-56086200D01*
X137037736Y-56940200D02*
X137037736Y-57882200D01*
X137400736Y-56940200D02*
X137037736Y-56940200D01*
%TO.C,SW13*%
X177123736Y-63594600D02*
X177433736Y-63535600D01*
X173591736Y-59056600D02*
X173402736Y-59339600D01*
X182162736Y-61394600D02*
X183183736Y-60373600D01*
X173037736Y-62652600D02*
X173037736Y-63594600D01*
X177806736Y-58471600D02*
X177439736Y-58715600D01*
X177433736Y-63535600D02*
X177707736Y-63365600D01*
X178137736Y-57444600D02*
X178137736Y-57666600D01*
X179012736Y-56682600D02*
X178670736Y-56911600D01*
X179415736Y-56602600D02*
X179012736Y-56682600D01*
X173400736Y-62652600D02*
X173037736Y-62652600D01*
X174201736Y-58802600D02*
X173874736Y-58867600D01*
X173402736Y-59339600D02*
X173317736Y-59766600D01*
X183099736Y-57539600D02*
X182162736Y-56602600D01*
X182162736Y-56602600D02*
X179415736Y-56602600D01*
X178137736Y-57666600D02*
X178050736Y-58104600D01*
X178050736Y-58104600D02*
X177806736Y-58471600D01*
X177982736Y-62809600D02*
X178136736Y-62251600D01*
X178670736Y-56911600D02*
X178137736Y-57444600D01*
X177707736Y-63365600D02*
X177900736Y-63107600D01*
X177439736Y-58715600D02*
X177001736Y-58802600D01*
X173874736Y-58867600D02*
X173591736Y-59056600D01*
X178136736Y-62251600D02*
X178474736Y-61798600D01*
X177900736Y-63107600D02*
X177982736Y-62809600D01*
X179515736Y-61394600D02*
X182162736Y-61394600D01*
X178474736Y-61798600D02*
X178953736Y-61499600D01*
X177001736Y-58802600D02*
X174201736Y-58802600D01*
X173037736Y-63594600D02*
X177123736Y-63594600D01*
X178953736Y-61499600D02*
X179515736Y-61394600D01*
%TO.C,SW14*%
X178670736Y-73911600D02*
X178137736Y-74444600D01*
X183099736Y-74539600D02*
X182162736Y-73602600D01*
X177806736Y-75471600D02*
X177439736Y-75715600D01*
X178136736Y-79251600D02*
X178474736Y-78798600D01*
X178137736Y-74444600D02*
X178137736Y-74666600D01*
X173591736Y-76056600D02*
X173402736Y-76339600D01*
X173874736Y-75867600D02*
X173591736Y-76056600D01*
X178050736Y-75104600D02*
X177806736Y-75471600D01*
X177439736Y-75715600D02*
X177001736Y-75802600D01*
X178137736Y-74666600D02*
X178050736Y-75104600D01*
X179012736Y-73682600D02*
X178670736Y-73911600D01*
X179515736Y-78394600D02*
X182162736Y-78394600D01*
X177123736Y-80594600D02*
X177433736Y-80535600D01*
X178953736Y-78499600D02*
X179515736Y-78394600D01*
X178474736Y-78798600D02*
X178953736Y-78499600D01*
X177982736Y-79809600D02*
X178136736Y-79251600D01*
X177707736Y-80365600D02*
X177900736Y-80107600D01*
X182162736Y-78394600D02*
X183183736Y-77373600D01*
X177001736Y-75802600D02*
X174201736Y-75802600D01*
X173402736Y-76339600D02*
X173317736Y-76766600D01*
X173400736Y-79652600D02*
X173037736Y-79652600D01*
X179415736Y-73602600D02*
X179012736Y-73682600D01*
X173037736Y-80594600D02*
X177123736Y-80594600D01*
X174201736Y-75802600D02*
X173874736Y-75867600D01*
X173037736Y-79652600D02*
X173037736Y-80594600D01*
X177900736Y-80107600D02*
X177982736Y-79809600D01*
X177433736Y-80535600D02*
X177707736Y-80365600D01*
X182162736Y-73602600D02*
X179415736Y-73602600D01*
%TO.C,SW4*%
X125012736Y-53826400D02*
X124670736Y-54055400D01*
X124953736Y-58643400D02*
X125515736Y-58538400D01*
X120201736Y-55946400D02*
X119874736Y-56011400D01*
X124474736Y-58942400D02*
X124953736Y-58643400D01*
X123001736Y-55946400D02*
X120201736Y-55946400D01*
X123982736Y-59953400D02*
X124136736Y-59395400D01*
X124050736Y-55248400D02*
X123806736Y-55615400D01*
X128162736Y-58538400D02*
X129183736Y-57517400D01*
X119874736Y-56011400D02*
X119591736Y-56200400D01*
X119591736Y-56200400D02*
X119402736Y-56483400D01*
X124136736Y-59395400D02*
X124474736Y-58942400D01*
X123123736Y-60738400D02*
X123433736Y-60679400D01*
X119400736Y-59796400D02*
X119037736Y-59796400D01*
X124137736Y-54588400D02*
X124137736Y-54810400D01*
X123439736Y-55859400D02*
X123001736Y-55946400D01*
X119037736Y-59796400D02*
X119037736Y-60738400D01*
X125415736Y-53746400D02*
X125012736Y-53826400D01*
X123433736Y-60679400D02*
X123707736Y-60509400D01*
X125515736Y-58538400D02*
X128162736Y-58538400D01*
X123707736Y-60509400D02*
X123900736Y-60251400D01*
X123900736Y-60251400D02*
X123982736Y-59953400D01*
X119402736Y-56483400D02*
X119317736Y-56910400D01*
X119037736Y-60738400D02*
X123123736Y-60738400D01*
X123806736Y-55615400D02*
X123439736Y-55859400D01*
X129099736Y-54683400D02*
X128162736Y-53746400D01*
X124137736Y-54810400D02*
X124050736Y-55248400D01*
X124670736Y-54055400D02*
X124137736Y-54588400D01*
X128162736Y-53746400D02*
X125415736Y-53746400D01*
%TO.C,SW2*%
X107415736Y-77746150D02*
X107012736Y-77826150D01*
X110162736Y-82538150D02*
X111183736Y-81517150D01*
X106670736Y-78055150D02*
X106137736Y-78588150D01*
X106953736Y-82643150D02*
X107515736Y-82538150D01*
X101037736Y-83796150D02*
X101037736Y-84738150D01*
X105982736Y-83953150D02*
X106136736Y-83395150D01*
X110162736Y-77746150D02*
X107415736Y-77746150D01*
X101400736Y-83796150D02*
X101037736Y-83796150D01*
X106137736Y-78588150D02*
X106137736Y-78810150D01*
X105806736Y-79615150D02*
X105439736Y-79859150D01*
X106136736Y-83395150D02*
X106474736Y-82942150D01*
X101591736Y-80200150D02*
X101402736Y-80483150D01*
X101037736Y-84738150D02*
X105123736Y-84738150D01*
X107515736Y-82538150D02*
X110162736Y-82538150D01*
X106474736Y-82942150D02*
X106953736Y-82643150D01*
X107012736Y-77826150D02*
X106670736Y-78055150D01*
X106137736Y-78810150D02*
X106050736Y-79248150D01*
X105707736Y-84509150D02*
X105900736Y-84251150D01*
X101402736Y-80483150D02*
X101317736Y-80910150D01*
X105439736Y-79859150D02*
X105001736Y-79946150D01*
X105123736Y-84738150D02*
X105433736Y-84679150D01*
X105433736Y-84679150D02*
X105707736Y-84509150D01*
X105001736Y-79946150D02*
X102201736Y-79946150D01*
X105900736Y-84251150D02*
X105982736Y-83953150D01*
X102201736Y-79946150D02*
X101874736Y-80011150D01*
X111099736Y-78683150D02*
X110162736Y-77746150D01*
X106050736Y-79248150D02*
X105806736Y-79615150D01*
X101874736Y-80011150D02*
X101591736Y-80200150D01*
%TO.C,SW15*%
X178137736Y-91444600D02*
X178137736Y-91666600D01*
X173400736Y-96652600D02*
X173037736Y-96652600D01*
X178050736Y-92104600D02*
X177806736Y-92471600D01*
X173874736Y-92867600D02*
X173591736Y-93056600D01*
X177982736Y-96809600D02*
X178136736Y-96251600D01*
X177123736Y-97594600D02*
X177433736Y-97535600D01*
X177806736Y-92471600D02*
X177439736Y-92715600D01*
X178953736Y-95499600D02*
X179515736Y-95394600D01*
X179012736Y-90682600D02*
X178670736Y-90911600D01*
X173591736Y-93056600D02*
X173402736Y-93339600D01*
X173402736Y-93339600D02*
X173317736Y-93766600D01*
X177001736Y-92802600D02*
X174201736Y-92802600D01*
X178136736Y-96251600D02*
X178474736Y-95798600D01*
X178670736Y-90911600D02*
X178137736Y-91444600D01*
X174201736Y-92802600D02*
X173874736Y-92867600D01*
X177707736Y-97365600D02*
X177900736Y-97107600D01*
X178137736Y-91666600D02*
X178050736Y-92104600D01*
X177433736Y-97535600D02*
X177707736Y-97365600D01*
X173037736Y-96652600D02*
X173037736Y-97594600D01*
X183099736Y-91539600D02*
X182162736Y-90602600D01*
X179515736Y-95394600D02*
X182162736Y-95394600D01*
X177900736Y-97107600D02*
X177982736Y-96809600D01*
X182162736Y-90602600D02*
X179415736Y-90602600D01*
X173037736Y-97594600D02*
X177123736Y-97594600D01*
X182162736Y-95394600D02*
X183183736Y-94373600D01*
X177439736Y-92715600D02*
X177001736Y-92802600D01*
X178474736Y-95798600D02*
X178953736Y-95499600D01*
X179415736Y-90602600D02*
X179012736Y-90682600D01*
%TO.C,SW11*%
X160050736Y-72248400D02*
X159806736Y-72615400D01*
X160474736Y-75942400D02*
X160953736Y-75643400D01*
X160136736Y-76395400D02*
X160474736Y-75942400D01*
X159001736Y-72946400D02*
X156201736Y-72946400D01*
X159123736Y-77738400D02*
X159433736Y-77679400D01*
X155874736Y-73011400D02*
X155591736Y-73200400D01*
X159439736Y-72859400D02*
X159001736Y-72946400D01*
X161012736Y-70826400D02*
X160670736Y-71055400D01*
X155037736Y-77738400D02*
X159123736Y-77738400D01*
X159982736Y-76953400D02*
X160136736Y-76395400D01*
X160137736Y-71588400D02*
X160137736Y-71810400D01*
X160670736Y-71055400D02*
X160137736Y-71588400D01*
X165099736Y-71683400D02*
X164162736Y-70746400D01*
X155037736Y-76796400D02*
X155037736Y-77738400D01*
X161415736Y-70746400D02*
X161012736Y-70826400D01*
X161515736Y-75538400D02*
X164162736Y-75538400D01*
X160137736Y-71810400D02*
X160050736Y-72248400D01*
X156201736Y-72946400D02*
X155874736Y-73011400D01*
X164162736Y-70746400D02*
X161415736Y-70746400D01*
X159900736Y-77251400D02*
X159982736Y-76953400D01*
X155402736Y-73483400D02*
X155317736Y-73910400D01*
X155591736Y-73200400D02*
X155402736Y-73483400D01*
X160953736Y-75643400D02*
X161515736Y-75538400D01*
X155400736Y-76796400D02*
X155037736Y-76796400D01*
X159806736Y-72615400D02*
X159439736Y-72859400D01*
X159707736Y-77509400D02*
X159900736Y-77251400D01*
X164162736Y-75538400D02*
X165183736Y-74517400D01*
X159433736Y-77679400D02*
X159707736Y-77509400D01*
%TO.C,SW16*%
X145636911Y-115539200D02*
X145974911Y-115086200D01*
X141701911Y-112090200D02*
X141374911Y-112155200D01*
X144501911Y-112090200D02*
X141701911Y-112090200D01*
X144933911Y-116823200D02*
X145207911Y-116653200D01*
X140902911Y-112627200D02*
X140817911Y-113054200D01*
X147015911Y-114682200D02*
X149662911Y-114682200D01*
X145637911Y-110954200D02*
X145550911Y-111392200D01*
X146453911Y-114787200D02*
X147015911Y-114682200D01*
X141374911Y-112155200D02*
X141091911Y-112344200D01*
X146915911Y-109890200D02*
X146512911Y-109970200D01*
X149662911Y-109890200D02*
X146915911Y-109890200D01*
X145400911Y-116395200D02*
X145482911Y-116097200D01*
X145207911Y-116653200D02*
X145400911Y-116395200D01*
X145974911Y-115086200D02*
X146453911Y-114787200D01*
X146512911Y-109970200D02*
X146170911Y-110199200D01*
X141091911Y-112344200D02*
X140902911Y-112627200D01*
X140537911Y-115940200D02*
X140537911Y-116882200D01*
X140900911Y-115940200D02*
X140537911Y-115940200D01*
X140537911Y-116882200D02*
X144623911Y-116882200D01*
X149662911Y-114682200D02*
X150683911Y-113661200D01*
X145637911Y-110732200D02*
X145637911Y-110954200D01*
X150599911Y-110827200D02*
X149662911Y-109890200D01*
X145482911Y-116097200D02*
X145636911Y-115539200D01*
X144623911Y-116882200D02*
X144933911Y-116823200D01*
X145550911Y-111392200D02*
X145306911Y-111759200D01*
X144939911Y-112003200D02*
X144501911Y-112090200D01*
X145306911Y-111759200D02*
X144939911Y-112003200D01*
X146170911Y-110199200D02*
X145637911Y-110732200D01*
%TO.C,SW10*%
X155591736Y-56200400D02*
X155402736Y-56483400D01*
X165099736Y-54683400D02*
X164162736Y-53746400D01*
X159982736Y-59953400D02*
X160136736Y-59395400D01*
X159001736Y-55946400D02*
X156201736Y-55946400D01*
X160136736Y-59395400D02*
X160474736Y-58942400D01*
X155037736Y-60738400D02*
X159123736Y-60738400D01*
X159433736Y-60679400D02*
X159707736Y-60509400D01*
X161515736Y-58538400D02*
X164162736Y-58538400D01*
X164162736Y-53746400D02*
X161415736Y-53746400D01*
X164162736Y-58538400D02*
X165183736Y-57517400D01*
X155400736Y-59796400D02*
X155037736Y-59796400D01*
X161012736Y-53826400D02*
X160670736Y-54055400D01*
X155874736Y-56011400D02*
X155591736Y-56200400D01*
X160137736Y-54588400D02*
X160137736Y-54810400D01*
X159707736Y-60509400D02*
X159900736Y-60251400D01*
X160137736Y-54810400D02*
X160050736Y-55248400D01*
X160670736Y-54055400D02*
X160137736Y-54588400D01*
X160953736Y-58643400D02*
X161515736Y-58538400D01*
X159439736Y-55859400D02*
X159001736Y-55946400D01*
X155402736Y-56483400D02*
X155317736Y-56910400D01*
X159806736Y-55615400D02*
X159439736Y-55859400D01*
X160474736Y-58942400D02*
X160953736Y-58643400D01*
X161415736Y-53746400D02*
X161012736Y-53826400D01*
X159123736Y-60738400D02*
X159433736Y-60679400D01*
X156201736Y-55946400D02*
X155874736Y-56011400D01*
X155037736Y-59796400D02*
X155037736Y-60738400D01*
X159900736Y-60251400D02*
X159982736Y-59953400D01*
X160050736Y-55248400D02*
X159806736Y-55615400D01*
%TD*%
M02*
