%TF.GenerationSoftware,KiCad,Pcbnew,(6.0.6)*%
%TF.CreationDate,2022-09-25T18:06:26-06:00*%
%TF.ProjectId,miniErgo,6d696e69-4572-4676-9f2e-6b696361645f,rev?*%
%TF.SameCoordinates,Original*%
%TF.FileFunction,Copper,L1,Top*%
%TF.FilePolarity,Positive*%
%FSLAX46Y46*%
G04 Gerber Fmt 4.6, Leading zero omitted, Abs format (unit mm)*
G04 Created by KiCad (PCBNEW (6.0.6)) date 2022-09-25 18:06:26*
%MOMM*%
%LPD*%
G01*
G04 APERTURE LIST*
G04 Aperture macros list*
%AMRoundRect*
0 Rectangle with rounded corners*
0 $1 Rounding radius*
0 $2 $3 $4 $5 $6 $7 $8 $9 X,Y pos of 4 corners*
0 Add a 4 corners polygon primitive as box body*
4,1,4,$2,$3,$4,$5,$6,$7,$8,$9,$2,$3,0*
0 Add four circle primitives for the rounded corners*
1,1,$1+$1,$2,$3*
1,1,$1+$1,$4,$5*
1,1,$1+$1,$6,$7*
1,1,$1+$1,$8,$9*
0 Add four rect primitives between the rounded corners*
20,1,$1+$1,$2,$3,$4,$5,0*
20,1,$1+$1,$4,$5,$6,$7,0*
20,1,$1+$1,$6,$7,$8,$9,0*
20,1,$1+$1,$8,$9,$2,$3,0*%
%AMRotRect*
0 Rectangle, with rotation*
0 The origin of the aperture is its center*
0 $1 length*
0 $2 width*
0 $3 Rotation angle, in degrees counterclockwise*
0 Add horizontal line*
21,1,$1,$2,0,0,$3*%
G04 Aperture macros list end*
%TA.AperFunction,ComponentPad*%
%ADD10C,1.600000*%
%TD*%
%TA.AperFunction,ComponentPad*%
%ADD11R,1.300000X1.300000*%
%TD*%
%TA.AperFunction,ComponentPad*%
%ADD12O,1.600000X2.000000*%
%TD*%
%TA.AperFunction,ComponentPad*%
%ADD13RotRect,1.300000X1.300000X63.200000*%
%TD*%
%TA.AperFunction,ComponentPad*%
%ADD14RotRect,1.300000X1.300000X76.600000*%
%TD*%
%TA.AperFunction,ComponentPad*%
%ADD15RoundRect,0.250000X-1.025000X-1.000000X1.025000X-1.000000X1.025000X1.000000X-1.025000X1.000000X0*%
%TD*%
%TA.AperFunction,SMDPad,CuDef*%
%ADD16RoundRect,0.250000X-1.025000X-1.000000X1.025000X-1.000000X1.025000X1.000000X-1.025000X1.000000X0*%
%TD*%
%TA.AperFunction,ComponentPad*%
%ADD17RoundRect,0.250000X-1.228843X-0.735234X0.765347X-1.210317X1.228843X0.735234X-0.765347X1.210317X0*%
%TD*%
%TA.AperFunction,SMDPad,CuDef*%
%ADD18RoundRect,0.250000X-1.228843X-0.735234X0.765347X-1.210317X1.228843X0.735234X-0.765347X1.210317X0*%
%TD*%
%TA.AperFunction,ComponentPad*%
%ADD19RoundRect,0.250000X-1.365778X-0.430436X0.464023X-1.354735X1.365778X0.430436X-0.464023X1.354735X0*%
%TD*%
%TA.AperFunction,SMDPad,CuDef*%
%ADD20RoundRect,0.250000X-1.365778X-0.430436X0.464023X-1.354735X1.365778X0.430436X-0.464023X1.354735X0*%
%TD*%
%TA.AperFunction,ViaPad*%
%ADD21C,1.000000*%
%TD*%
%TA.AperFunction,ViaPad*%
%ADD22C,0.800000*%
%TD*%
%TA.AperFunction,Conductor*%
%ADD23C,0.250000*%
%TD*%
G04 APERTURE END LIST*
D10*
%TO.P,M1,1,D0*%
%TO.N,Row 2*%
X121344824Y-109978700D03*
%TO.P,M1,2,D1*%
%TO.N,Row 1*%
X123884824Y-109978700D03*
%TO.P,M1,3,D2*%
%TO.N,Row 0*%
X126424824Y-109978700D03*
%TO.P,M1,4,D3*%
%TO.N,Col 4*%
X128964824Y-109978700D03*
%TO.P,M1,5,D4*%
%TO.N,Net-(J1-PadR2)*%
X131504824Y-109978700D03*
%TO.P,M1,6,D5*%
%TO.N,Net-(J1-PadR1)*%
X134044824Y-109978700D03*
%TO.P,M1,7,D6*%
%TO.N,Col 3*%
X136584824Y-109978700D03*
%TO.P,M1,8,D7*%
%TO.N,Row 3*%
X136584824Y-125213700D03*
%TO.P,M1,9,D8*%
%TO.N,Col 2*%
X134044824Y-125213700D03*
%TO.P,M1,10,D9*%
%TO.N,Col 1*%
X131504824Y-125213700D03*
%TO.P,M1,11,D10*%
%TO.N,Col 0*%
X128964824Y-125213700D03*
%TO.P,M1,12,3V3*%
%TO.N,Net-(J1-PadT)*%
X126424824Y-125213700D03*
%TO.P,M1,13,GND*%
%TO.N,Net-(J1-PadS)*%
X123884824Y-125213700D03*
%TO.P,M1,14,5V*%
%TO.N,unconnected-(M1-Pad14)*%
X121344824Y-125213700D03*
%TD*%
D11*
%TO.P,D7,1,K*%
%TO.N,Net-(D7-Pad1)*%
X150183736Y-61743900D03*
%TO.P,D7,2,A*%
%TO.N,Row 0*%
X150183736Y-64543900D03*
%TD*%
%TO.P,D12,1,K*%
%TO.N,Net-(D12-Pad1)*%
X168183736Y-98493900D03*
%TO.P,D12,2,A*%
%TO.N,Row 2*%
X168183736Y-101293900D03*
%TD*%
%TO.P,D15,1,K*%
%TO.N,Net-(D15-Pad1)*%
X184833770Y-101206300D03*
%TO.P,D15,2,A*%
%TO.N,Row 2*%
X184833770Y-104006300D03*
%TD*%
%TO.P,D10,1,K*%
%TO.N,Net-(D10-Pad1)*%
X168183736Y-64743900D03*
%TO.P,D10,2,A*%
%TO.N,Row 0*%
X168183736Y-67543900D03*
%TD*%
D12*
%TO.P,J2,R1*%
%TO.N,Net-(J1-PadR1)*%
X190483770Y-87654800D03*
%TO.P,J2,R2*%
%TO.N,Net-(J1-PadR2)*%
X190483770Y-84654800D03*
%TO.P,J2,S*%
%TO.N,Net-(J1-PadS)*%
X195083770Y-92754800D03*
%TO.P,J2,T*%
%TO.N,Net-(J1-PadT)*%
X190483770Y-91654800D03*
%TD*%
D11*
%TO.P,D5,1,K*%
%TO.N,Net-(D5-Pad1)*%
X132183736Y-81493900D03*
%TO.P,D5,2,A*%
%TO.N,Row 1*%
X132183736Y-84293900D03*
%TD*%
D13*
%TO.P,D18,1,K*%
%TO.N,Net-(D18-Pad1)*%
X190420623Y-131942305D03*
%TO.P,D18,2,A*%
%TO.N,Row 3*%
X189158166Y-134441545D03*
%TD*%
D11*
%TO.P,D1,1,K*%
%TO.N,Net-(D1-Pad1)*%
X113933736Y-71743900D03*
%TO.P,D1,2,A*%
%TO.N,Row 0*%
X113933736Y-74543900D03*
%TD*%
D14*
%TO.P,D17,1,K*%
%TO.N,Net-(D17-Pad1)*%
X172634347Y-124220599D03*
%TO.P,D17,2,A*%
%TO.N,Row 3*%
X171985453Y-126944371D03*
%TD*%
D11*
%TO.P,D6,1,K*%
%TO.N,Net-(D6-Pad1)*%
X132183736Y-98493900D03*
%TO.P,D6,2,A*%
%TO.N,Row 2*%
X132183736Y-101293900D03*
%TD*%
%TO.P,D16,1,K*%
%TO.N,Net-(D16-Pad1)*%
X153683911Y-120637700D03*
%TO.P,D16,2,A*%
%TO.N,Row 3*%
X153683911Y-123437700D03*
%TD*%
%TO.P,D3,1,K*%
%TO.N,Net-(D3-Pad1)*%
X114183736Y-105493650D03*
%TO.P,D3,2,A*%
%TO.N,Row 2*%
X114183736Y-108293650D03*
%TD*%
%TO.P,D11,1,K*%
%TO.N,Net-(D11-Pad1)*%
X168183736Y-81493900D03*
%TO.P,D11,2,A*%
%TO.N,Row 1*%
X168183736Y-84293900D03*
%TD*%
%TO.P,D8,1,K*%
%TO.N,Net-(D8-Pad1)*%
X150183736Y-78637700D03*
%TO.P,D8,2,A*%
%TO.N,Row 1*%
X150183736Y-81437700D03*
%TD*%
%TO.P,D2,1,K*%
%TO.N,Net-(D2-Pad1)*%
X114183736Y-88493650D03*
%TO.P,D2,2,A*%
%TO.N,Row 1*%
X114183736Y-91293650D03*
%TD*%
%TO.P,D9,1,K*%
%TO.N,Net-(D9-Pad1)*%
X150183736Y-95637700D03*
%TO.P,D9,2,A*%
%TO.N,Row 2*%
X150183736Y-98437700D03*
%TD*%
%TO.P,D14,1,K*%
%TO.N,Net-(D14-Pad1)*%
X186183736Y-84350100D03*
%TO.P,D14,2,A*%
%TO.N,Row 1*%
X186183736Y-87150100D03*
%TD*%
%TO.P,D13,1,K*%
%TO.N,Net-(D13-Pad1)*%
X186183736Y-67493900D03*
%TO.P,D13,2,A*%
%TO.N,Row 0*%
X186183736Y-70293900D03*
%TD*%
%TO.P,D4,1,K*%
%TO.N,Net-(D4-Pad1)*%
X132183736Y-64493900D03*
%TO.P,D4,2,A*%
%TO.N,Row 0*%
X132183736Y-67293900D03*
%TD*%
D15*
%TO.P,SW8,1,1*%
%TO.N,Col 2*%
X141183736Y-70236200D03*
D16*
X148183736Y-70236200D03*
%TO.P,SW8,2,2*%
%TO.N,Net-(D8-Pad1)*%
X136183736Y-72436200D03*
%TD*%
D17*
%TO.P,SW17,1,1*%
%TO.N,Col 3*%
X165844109Y-113896729D03*
D18*
X172653540Y-115518964D03*
%TO.P,SW17,2,2*%
%TO.N,Net-(D17-Pad1)*%
X160470384Y-114878096D03*
%TD*%
D15*
%TO.P,SW12,1,1*%
%TO.N,Col 3*%
X159183736Y-90092400D03*
D16*
X166183736Y-90092400D03*
%TO.P,SW12,2,2*%
%TO.N,Net-(D12-Pad1)*%
X154183736Y-92292400D03*
%TD*%
D15*
%TO.P,SW5,1,1*%
%TO.N,Col 1*%
X123183736Y-73092400D03*
D16*
X130183736Y-73092400D03*
%TO.P,SW5,2,2*%
%TO.N,Net-(D5-Pad1)*%
X118183736Y-75292400D03*
%TD*%
D15*
%TO.P,SW1,1,1*%
%TO.N,Col 0*%
X105183736Y-63092150D03*
D16*
X112183736Y-63092150D03*
%TO.P,SW1,2,2*%
%TO.N,Net-(D1-Pad1)*%
X100183736Y-65292150D03*
%TD*%
D19*
%TO.P,SW18,1,1*%
%TO.N,Col 4*%
X186045402Y-120410451D03*
D20*
X192293503Y-123566593D03*
%TO.P,SW18,2,2*%
%TO.N,Net-(D18-Pad1)*%
X180590542Y-120119752D03*
%TD*%
D12*
%TO.P,J1,R1*%
%TO.N,Net-(J1-PadR1)*%
X195083770Y-87654800D03*
%TO.P,J1,R2*%
%TO.N,Net-(J1-PadR2)*%
X195083770Y-84654800D03*
%TO.P,J1,S*%
%TO.N,Net-(J1-PadS)*%
X190483770Y-92754800D03*
%TO.P,J1,T*%
%TO.N,Net-(J1-PadT)*%
X195083770Y-91654800D03*
%TD*%
D15*
%TO.P,SW3,1,1*%
%TO.N,Col 0*%
X105183736Y-97092150D03*
D16*
X112183736Y-97092150D03*
%TO.P,SW3,2,2*%
%TO.N,Net-(D3-Pad1)*%
X100183736Y-99292150D03*
%TD*%
%TO.P,SW6,1,1*%
%TO.N,Col 1*%
X130183736Y-90092400D03*
D15*
X123183736Y-90092400D03*
D16*
%TO.P,SW6,2,2*%
%TO.N,Net-(D6-Pad1)*%
X118183736Y-92292400D03*
%TD*%
D15*
%TO.P,SW9,1,1*%
%TO.N,Col 2*%
X141183736Y-87236200D03*
D16*
X148183736Y-87236200D03*
%TO.P,SW9,2,2*%
%TO.N,Net-(D9-Pad1)*%
X136183736Y-89436200D03*
%TD*%
%TO.P,SW7,1,1*%
%TO.N,Col 2*%
X148183736Y-53236200D03*
D15*
X141183736Y-53236200D03*
D16*
%TO.P,SW7,2,2*%
%TO.N,Net-(D7-Pad1)*%
X136183736Y-55436200D03*
%TD*%
D15*
%TO.P,SW13,1,1*%
%TO.N,Col 4*%
X177183736Y-58948600D03*
D16*
X184183736Y-58948600D03*
%TO.P,SW13,2,2*%
%TO.N,Net-(D13-Pad1)*%
X172183736Y-61148600D03*
%TD*%
D15*
%TO.P,SW14,1,1*%
%TO.N,Col 4*%
X177183736Y-75948600D03*
D16*
X184183736Y-75948600D03*
%TO.P,SW14,2,2*%
%TO.N,Net-(D14-Pad1)*%
X172183736Y-78148600D03*
%TD*%
D15*
%TO.P,SW4,1,1*%
%TO.N,Col 1*%
X123183736Y-56092400D03*
D16*
X130183736Y-56092400D03*
%TO.P,SW4,2,2*%
%TO.N,Net-(D4-Pad1)*%
X118183736Y-58292400D03*
%TD*%
D15*
%TO.P,SW2,1,1*%
%TO.N,Col 0*%
X105183736Y-80092150D03*
D16*
X112183736Y-80092150D03*
%TO.P,SW2,2,2*%
%TO.N,Net-(D2-Pad1)*%
X100183736Y-82292150D03*
%TD*%
%TO.P,SW15,1,1*%
%TO.N,Col 4*%
X184183736Y-92948600D03*
D15*
X177183736Y-92948600D03*
D16*
%TO.P,SW15,2,2*%
%TO.N,Net-(D15-Pad1)*%
X172183736Y-95148600D03*
%TD*%
D15*
%TO.P,SW11,1,1*%
%TO.N,Col 3*%
X159183736Y-73092400D03*
D16*
X166183736Y-73092400D03*
%TO.P,SW11,2,2*%
%TO.N,Net-(D11-Pad1)*%
X154183736Y-75292400D03*
%TD*%
D15*
%TO.P,SW16,1,1*%
%TO.N,Col 2*%
X144683911Y-112236200D03*
D16*
X151683911Y-112236200D03*
%TO.P,SW16,2,2*%
%TO.N,Net-(D16-Pad1)*%
X139683911Y-114436200D03*
%TD*%
D15*
%TO.P,SW10,1,1*%
%TO.N,Col 3*%
X159183736Y-56092400D03*
D16*
X166183736Y-56092400D03*
%TO.P,SW10,2,2*%
%TO.N,Net-(D10-Pad1)*%
X154183736Y-58292400D03*
%TD*%
D21*
%TO.N,*%
X193083770Y-94304800D03*
X191833770Y-94304800D03*
D22*
%TO.N,Net-(D1-Pad1)*%
X102583770Y-73554800D03*
%TO.N,Row 1*%
X117331520Y-106753738D03*
%TO.N,Net-(D2-Pad1)*%
X104083770Y-90054800D03*
%TO.N,Net-(D3-Pad1)*%
X103333770Y-107304800D03*
%TO.N,Net-(D4-Pad1)*%
X120583770Y-66304800D03*
%TO.N,Net-(D5-Pad1)*%
X121333770Y-83054800D03*
%TO.N,Net-(D6-Pad1)*%
X120583770Y-100804800D03*
%TO.N,Net-(D7-Pad1)*%
X138708770Y-64429800D03*
%TO.N,Net-(D8-Pad1)*%
X138833770Y-81804800D03*
%TO.N,Net-(D9-Pad1)*%
X138833770Y-99554800D03*
%TO.N,Net-(D10-Pad1)*%
X157333770Y-66304800D03*
%TO.N,Net-(D11-Pad1)*%
X156333770Y-83554800D03*
%TO.N,Net-(D12-Pad1)*%
X155583770Y-100304800D03*
%TO.N,Net-(D13-Pad1)*%
X174583770Y-68804800D03*
%TO.N,Net-(D14-Pad1)*%
X174333770Y-86304800D03*
%TO.N,Net-(D15-Pad1)*%
X173833770Y-103054800D03*
%TO.N,Net-(D18-Pad1)*%
X176833770Y-127054800D03*
%TO.N,Net-(J1-PadR1)*%
X178831520Y-105753738D03*
%TO.N,Net-(J1-PadR2)*%
X179676173Y-105219354D03*
%TO.N,Col 3*%
X159583770Y-109001488D03*
D21*
%TO.N,Net-(J1-PadS)*%
X191830926Y-95504299D03*
%TO.N,Net-(J1-PadT)*%
X193080926Y-95504299D03*
%TD*%
D23*
%TO.N,Col 0*%
X130617351Y-123561173D02*
X128964824Y-125213700D01*
X128633770Y-121577592D02*
X130617351Y-123561173D01*
X128633770Y-114984996D02*
X128633770Y-121577592D01*
X125803574Y-112154800D02*
X128633770Y-114984996D01*
X117945124Y-111003738D02*
X119096186Y-112154800D01*
X106831520Y-111003738D02*
X117945124Y-111003738D01*
X105581520Y-101253738D02*
X105581520Y-109753738D01*
X106081520Y-100753738D02*
X105581520Y-101253738D01*
X105581520Y-109753738D02*
X106831520Y-111003738D01*
X106081520Y-97989934D02*
X106081520Y-100753738D01*
X105183736Y-97092150D02*
X106081520Y-97989934D01*
X119096186Y-112154800D02*
X125803574Y-112154800D01*
%TO.N,Col 1*%
X131504824Y-123812250D02*
X131504824Y-125213700D01*
X129083770Y-121391196D02*
X131504824Y-123812250D01*
X129083770Y-114798600D02*
X129083770Y-121391196D01*
X118081520Y-110503738D02*
X119282582Y-111704800D01*
X123606403Y-99728855D02*
X118081520Y-105253738D01*
X123183736Y-90092400D02*
X123606403Y-90515067D01*
X123606403Y-90515067D02*
X123606403Y-99728855D01*
X118081520Y-105253738D02*
X118081520Y-110503738D01*
X125989970Y-111704800D02*
X129083770Y-114798600D01*
X119282582Y-111704800D02*
X125989970Y-111704800D01*
%TO.N,Col 4*%
X129533770Y-121204800D02*
X129533770Y-110547646D01*
X131582708Y-123253738D02*
X129533770Y-121204800D01*
X137273691Y-123253738D02*
X131582708Y-123253738D01*
X139939430Y-125919477D02*
X137273691Y-123253738D01*
X154816671Y-125919477D02*
X139939430Y-125919477D01*
X155265579Y-125922064D02*
X154816671Y-125919477D01*
X156162414Y-125963990D02*
X155265579Y-125922064D01*
X157056314Y-126047753D02*
X156162414Y-125963990D01*
X157945326Y-126173170D02*
X157056314Y-126047753D01*
X158827512Y-126339966D02*
X157945326Y-126173170D01*
X159264827Y-126441357D02*
X158827512Y-126339966D01*
X173697111Y-129920908D02*
X172834334Y-129672535D01*
X172834334Y-129672535D02*
X172398214Y-129566119D01*
X176202808Y-130903551D02*
X175383187Y-130537089D01*
X174547347Y-130209302D02*
X173697111Y-129920908D01*
X176604778Y-131103413D02*
X176202808Y-130903551D01*
X175383187Y-130537089D02*
X174547347Y-130209302D01*
X129533770Y-110547646D02*
X128964824Y-109978700D01*
X172398214Y-129566119D02*
X159264827Y-126441357D01*
%TO.N,Row 0*%
X132183736Y-69605954D02*
X134331520Y-71753738D01*
X134331520Y-103503738D02*
X131331520Y-106503738D01*
X132183736Y-67293900D02*
X132183736Y-69605954D01*
X126424824Y-107160434D02*
X126424824Y-109978700D01*
X134331520Y-71753738D02*
X134331520Y-103503738D01*
X127081520Y-106503738D02*
X126424824Y-107160434D01*
X131331520Y-106503738D02*
X127081520Y-106503738D01*
%TO.N,Net-(D1-Pad1)*%
X100183736Y-71154766D02*
X102583770Y-73554800D01*
X100183736Y-65292150D02*
X100183736Y-71154766D01*
%TO.N,Row 1*%
X114183736Y-91293650D02*
X114183736Y-92855954D01*
X114183736Y-92855954D02*
X116831520Y-95503738D01*
X116831520Y-95503738D02*
X116831520Y-106253738D01*
X116831520Y-106253738D02*
X117331520Y-106753738D01*
%TO.N,Net-(D2-Pad1)*%
X104083770Y-90004537D02*
X104083770Y-90054800D01*
X100183736Y-82292150D02*
X100183736Y-86104503D01*
X100183736Y-86104503D02*
X104083770Y-90004537D01*
%TO.N,Net-(D3-Pad1)*%
X100183736Y-99292150D02*
X100183736Y-104154766D01*
X100183736Y-104154766D02*
X103333770Y-107304800D01*
%TO.N,Net-(D4-Pad1)*%
X118183736Y-63904766D02*
X120583770Y-66304800D01*
X118183736Y-58292400D02*
X118183736Y-63904766D01*
%TO.N,Net-(D5-Pad1)*%
X118183736Y-79904766D02*
X121333770Y-83054800D01*
X118183736Y-75292400D02*
X118183736Y-79904766D01*
%TO.N,Net-(D6-Pad1)*%
X118333770Y-98554800D02*
X120583770Y-100804800D01*
X118183736Y-92292400D02*
X118333770Y-92442434D01*
X118333770Y-92442434D02*
X118333770Y-98554800D01*
%TO.N,Net-(D7-Pad1)*%
X136183736Y-61904766D02*
X138708770Y-64429800D01*
X136183736Y-55436200D02*
X136183736Y-61904766D01*
X138708770Y-64429800D02*
X138833770Y-64554800D01*
%TO.N,Net-(D8-Pad1)*%
X136183736Y-72436200D02*
X136583770Y-72836234D01*
X138583770Y-81804800D02*
X138833770Y-81804800D01*
X136583770Y-79804800D02*
X138583770Y-81804800D01*
X136583770Y-72836234D02*
X136583770Y-79804800D01*
%TO.N,Net-(D9-Pad1)*%
X136183736Y-96904766D02*
X138833770Y-99554800D01*
X136183736Y-89436200D02*
X136183736Y-96904766D01*
%TO.N,Net-(D10-Pad1)*%
X154183736Y-58292400D02*
X154183736Y-63154766D01*
X154183736Y-63154766D02*
X157333770Y-66304800D01*
%TO.N,Net-(D11-Pad1)*%
X154333770Y-75442434D02*
X154333770Y-82804800D01*
X155083770Y-83554800D02*
X156333770Y-83554800D01*
X154333770Y-82804800D02*
X155083770Y-83554800D01*
X154183736Y-75292400D02*
X154333770Y-75442434D01*
%TO.N,Net-(D12-Pad1)*%
X154183736Y-98904766D02*
X155583770Y-100304800D01*
X154183736Y-92292400D02*
X154183736Y-98904766D01*
%TO.N,Net-(D13-Pad1)*%
X172183736Y-61148600D02*
X172183736Y-66404766D01*
X172183736Y-66404766D02*
X174583770Y-68804800D01*
%TO.N,Net-(D14-Pad1)*%
X172183736Y-78148600D02*
X172183736Y-84154766D01*
X172183736Y-84154766D02*
X174333770Y-86304800D01*
%TO.N,Net-(D15-Pad1)*%
X172183736Y-95148600D02*
X172333770Y-95298634D01*
X172333770Y-95298634D02*
X172333770Y-101554800D01*
X172333770Y-101554800D02*
X173833770Y-103054800D01*
%TO.N,Net-(D16-Pad1)*%
X152766811Y-121554800D02*
X153683911Y-120637700D01*
X139683911Y-114436200D02*
X140583858Y-115336147D01*
X140583858Y-115336147D02*
X140583858Y-119804888D01*
X140583858Y-119804888D02*
X142333770Y-121554800D01*
X142333770Y-121554800D02*
X152766811Y-121554800D01*
%TO.N,Net-(D17-Pad1)*%
X160470384Y-114878096D02*
X160333770Y-115014710D01*
X160333770Y-115014710D02*
X160333770Y-119804800D01*
X160333770Y-119804800D02*
X164749569Y-124220599D01*
X164749569Y-124220599D02*
X172634347Y-124220599D01*
%TO.N,Net-(D18-Pad1)*%
X180583770Y-120054800D02*
X176833770Y-127054800D01*
%TO.N,Net-(J1-PadR1)*%
X188081520Y-106003738D02*
X179081520Y-106003738D01*
X188831520Y-105253738D02*
X188081520Y-106003738D01*
X188831520Y-95390134D02*
X188831520Y-105253738D01*
X190483770Y-87654800D02*
X190483770Y-88851488D01*
X189081520Y-90253738D02*
X189081520Y-95140134D01*
X190483770Y-88851488D02*
X189081520Y-90253738D01*
X195083770Y-87654800D02*
X190483770Y-87654800D01*
X179081520Y-106003738D02*
X178831520Y-105753738D01*
X189081520Y-95140134D02*
X188831520Y-95390134D01*
%TO.N,Net-(J1-PadR2)*%
X188381520Y-95203738D02*
X188581520Y-95003738D01*
X179676173Y-105219354D02*
X180010557Y-105553738D01*
X180010557Y-105553738D02*
X187895124Y-105553738D01*
X187895124Y-105553738D02*
X188381520Y-105067342D01*
X188581520Y-86557050D02*
X190483770Y-84654800D01*
X188381520Y-105067342D02*
X188381520Y-95203738D01*
X188581520Y-95003738D02*
X188581520Y-86557050D01*
X195083770Y-84654800D02*
X190483770Y-84654800D01*
%TO.N,Col 0*%
X110383735Y-78292149D02*
X106983737Y-78292149D01*
X112121120Y-63092150D02*
X110321119Y-61292149D01*
X106983737Y-78292149D02*
X105183736Y-80092150D01*
X112121120Y-97092150D02*
X110321119Y-95292149D01*
X112183736Y-97092150D02*
X112121120Y-97092150D01*
X105583770Y-79692116D02*
X105183736Y-80092150D01*
X110321119Y-95292149D02*
X106983737Y-95292149D01*
X105183736Y-80092150D02*
X105783735Y-80692149D01*
X105783735Y-80692149D02*
X105783735Y-96492151D01*
X106983737Y-61292149D02*
X105183736Y-63092150D01*
X105783735Y-96492151D02*
X105183736Y-97092150D01*
X105183736Y-63092150D02*
X105583770Y-63492184D01*
X112183736Y-80092150D02*
X110383735Y-78292149D01*
X112183736Y-63092150D02*
X112121120Y-63092150D01*
X106983737Y-95292149D02*
X105183736Y-97092150D01*
X105583770Y-63492184D02*
X105583770Y-79692116D01*
X110321119Y-61292149D02*
X106983737Y-61292149D01*
%TO.N,Col 1*%
X123783735Y-73692399D02*
X123783735Y-89492401D01*
X123783735Y-89492401D02*
X123183736Y-90092400D01*
X128383735Y-54292399D02*
X130183736Y-56092400D01*
X124996205Y-88254799D02*
X128283769Y-88254799D01*
X123183736Y-56092400D02*
X123583737Y-56492401D01*
X128283769Y-71254799D02*
X130083770Y-73054800D01*
X123196204Y-73054800D02*
X124996205Y-71254799D01*
X124996205Y-71254799D02*
X128283769Y-71254799D01*
X123183736Y-73092400D02*
X123783735Y-73692399D01*
X123183736Y-56092400D02*
X123296170Y-56092400D01*
X123583737Y-72692399D02*
X123183736Y-73092400D01*
X123196204Y-90054800D02*
X124996205Y-88254799D01*
X125096171Y-54292399D02*
X128383735Y-54292399D01*
X123296170Y-56092400D02*
X125096171Y-54292399D01*
X128283769Y-88254799D02*
X130083770Y-90054800D01*
X123583737Y-56492401D02*
X123583737Y-72692399D01*
%TO.N,Col 3*%
X161060320Y-88280800D02*
X164347884Y-88280800D01*
X170011573Y-112876997D02*
X172653540Y-115518964D01*
X160996205Y-54254799D02*
X164283769Y-54254799D01*
X159583770Y-90492434D02*
X159583770Y-109001488D01*
X159196204Y-56054800D02*
X160996205Y-54254799D01*
X159583737Y-74804833D02*
X159583737Y-89692399D01*
X164347884Y-88280800D02*
X166147885Y-90080801D01*
X161060320Y-71188589D02*
X164347884Y-71188589D01*
X164347884Y-71188589D02*
X166147885Y-72988590D01*
X159583770Y-57054800D02*
X159583770Y-72692366D01*
X161083770Y-112304800D02*
X164252180Y-112304800D01*
X167511573Y-112876997D02*
X170011573Y-112876997D01*
X159260319Y-90080801D02*
X161060320Y-88280800D01*
X159833770Y-73742434D02*
X159833770Y-74554800D01*
X165844109Y-113896729D02*
X166491841Y-113896729D01*
X159583737Y-89692399D02*
X159183736Y-90092400D01*
X159583770Y-109001488D02*
X159583770Y-110804800D01*
X159833770Y-74554800D02*
X159583737Y-74804833D01*
X159183736Y-56092400D02*
X159183736Y-56654766D01*
X159183736Y-90092400D02*
X159583770Y-90492434D01*
X159260319Y-72988590D02*
X161060320Y-71188589D01*
X166491841Y-113896729D02*
X167511573Y-112876997D01*
X164283769Y-54254799D02*
X166083770Y-56054800D01*
X159183736Y-73092400D02*
X159833770Y-73742434D01*
X159183736Y-56654766D02*
X159583770Y-57054800D01*
X164252180Y-112304800D02*
X165844109Y-113896729D01*
X159583770Y-110804800D02*
X161083770Y-112304800D01*
X159583770Y-72692366D02*
X159183736Y-73092400D01*
%TO.N,Col 4*%
X177183736Y-75948600D02*
X177833770Y-76598634D01*
X186045402Y-120410451D02*
X186651053Y-119804800D01*
X182533769Y-57254799D02*
X184333770Y-59054800D01*
X177833770Y-60304800D02*
X177583737Y-60554833D01*
X186651053Y-119804800D02*
X189484870Y-119804800D01*
X186045402Y-119016432D02*
X186045402Y-120410451D01*
X177583737Y-60554833D02*
X177583737Y-75548599D01*
X179246205Y-57254799D02*
X182533769Y-57254799D01*
X177143232Y-92912462D02*
X178943233Y-91112461D01*
X177583770Y-105909406D02*
X176688376Y-106804800D01*
X177263506Y-75913687D02*
X179063507Y-74113686D01*
X186081520Y-120503738D02*
X185581520Y-123003738D01*
X177833770Y-59598634D02*
X177833770Y-60304800D01*
X177183736Y-58948600D02*
X177833770Y-59598634D01*
X182351071Y-74113686D02*
X184151072Y-75913687D01*
X177833770Y-76598634D02*
X177833770Y-77304800D01*
X177583737Y-77554833D02*
X177583737Y-92548599D01*
X178943233Y-91112461D02*
X182230797Y-91112461D01*
X185581520Y-123003738D02*
X180331520Y-132753738D01*
X192293503Y-122014533D02*
X192293503Y-123566593D01*
X176595815Y-131101573D02*
X180312597Y-132755638D01*
X177583770Y-93348634D02*
X177583770Y-105909406D01*
X177446204Y-59054800D02*
X179246205Y-57254799D01*
X182230797Y-91112461D02*
X184030798Y-92912462D01*
X190693312Y-120414342D02*
X192293503Y-122014533D01*
X177583737Y-92548599D02*
X177183736Y-92948600D01*
X177183736Y-92948600D02*
X177583770Y-93348634D01*
X179063507Y-74113686D02*
X182351071Y-74113686D01*
X189484870Y-119804800D02*
X190693312Y-120414342D01*
X177583737Y-75548599D02*
X177183736Y-75948600D01*
X177833770Y-77304800D02*
X177583737Y-77554833D01*
X184833770Y-117804800D02*
X186045402Y-119016432D01*
X175583785Y-114304751D02*
G75*
G02*
X176688376Y-106804800I1154715J3661251D01*
G01*
X184833769Y-117804801D02*
G75*
G03*
X175583770Y-114304800I-18206669J-34144399D01*
G01*
%TO.N,Col 2*%
X141583737Y-72054833D02*
X141583737Y-86836199D01*
X143081480Y-85423889D02*
X146369044Y-85423889D01*
X141833770Y-71804800D02*
X141583737Y-72054833D01*
X141446204Y-70304800D02*
X143246205Y-68504799D01*
X141183736Y-53236200D02*
X141183736Y-53904766D01*
X144683911Y-111954659D02*
X146583770Y-110054800D01*
X141183736Y-87236200D02*
X141583770Y-87636234D01*
X146583770Y-110054800D02*
X149833770Y-110054800D01*
X141183736Y-70236200D02*
X141833770Y-70886234D01*
X146369044Y-85423889D02*
X148169045Y-87223890D01*
X141196204Y-87304800D02*
X142996205Y-85504799D01*
X142702371Y-51436199D02*
X146383735Y-51436199D01*
X146283769Y-85504799D02*
X148083770Y-87304800D01*
X141583770Y-69836166D02*
X141183736Y-70236200D01*
X141281479Y-87223890D02*
X143081480Y-85423889D01*
X146383735Y-51436199D02*
X148183736Y-53236200D01*
X151683911Y-111904941D02*
X151683911Y-112236200D01*
X141583737Y-86836199D02*
X141183736Y-87236200D01*
X141583770Y-109136059D02*
X144683911Y-112236200D01*
X144683911Y-112236200D02*
X144683911Y-111954659D01*
X141183736Y-53904766D02*
X141583770Y-54304800D01*
X142996205Y-85504799D02*
X146283769Y-85504799D01*
X141183736Y-53236200D02*
X141183736Y-52954834D01*
X141833770Y-70886234D02*
X141833770Y-71804800D01*
X141583770Y-87636234D02*
X141583770Y-109136059D01*
X143246205Y-68504799D02*
X146533769Y-68504799D01*
X141583770Y-54304800D02*
X141583770Y-69836166D01*
X149833770Y-110054800D02*
X151683911Y-111904941D01*
X146533769Y-68504799D02*
X148333770Y-70304800D01*
X141183736Y-52954834D02*
X142702371Y-51436199D01*
%TO.N,Net-(J1-PadS)*%
X193083770Y-94304800D02*
X195092969Y-92179655D01*
%TO.N,Net-(J1-PadT)*%
X190449071Y-92218595D02*
X191833770Y-94304800D01*
%TD*%
M02*
