%TF.GenerationSoftware,KiCad,Pcbnew,(6.0.6)*%
%TF.CreationDate,2022-09-11T22:53:33-06:00*%
%TF.ProjectId,miniErgo,6d696e69-4572-4676-9f2e-6b696361645f,rev?*%
%TF.SameCoordinates,Original*%
%TF.FileFunction,Soldermask,Bot*%
%TF.FilePolarity,Negative*%
%FSLAX46Y46*%
G04 Gerber Fmt 4.6, Leading zero omitted, Abs format (unit mm)*
G04 Created by KiCad (PCBNEW (6.0.6)) date 2022-09-11 22:53:33*
%MOMM*%
%LPD*%
G01*
G04 APERTURE LIST*
G04 Aperture macros list*
%AMRoundRect*
0 Rectangle with rounded corners*
0 $1 Rounding radius*
0 $2 $3 $4 $5 $6 $7 $8 $9 X,Y pos of 4 corners*
0 Add a 4 corners polygon primitive as box body*
4,1,4,$2,$3,$4,$5,$6,$7,$8,$9,$2,$3,0*
0 Add four circle primitives for the rounded corners*
1,1,$1+$1,$2,$3*
1,1,$1+$1,$4,$5*
1,1,$1+$1,$6,$7*
1,1,$1+$1,$8,$9*
0 Add four rect primitives between the rounded corners*
20,1,$1+$1,$2,$3,$4,$5,0*
20,1,$1+$1,$4,$5,$6,$7,0*
20,1,$1+$1,$6,$7,$8,$9,0*
20,1,$1+$1,$8,$9,$2,$3,0*%
%AMRotRect*
0 Rectangle, with rotation*
0 The origin of the aperture is its center*
0 $1 length*
0 $2 width*
0 $3 Rotation angle, in degrees counterclockwise*
0 Add horizontal line*
21,1,$1,$2,0,0,$3*%
G04 Aperture macros list end*
%ADD10C,3.050000*%
%ADD11C,1.900000*%
%ADD12C,5.050000*%
%ADD13RoundRect,0.250000X-1.025000X-1.000000X1.025000X-1.000000X1.025000X1.000000X-1.025000X1.000000X0*%
%ADD14C,1.600000*%
%ADD15C,0.800000*%
%ADD16O,1.600000X2.000000*%
%ADD17C,0.500000*%
%ADD18RoundRect,0.250000X-0.765347X-1.210317X1.228843X-0.735234X0.765347X1.210317X-1.228843X0.735234X0*%
%ADD19RoundRect,0.250000X-0.464023X-1.354735X1.365778X-0.430436X0.464023X1.354735X-1.365778X0.430436X0*%
%ADD20RoundRect,0.250000X-1.365778X-0.430436X0.464023X-1.354735X1.365778X0.430436X-0.464023X1.354735X0*%
%ADD21RoundRect,0.250000X-1.228843X-0.735234X0.765347X-1.210317X1.228843X0.735234X-0.765347X1.210317X0*%
%ADD22R,1.300000X1.300000*%
%ADD23RotRect,1.300000X1.300000X76.600000*%
%ADD24RotRect,1.300000X1.300000X103.400000*%
%ADD25RotRect,1.300000X1.300000X116.800000*%
%ADD26RotRect,1.300000X1.300000X63.200000*%
G04 APERTURE END LIST*
D10*
%TO.C,SWB4*%
X94589912Y-44686200D03*
D11*
X95089912Y-48486200D03*
X84089912Y-48486200D03*
D12*
X89589912Y-48486200D03*
D10*
X89589912Y-42586200D03*
D13*
X86089912Y-42486200D03*
X98089912Y-44686200D03*
%TD*%
D14*
%TO.C,M2*%
X130928825Y-96372500D03*
X128388825Y-96372500D03*
X125848825Y-96372500D03*
X123308825Y-96372500D03*
X120768825Y-96372500D03*
X118228825Y-96372500D03*
X115688825Y-96372500D03*
X115688825Y-111607500D03*
X118228825Y-111607500D03*
X120768825Y-111607500D03*
X123308825Y-111607500D03*
X125848825Y-111607500D03*
X128388825Y-111607500D03*
X130928825Y-111607500D03*
%TD*%
D11*
%TO.C,SW10*%
X222639912Y-48486200D03*
X211639912Y-48486200D03*
D10*
X217139912Y-42586200D03*
X222139912Y-44686200D03*
D12*
X217139912Y-48486200D03*
D13*
X213639912Y-42486200D03*
X225639912Y-44686200D03*
%TD*%
D15*
%TO.C,J2*%
X59489946Y-69548600D03*
X59489946Y-76548600D03*
D16*
X61789946Y-74148600D03*
X61789946Y-71148600D03*
X57189946Y-79248600D03*
X61789946Y-78148600D03*
%TD*%
D10*
%TO.C,SWB8*%
X112589912Y-58830000D03*
D11*
X113089912Y-62630000D03*
D12*
X107589912Y-62630000D03*
D11*
X102089912Y-62630000D03*
D10*
X107589912Y-56730000D03*
D13*
X104089912Y-56630000D03*
X116089912Y-58830000D03*
%TD*%
D17*
%TO.C,mouse-bite-3mm-slot*%
X154089946Y-91497950D03*
X154089946Y-92997950D03*
X154089946Y-89961950D03*
X152589946Y-92247950D03*
X154089946Y-90723950D03*
X152589946Y-89961950D03*
X154089946Y-92247950D03*
X152589946Y-90723950D03*
X152589946Y-92997950D03*
X152589946Y-91497950D03*
%TD*%
D10*
%TO.C,SWB12*%
X130589912Y-78686200D03*
X125589912Y-76586200D03*
D11*
X120089912Y-82486200D03*
X131089912Y-82486200D03*
D12*
X125589912Y-82486200D03*
D13*
X122089912Y-76486200D03*
X134089912Y-78686200D03*
%TD*%
D10*
%TO.C,SW16*%
X207640087Y-100830000D03*
D12*
X202640087Y-104630000D03*
D11*
X197140087Y-104630000D03*
X208140087Y-104630000D03*
D10*
X202640087Y-98730000D03*
D13*
X199140087Y-98630000D03*
X211140087Y-100830000D03*
%TD*%
D11*
%TO.C,SW11*%
X222639912Y-65486200D03*
D10*
X217139912Y-59586200D03*
D12*
X217139912Y-65486200D03*
D11*
X211639912Y-65486200D03*
D10*
X222139912Y-61686200D03*
D13*
X213639912Y-59486200D03*
X225639912Y-61686200D03*
%TD*%
D11*
%TO.C,SWB13*%
X149089912Y-55485950D03*
X138089912Y-55485950D03*
D12*
X143589912Y-55485950D03*
D10*
X148589912Y-51685950D03*
X143589912Y-49585950D03*
D13*
X140089912Y-49485950D03*
X152089912Y-51685950D03*
%TD*%
D10*
%TO.C,SWB18*%
X104089737Y-98730000D03*
X109089737Y-100830000D03*
D12*
X104089737Y-104630000D03*
D11*
X109589737Y-104630000D03*
X98589737Y-104630000D03*
D13*
X100589737Y-98630000D03*
X112589737Y-100830000D03*
%TD*%
D11*
%TO.C,SWB14*%
X149089912Y-72485950D03*
X138089912Y-72485950D03*
D10*
X148589912Y-68685950D03*
D12*
X143589912Y-72485950D03*
D10*
X143589912Y-66585950D03*
D13*
X140089912Y-66485950D03*
X152089912Y-68685950D03*
%TD*%
D10*
%TO.C,SW15*%
X240139912Y-81542400D03*
X235139912Y-79442400D03*
D11*
X240639912Y-85342400D03*
X229639912Y-85342400D03*
D12*
X235139912Y-85342400D03*
D13*
X231639912Y-79342400D03*
X243639912Y-81542400D03*
%TD*%
D11*
%TO.C,SW2*%
X157639912Y-72485950D03*
D10*
X168139912Y-68685950D03*
D11*
X168639912Y-72485950D03*
D12*
X163139912Y-72485950D03*
D10*
X163139912Y-66585950D03*
D13*
X159639912Y-66485950D03*
X171639912Y-68685950D03*
%TD*%
D11*
%TO.C,SWB10*%
X120089912Y-48486200D03*
D10*
X130589912Y-44686200D03*
X125589912Y-42586200D03*
D12*
X125589912Y-48486200D03*
D11*
X131089912Y-48486200D03*
D13*
X122089912Y-42486200D03*
X134089912Y-44686200D03*
%TD*%
D10*
%TO.C,SW4*%
X181139912Y-42586200D03*
X186139912Y-44686200D03*
D11*
X175639912Y-48486200D03*
X186639912Y-48486200D03*
D12*
X181139912Y-48486200D03*
D13*
X177639912Y-42486200D03*
X189639912Y-44686200D03*
%TD*%
D10*
%TO.C,SW14*%
X235139912Y-62442400D03*
D11*
X240639912Y-68342400D03*
X229639912Y-68342400D03*
D10*
X240139912Y-64542400D03*
D12*
X235139912Y-68342400D03*
D13*
X231639912Y-62342400D03*
X243639912Y-64542400D03*
%TD*%
D17*
%TO.C,mouse-bite-3mm-slot*%
X154089946Y-58597950D03*
X152589946Y-57847950D03*
X154089946Y-57847950D03*
X152589946Y-57097950D03*
X154089946Y-57097950D03*
X152589946Y-56323950D03*
X154089946Y-55561950D03*
X154089946Y-56323950D03*
X152589946Y-58597950D03*
X152589946Y-55561950D03*
%TD*%
D10*
%TO.C,SWB17*%
X83047998Y-101198924D03*
X88398548Y-102083014D03*
D12*
X84415311Y-106938302D03*
D11*
X79065044Y-108212915D03*
X89765578Y-105663689D03*
D18*
X79620108Y-101912764D03*
X91803264Y-101271896D03*
%TD*%
D17*
%TO.C,mouse-bite-3mm-slot*%
X152589946Y-73997950D03*
X152589946Y-71723950D03*
X152589946Y-73247950D03*
X154089946Y-73997950D03*
X154089946Y-73247950D03*
X152589946Y-70961950D03*
X154089946Y-71723950D03*
X152589946Y-72497950D03*
X154089946Y-72497950D03*
X154089946Y-70961950D03*
%TD*%
D10*
%TO.C,SWB1*%
X76589912Y-47542400D03*
D11*
X77089912Y-51342400D03*
X66089912Y-51342400D03*
D12*
X71589912Y-51342400D03*
D10*
X71589912Y-45442400D03*
D13*
X68089912Y-45342400D03*
X80089912Y-47542400D03*
%TD*%
D11*
%TO.C,SW13*%
X240639912Y-51342400D03*
D12*
X235139912Y-51342400D03*
D10*
X240139912Y-47542400D03*
D11*
X229639912Y-51342400D03*
D10*
X235139912Y-45442400D03*
D13*
X231639912Y-45342400D03*
X243639912Y-47542400D03*
%TD*%
D11*
%TO.C,SWB16*%
X60900239Y-116217663D03*
D12*
X65809461Y-113737837D03*
D10*
X68559055Y-108091623D03*
X63149284Y-108471581D03*
D11*
X70718683Y-111258011D03*
D19*
X59980145Y-109960393D03*
X71683106Y-106513552D03*
%TD*%
D12*
%TO.C,SW7*%
X199139912Y-45630000D03*
D11*
X193639912Y-45630000D03*
D10*
X199139912Y-39730000D03*
D11*
X204639912Y-45630000D03*
D10*
X204139912Y-41830000D03*
D13*
X195639912Y-39630000D03*
X207639912Y-41830000D03*
%TD*%
D10*
%TO.C,SWB3*%
X76589912Y-81542400D03*
D12*
X71589912Y-85342400D03*
D11*
X66089912Y-85342400D03*
D10*
X71589912Y-79442400D03*
D11*
X77089912Y-85342400D03*
D13*
X68089912Y-79342400D03*
X80089912Y-81542400D03*
%TD*%
D10*
%TO.C,SW9*%
X204139912Y-75830000D03*
D12*
X199139912Y-79630000D03*
D11*
X204639912Y-79630000D03*
D10*
X199139912Y-73730000D03*
D11*
X193639912Y-79630000D03*
D13*
X195639912Y-73630000D03*
X207639912Y-75830000D03*
%TD*%
D11*
%TO.C,SWB15*%
X138089912Y-89485950D03*
D10*
X148589912Y-85685950D03*
D11*
X149089912Y-89485950D03*
D10*
X143589912Y-83585950D03*
D12*
X143589912Y-89485950D03*
D13*
X140089912Y-83485950D03*
X152089912Y-85685950D03*
%TD*%
D11*
%TO.C,SWB9*%
X102089912Y-79630000D03*
D10*
X112589912Y-75830000D03*
D12*
X107589912Y-79630000D03*
D10*
X107589912Y-73730000D03*
D11*
X113089912Y-79630000D03*
D13*
X104089912Y-73630000D03*
X116089912Y-75830000D03*
%TD*%
D10*
%TO.C,SWB6*%
X89589912Y-76586200D03*
D11*
X95089912Y-82486200D03*
D10*
X94589912Y-78686200D03*
D12*
X89589912Y-82486200D03*
D11*
X84089912Y-82486200D03*
D13*
X86089912Y-76486200D03*
X98089912Y-78686200D03*
%TD*%
D11*
%TO.C,SWB7*%
X113089912Y-45630000D03*
D10*
X112589912Y-41830000D03*
D11*
X102089912Y-45630000D03*
D10*
X107589912Y-39730000D03*
D12*
X107589912Y-45630000D03*
D13*
X104089912Y-39630000D03*
X116089912Y-41830000D03*
%TD*%
D14*
%TO.C,M1*%
X175801000Y-111607500D03*
X178341000Y-111607500D03*
X180881000Y-111607500D03*
X183421000Y-111607500D03*
X185961000Y-111607500D03*
X188501000Y-111607500D03*
X191041000Y-111607500D03*
X191041000Y-96372500D03*
X188501000Y-96372500D03*
X185961000Y-96372500D03*
X183421000Y-96372500D03*
X180881000Y-96372500D03*
X178341000Y-96372500D03*
X175801000Y-96372500D03*
%TD*%
D12*
%TO.C,SW6*%
X181139912Y-82486200D03*
D10*
X181139912Y-76586200D03*
D11*
X175639912Y-82486200D03*
X186639912Y-82486200D03*
D10*
X186139912Y-78686200D03*
D13*
X177639912Y-76486200D03*
X189639912Y-78686200D03*
%TD*%
D11*
%TO.C,SW3*%
X168639912Y-89485950D03*
D12*
X163139912Y-89485950D03*
D10*
X168139912Y-85685950D03*
X163139912Y-83585950D03*
D11*
X157639912Y-89485950D03*
D13*
X159639912Y-83485950D03*
X171639912Y-85685950D03*
%TD*%
D15*
%TO.C,J1*%
X247239946Y-69448600D03*
X247239946Y-76448600D03*
D16*
X249539946Y-74048600D03*
X249539946Y-71048600D03*
X244939946Y-79148600D03*
X249539946Y-78048600D03*
%TD*%
D12*
%TO.C,SW18*%
X240920363Y-113737837D03*
D11*
X245829585Y-116217663D03*
D10*
X247096627Y-112600399D03*
D11*
X236011141Y-111258011D03*
D10*
X243580540Y-108471581D03*
D20*
X240501578Y-106804251D03*
X250220677Y-114178470D03*
%TD*%
D10*
%TO.C,SW1*%
X168139912Y-51685950D03*
X163139912Y-49585950D03*
D12*
X163139912Y-55485950D03*
D11*
X157639912Y-55485950D03*
X168639912Y-55485950D03*
D13*
X159639912Y-49485950D03*
X171639912Y-51685950D03*
%TD*%
D10*
%TO.C,SWB5*%
X89589912Y-59586200D03*
D11*
X95089912Y-65486200D03*
X84089912Y-65486200D03*
D10*
X94589912Y-61686200D03*
D12*
X89589912Y-65486200D03*
D13*
X86089912Y-59486200D03*
X98089912Y-61686200D03*
%TD*%
D11*
%TO.C,SWB2*%
X66089912Y-68342400D03*
X77089912Y-68342400D03*
D10*
X76589912Y-64542400D03*
D12*
X71589912Y-68342400D03*
D10*
X71589912Y-62442400D03*
D13*
X68089912Y-62342400D03*
X80089912Y-64542400D03*
%TD*%
D10*
%TO.C,SW5*%
X181139912Y-59586200D03*
X186139912Y-61686200D03*
D11*
X186639912Y-65486200D03*
D12*
X181139912Y-65486200D03*
D11*
X175639912Y-65486200D03*
D13*
X177639912Y-59486200D03*
X189639912Y-61686200D03*
%TD*%
D11*
%TO.C,SW12*%
X222639912Y-82486200D03*
D10*
X222139912Y-78686200D03*
D12*
X217139912Y-82486200D03*
D10*
X217139912Y-76586200D03*
D11*
X211639912Y-82486200D03*
D13*
X213639912Y-76486200D03*
X225639912Y-78686200D03*
%TD*%
D10*
%TO.C,SW17*%
X223681826Y-101198924D03*
D12*
X222314513Y-106938302D03*
D10*
X228059034Y-104400493D03*
D11*
X227664780Y-108212915D03*
X216964246Y-105663689D03*
D21*
X220300285Y-100290529D03*
X231463750Y-105211611D03*
%TD*%
D12*
%TO.C,SW8*%
X199139912Y-62630000D03*
D11*
X193639912Y-62630000D03*
D10*
X204139912Y-58830000D03*
D11*
X204639912Y-62630000D03*
D10*
X199139912Y-56730000D03*
D13*
X195639912Y-56630000D03*
X207639912Y-58830000D03*
%TD*%
D11*
%TO.C,SWB11*%
X120089912Y-65486200D03*
D10*
X130589912Y-61686200D03*
X125589912Y-59586200D03*
D12*
X125589912Y-65486200D03*
D11*
X131089912Y-65486200D03*
D13*
X122089912Y-59486200D03*
X134089912Y-61686200D03*
%TD*%
D22*
%TO.C,DB7*%
X113089912Y-48230000D03*
X113089912Y-51030000D03*
%TD*%
%TO.C,D4*%
X186639912Y-51086200D03*
X186639912Y-53886200D03*
%TD*%
%TO.C,DB14*%
X149089912Y-75485950D03*
X149089912Y-78285950D03*
%TD*%
%TO.C,DB10*%
X131089912Y-51297553D03*
X131089912Y-54097553D03*
%TD*%
%TO.C,D13*%
X240639912Y-53942400D03*
X240639912Y-56742400D03*
%TD*%
%TO.C,D14*%
X240639912Y-70942400D03*
X240639912Y-73742400D03*
%TD*%
%TO.C,DB2*%
X77089912Y-71153753D03*
X77089912Y-73953753D03*
%TD*%
%TO.C,D9*%
X204639912Y-82230000D03*
X204639912Y-85030000D03*
%TD*%
%TO.C,D2*%
X168639912Y-75085950D03*
X168639912Y-77885950D03*
%TD*%
%TO.C,D8*%
X204639912Y-65230000D03*
X204639912Y-68030000D03*
%TD*%
%TO.C,DB3*%
X77089912Y-87835950D03*
X77089912Y-90635950D03*
%TD*%
%TO.C,D11*%
X222639912Y-68086200D03*
X222639912Y-70886200D03*
%TD*%
%TO.C,D3*%
X168639912Y-92085950D03*
X168639912Y-94885950D03*
%TD*%
%TO.C,DB5*%
X95089912Y-68086200D03*
X95089912Y-70886200D03*
%TD*%
%TO.C,DB12*%
X131089912Y-85297553D03*
X131089912Y-88097553D03*
%TD*%
%TO.C,DB13*%
X149089912Y-58297303D03*
X149089912Y-61097303D03*
%TD*%
%TO.C,DB1*%
X77089912Y-53942400D03*
X77089912Y-56742400D03*
%TD*%
%TO.C,D16*%
X208140087Y-107230000D03*
X208140087Y-110030000D03*
%TD*%
%TO.C,D6*%
X186639912Y-85086200D03*
X186639912Y-87886200D03*
%TD*%
D23*
%TO.C,D17*%
X227044521Y-110807495D03*
X226395627Y-113531267D03*
%TD*%
D24*
%TO.C,DB17*%
X90441503Y-108303365D03*
X91090397Y-111027137D03*
%TD*%
D25*
%TO.C,DB16*%
X72124898Y-113740144D03*
X73387356Y-116239384D03*
%TD*%
D22*
%TO.C,D1*%
X168639912Y-58814796D03*
X168639912Y-61614796D03*
%TD*%
D26*
%TO.C,D18*%
X244787300Y-118513283D03*
X243524842Y-121012523D03*
%TD*%
D22*
%TO.C,DB8*%
X113089912Y-65230000D03*
X113089912Y-68030000D03*
%TD*%
%TO.C,D5*%
X186639912Y-68086200D03*
X186639912Y-70886200D03*
%TD*%
%TO.C,DB4*%
X95089912Y-51086200D03*
X95089912Y-53886200D03*
%TD*%
%TO.C,DB18*%
X109589737Y-107441353D03*
X109589737Y-110241353D03*
%TD*%
%TO.C,DB11*%
X131089912Y-68086200D03*
X131089912Y-70886200D03*
%TD*%
%TO.C,D10*%
X222639912Y-51086200D03*
X222639912Y-53886200D03*
%TD*%
%TO.C,D15*%
X240339946Y-87585950D03*
X240339946Y-90385950D03*
%TD*%
%TO.C,DB6*%
X95089912Y-85086200D03*
X95089912Y-87886200D03*
%TD*%
%TO.C,D12*%
X222639912Y-85086200D03*
X222639912Y-87886200D03*
%TD*%
%TO.C,DB9*%
X113089912Y-82441353D03*
X113089912Y-85241353D03*
%TD*%
%TO.C,DB15*%
X149089912Y-93085950D03*
X149089912Y-95885950D03*
%TD*%
%TO.C,D7*%
X204639912Y-48230000D03*
X204639912Y-51030000D03*
%TD*%
M02*
