%TF.GenerationSoftware,KiCad,Pcbnew,(6.0.6)*%
%TF.CreationDate,2022-09-25T18:06:26-06:00*%
%TF.ProjectId,miniErgo,6d696e69-4572-4676-9f2e-6b696361645f,rev?*%
%TF.SameCoordinates,Original*%
%TF.FileFunction,Profile,NP*%
%FSLAX46Y46*%
G04 Gerber Fmt 4.6, Leading zero omitted, Abs format (unit mm)*
G04 Created by KiCad (PCBNEW (6.0.6)) date 2022-09-25 18:06:26*
%MOMM*%
%LPD*%
G01*
G04 APERTURE LIST*
%TA.AperFunction,Profile*%
%ADD10C,0.150000*%
%TD*%
%TA.AperFunction,Profile*%
%ADD11C,0.100000*%
%TD*%
G04 APERTURE END LIST*
D10*
X153383770Y-52998200D02*
X153383770Y-52998200D01*
X176672052Y-131682135D02*
G75*
G03*
X172465488Y-130144842I-8654652J-17158165D01*
G01*
X172239970Y-56710600D02*
X187383770Y-56710600D01*
X175891871Y-113999474D02*
X176284642Y-114092924D01*
X154883945Y-126498200D02*
X119653858Y-126498200D01*
X189383800Y-58710600D02*
G75*
G03*
X187383770Y-56710600I-2000000J0D01*
G01*
X118383858Y-112996200D02*
X124659824Y-112996200D01*
X117027570Y-60854170D02*
G75*
G03*
X117883770Y-59997950I-70J856270D01*
G01*
X171383800Y-55854400D02*
G75*
G03*
X169383770Y-53854400I-2000000J0D01*
G01*
X188725507Y-137761956D02*
G75*
G03*
X191411923Y-136876959I900693J1785756D01*
G01*
X171383770Y-55854400D02*
X171383770Y-55854400D01*
X171383800Y-55854400D02*
G75*
G03*
X172239970Y-56710600I856300J100D01*
G01*
X154239970Y-53854400D02*
X169383770Y-53854400D01*
X195398003Y-94152605D02*
G75*
G03*
X195983770Y-92738373I-1414503J1414305D01*
G01*
X153383800Y-52998200D02*
G75*
G03*
X151383770Y-50998200I-2000000J0D01*
G01*
X124659824Y-122196200D02*
X118383858Y-122196200D01*
X118383850Y-112624150D02*
G75*
G03*
X117113858Y-111354150I-1269950J50D01*
G01*
X101883770Y-111354150D02*
X117113858Y-111354150D01*
X189383770Y-105210600D02*
X189383770Y-100995227D01*
X176688376Y-107210600D02*
G75*
G03*
X175891871Y-113999474I-16J-3441160D01*
G01*
X189383770Y-80099386D02*
X189383770Y-58710600D01*
X195983800Y-81811000D02*
G75*
G03*
X195127570Y-80954800I-856300J-100D01*
G01*
X187383770Y-107210670D02*
G75*
G03*
X189383770Y-105210600I130J1999870D01*
G01*
X189969545Y-99581003D02*
G75*
G03*
X189383770Y-100995227I1414455J-1414297D01*
G01*
X195983770Y-92738373D02*
X195983770Y-81811000D01*
X197041423Y-125716371D02*
G75*
G03*
X196156390Y-123029937I-1785823J900671D01*
G01*
X118383858Y-112624150D02*
X118383858Y-112996200D01*
X118383800Y-125228200D02*
G75*
G03*
X119653858Y-126498200I1270200J200D01*
G01*
X195127570Y-80954800D02*
X190239970Y-80954800D01*
X124659824Y-112996200D02*
X124659824Y-122196200D01*
X189383800Y-80099386D02*
G75*
G03*
X190239970Y-80955586I856200J0D01*
G01*
X99883850Y-109354150D02*
G75*
G03*
X101883770Y-111354150I1999950J-50D01*
G01*
X196156390Y-123029937D02*
X184102929Y-116950128D01*
X184102926Y-116950133D02*
G75*
G03*
X176284642Y-114092924I-16085926J-31891167D01*
G01*
X189969556Y-99581014D02*
X195397984Y-94152586D01*
X135027570Y-53854470D02*
G75*
G03*
X135883770Y-52998200I130J856070D01*
G01*
X99883770Y-107854150D02*
X99883770Y-62854150D01*
X119883770Y-53854370D02*
G75*
G03*
X117883770Y-55854400I-70J-1999930D01*
G01*
X137883770Y-50998170D02*
G75*
G03*
X135883770Y-52998200I-70J-1999930D01*
G01*
X101883770Y-60854170D02*
G75*
G03*
X99883770Y-62854150I-70J-1999930D01*
G01*
X176688376Y-107210600D02*
X187383770Y-107210600D01*
X191411923Y-136876959D02*
X197041376Y-125716347D01*
X159332103Y-127020070D02*
G75*
G03*
X154883945Y-126498200I-4448103J-18695530D01*
G01*
X99883770Y-109354150D02*
X99883770Y-107854150D01*
X172465488Y-130144842D02*
X159332101Y-127020080D01*
X119883770Y-53854400D02*
X135027570Y-53854400D01*
X188725513Y-137761945D02*
X176672052Y-131682136D01*
X118383858Y-125228200D02*
X118383858Y-122196200D01*
X153383800Y-52998200D02*
G75*
G03*
X154239970Y-53854400I856300J100D01*
G01*
X137883770Y-50998200D02*
X151383770Y-50998200D01*
X101883770Y-60854150D02*
X117027570Y-60854150D01*
X117883770Y-59997950D02*
X117883770Y-55854400D01*
D11*
X13666656Y-11500000D02*
G75*
G03*
X13666656Y-11500000I-1666666J0D01*
G01*
X9499990Y-11500000D02*
X14499990Y-11500000D01*
X11999990Y-9000000D02*
X11999990Y-14000000D01*
X13666656Y-11950000D02*
G75*
G03*
X13666656Y-11950000I-1666666J0D01*
G01*
X9499990Y-11950000D02*
X14499990Y-11950000D01*
X11999990Y-9450000D02*
X11999990Y-14450000D01*
M02*
