%TF.GenerationSoftware,KiCad,Pcbnew,(6.0.6)*%
%TF.CreationDate,2022-09-11T22:53:33-06:00*%
%TF.ProjectId,miniErgo,6d696e69-4572-4676-9f2e-6b696361645f,rev?*%
%TF.SameCoordinates,Original*%
%TF.FileFunction,Copper,L1,Top*%
%TF.FilePolarity,Positive*%
%FSLAX46Y46*%
G04 Gerber Fmt 4.6, Leading zero omitted, Abs format (unit mm)*
G04 Created by KiCad (PCBNEW (6.0.6)) date 2022-09-11 22:53:33*
%MOMM*%
%LPD*%
G01*
G04 APERTURE LIST*
G04 Aperture macros list*
%AMRoundRect*
0 Rectangle with rounded corners*
0 $1 Rounding radius*
0 $2 $3 $4 $5 $6 $7 $8 $9 X,Y pos of 4 corners*
0 Add a 4 corners polygon primitive as box body*
4,1,4,$2,$3,$4,$5,$6,$7,$8,$9,$2,$3,0*
0 Add four circle primitives for the rounded corners*
1,1,$1+$1,$2,$3*
1,1,$1+$1,$4,$5*
1,1,$1+$1,$6,$7*
1,1,$1+$1,$8,$9*
0 Add four rect primitives between the rounded corners*
20,1,$1+$1,$2,$3,$4,$5,0*
20,1,$1+$1,$4,$5,$6,$7,0*
20,1,$1+$1,$6,$7,$8,$9,0*
20,1,$1+$1,$8,$9,$2,$3,0*%
G04 Aperture macros list end*
%TA.AperFunction,NonConductor*%
%ADD10C,0.150000*%
%TD*%
%TA.AperFunction,ComponentPad*%
%ADD11RoundRect,0.250000X-1.025000X-1.000000X1.025000X-1.000000X1.025000X1.000000X-1.025000X1.000000X0*%
%TD*%
%TA.AperFunction,SMDPad,CuDef*%
%ADD12RoundRect,0.400000X-0.400000X1.100000X-0.400000X-1.100000X0.400000X-1.100000X0.400000X1.100000X0*%
%TD*%
%TA.AperFunction,ComponentPad*%
%ADD13C,1.600000*%
%TD*%
%TA.AperFunction,ComponentPad*%
%ADD14O,1.600000X2.000000*%
%TD*%
%TA.AperFunction,ComponentPad*%
%ADD15RoundRect,0.250000X-0.765347X-1.210317X1.228843X-0.735234X0.765347X1.210317X-1.228843X0.735234X0*%
%TD*%
%TA.AperFunction,ComponentPad*%
%ADD16RoundRect,0.250000X-0.464023X-1.354735X1.365778X-0.430436X0.464023X1.354735X-1.365778X0.430436X0*%
%TD*%
%TA.AperFunction,SMDPad,CuDef*%
%ADD17RoundRect,0.400000X0.400000X-1.100000X0.400000X1.100000X-0.400000X1.100000X-0.400000X-1.100000X0*%
%TD*%
%TA.AperFunction,ComponentPad*%
%ADD18RoundRect,0.250000X-1.365778X-0.430436X0.464023X-1.354735X1.365778X0.430436X-0.464023X1.354735X0*%
%TD*%
%TA.AperFunction,ComponentPad*%
%ADD19RoundRect,0.250000X-1.228843X-0.735234X0.765347X-1.210317X1.228843X0.735234X-0.765347X1.210317X0*%
%TD*%
%TA.AperFunction,ViaPad*%
%ADD20C,0.800000*%
%TD*%
%TA.AperFunction,Conductor*%
%ADD21C,0.250000*%
%TD*%
G04 APERTURE END LIST*
D10*
X145189946Y-55485950D02*
G75*
G03*
X145189946Y-55485950I-1600000J0D01*
G01*
D11*
%TO.P,SWB4,1,1*%
%TO.N,Col 1 B*%
X86089912Y-42486200D03*
%TD*%
D12*
%TO.P,M2,1,D0*%
%TO.N,Col 0 B*%
X130928825Y-95372500D03*
D13*
X130928825Y-96372500D03*
%TO.P,M2,2,D1*%
%TO.N,Col 1 B*%
X128388825Y-96372500D03*
D12*
X128388825Y-95372500D03*
D13*
%TO.P,M2,3,D2*%
%TO.N,Col 4 B*%
X125848825Y-96372500D03*
D12*
X125848825Y-95372500D03*
D13*
%TO.P,M2,4,D3*%
%TO.N,Col 3 B*%
X123308825Y-96372500D03*
D12*
X123308825Y-95372500D03*
D13*
%TO.P,M2,5,D4*%
%TO.N,Net-(J2-PadR2)*%
X120768825Y-96372500D03*
D12*
X120768825Y-95372500D03*
D13*
%TO.P,M2,6,D5*%
%TO.N,Net-(J2-PadR1)*%
X118228825Y-96372500D03*
D12*
X118228825Y-95372500D03*
%TO.P,M2,7,D6*%
%TO.N,Row 3 B*%
X115688825Y-95372500D03*
D13*
X115688825Y-96372500D03*
%TO.P,M2,8,D7*%
%TO.N,Col 2 B*%
X115688825Y-111607500D03*
D12*
X115688825Y-112607500D03*
%TO.P,M2,9,D8*%
%TO.N,Row 0 B*%
X118228825Y-112607500D03*
D13*
X118228825Y-111607500D03*
D12*
%TO.P,M2,10,D9*%
%TO.N,Row 1 B*%
X120768825Y-112607500D03*
D13*
X120768825Y-111607500D03*
%TO.P,M2,11,D10*%
%TO.N,Row 2 B*%
X123308825Y-111607500D03*
D12*
X123308825Y-112607500D03*
%TO.P,M2,12,3V3*%
%TO.N,Net-(J2-PadT)*%
X125848825Y-112607500D03*
D13*
X125848825Y-111607500D03*
%TO.P,M2,13,GND*%
%TO.N,Net-(J2-PadS)*%
X128388825Y-111607500D03*
D12*
X128388825Y-112607500D03*
D13*
%TO.P,M2,14,5V*%
%TO.N,unconnected-(M2-Pad14)*%
X130928825Y-111607500D03*
D12*
X130928825Y-112607500D03*
%TD*%
D11*
%TO.P,SW10,1,1*%
%TO.N,Col 3*%
X213639912Y-42486200D03*
%TD*%
D14*
%TO.P,J2,R1*%
%TO.N,Net-(J2-PadR1)*%
X61789946Y-74148600D03*
%TO.P,J2,R2*%
%TO.N,Net-(J2-PadR2)*%
X61789946Y-71148600D03*
%TO.P,J2,S*%
%TO.N,Net-(J2-PadS)*%
X57189946Y-79248600D03*
%TO.P,J2,T*%
%TO.N,Net-(J2-PadT)*%
X61789946Y-78148600D03*
%TD*%
D11*
%TO.P,SWB8,1,1*%
%TO.N,Col 2 B*%
X104089912Y-56630000D03*
%TD*%
%TO.P,SWB12,1,1*%
%TO.N,Col 3 B*%
X122089912Y-76486200D03*
%TD*%
%TO.P,SW16,1,1*%
%TO.N,Col 2*%
X199140087Y-98630000D03*
%TD*%
%TO.P,SW11,1,1*%
%TO.N,Col 3*%
X213639912Y-59486200D03*
%TD*%
%TO.P,SWB13,1,1*%
%TO.N,Col 4 B*%
X140089912Y-49485950D03*
%TD*%
%TO.P,SWB18,1,1*%
%TO.N,Col 2 B*%
X100589737Y-98630000D03*
%TD*%
%TO.P,SWB14,1,1*%
%TO.N,Col 4 B*%
X140089912Y-66485950D03*
%TD*%
%TO.P,SW15,1,1*%
%TO.N,Col 4*%
X231639912Y-79342400D03*
%TD*%
%TO.P,SW2,1,1*%
%TO.N,Col 0*%
X159639912Y-66485950D03*
%TD*%
%TO.P,SWB10,1,1*%
%TO.N,Col 3 B*%
X122089912Y-42486200D03*
%TD*%
%TO.P,SW4,1,1*%
%TO.N,Col 1*%
X177639912Y-42486200D03*
%TD*%
%TO.P,SW14,1,1*%
%TO.N,Col 4*%
X231639912Y-62342400D03*
%TD*%
D15*
%TO.P,SWB17,1,1*%
%TO.N,Col 1 B*%
X79620108Y-101912764D03*
%TD*%
D11*
%TO.P,SWB1,1,1*%
%TO.N,Col 0 B*%
X68089912Y-45342400D03*
%TD*%
%TO.P,SW13,1,1*%
%TO.N,Col 4*%
X231639912Y-45342400D03*
%TD*%
D16*
%TO.P,SWB16,1,1*%
%TO.N,Col 0 B*%
X59980145Y-109960393D03*
%TD*%
D11*
%TO.P,SW7,1,1*%
%TO.N,Col 2*%
X195639912Y-39630000D03*
%TD*%
%TO.P,SWB3,1,1*%
%TO.N,Col 0 B*%
X68089912Y-79342400D03*
%TD*%
%TO.P,SW9,1,1*%
%TO.N,Col 2*%
X195639912Y-73630000D03*
%TD*%
%TO.P,SWB15,1,1*%
%TO.N,Col 4 B*%
X140089912Y-83485950D03*
%TD*%
%TO.P,SWB9,1,1*%
%TO.N,Col 2 B*%
X104089912Y-73630000D03*
%TD*%
%TO.P,SWB6,1,1*%
%TO.N,Col 1 B*%
X86089912Y-76486200D03*
%TD*%
%TO.P,SWB7,1,1*%
%TO.N,Col 2 B*%
X104089912Y-39630000D03*
%TD*%
D17*
%TO.P,M1,1,D0*%
%TO.N,Col 0*%
X175801000Y-112607500D03*
D13*
X175801000Y-111607500D03*
D17*
%TO.P,M1,2,D1*%
%TO.N,Col 1*%
X178341000Y-112607500D03*
D13*
X178341000Y-111607500D03*
%TO.P,M1,3,D2*%
%TO.N,Col 4*%
X180881000Y-111607500D03*
D17*
X180881000Y-112607500D03*
%TO.P,M1,4,D3*%
%TO.N,Col 3*%
X183421000Y-112607500D03*
D13*
X183421000Y-111607500D03*
%TO.P,M1,5,D4*%
%TO.N,Net-(J1-PadR2)*%
X185961000Y-111607500D03*
D17*
X185961000Y-112607500D03*
D13*
%TO.P,M1,6,D5*%
%TO.N,Net-(J1-PadR1)*%
X188501000Y-111607500D03*
D17*
X188501000Y-112607500D03*
D13*
%TO.P,M1,7,D6*%
%TO.N,Row 3*%
X191041000Y-111607500D03*
D17*
X191041000Y-112607500D03*
D13*
%TO.P,M1,8,D7*%
%TO.N,Col 2*%
X191041000Y-96372500D03*
D17*
X191041000Y-95372500D03*
D13*
%TO.P,M1,9,D8*%
%TO.N,Row 0*%
X188501000Y-96372500D03*
D17*
X188501000Y-95372500D03*
%TO.P,M1,10,D9*%
%TO.N,Row 1*%
X185961000Y-95372500D03*
D13*
X185961000Y-96372500D03*
%TO.P,M1,11,D10*%
%TO.N,Row 2*%
X183421000Y-96372500D03*
D17*
X183421000Y-95372500D03*
D13*
%TO.P,M1,12,3V3*%
%TO.N,Net-(J1-PadT)*%
X180881000Y-96372500D03*
D17*
X180881000Y-95372500D03*
%TO.P,M1,13,GND*%
%TO.N,Net-(J1-PadS)*%
X178341000Y-95372500D03*
D13*
X178341000Y-96372500D03*
D17*
%TO.P,M1,14,5V*%
%TO.N,unconnected-(M1-Pad14)*%
X175801000Y-95372500D03*
D13*
X175801000Y-96372500D03*
%TD*%
D11*
%TO.P,SW6,1,1*%
%TO.N,Col 1*%
X177639912Y-76486200D03*
%TD*%
%TO.P,SW3,1,1*%
%TO.N,Col 0*%
X159639912Y-83485950D03*
%TD*%
D14*
%TO.P,J1,R1*%
%TO.N,Net-(J1-PadR1)*%
X249539946Y-74048600D03*
%TO.P,J1,R2*%
%TO.N,Net-(J1-PadR2)*%
X249539946Y-71048600D03*
%TO.P,J1,S*%
%TO.N,Net-(J1-PadS)*%
X244939946Y-79148600D03*
%TO.P,J1,T*%
%TO.N,Net-(J1-PadT)*%
X249539946Y-78048600D03*
%TD*%
D18*
%TO.P,SW18,1,1*%
%TO.N,Col 4*%
X240501578Y-106804251D03*
%TD*%
D11*
%TO.P,SW1,1,1*%
%TO.N,Col 0*%
X159639912Y-49485950D03*
%TD*%
%TO.P,SWB5,1,1*%
%TO.N,Col 1 B*%
X86089912Y-59486200D03*
%TD*%
%TO.P,SWB2,1,1*%
%TO.N,Col 0 B*%
X68089912Y-62342400D03*
%TD*%
%TO.P,SW5,1,1*%
%TO.N,Col 1*%
X177639912Y-59486200D03*
%TD*%
%TO.P,SW12,1,1*%
%TO.N,Col 3*%
X213639912Y-76486200D03*
%TD*%
D19*
%TO.P,SW17,1,1*%
%TO.N,Col 3*%
X220300285Y-100290529D03*
%TD*%
D11*
%TO.P,SW8,1,1*%
%TO.N,Col 2*%
X195639912Y-56630000D03*
%TD*%
%TO.P,SWB11,1,1*%
%TO.N,Col 3 B*%
X122089912Y-59486200D03*
%TD*%
D20*
%TO.N,Row 0*%
X188939696Y-53886200D03*
%TO.N,Row 1*%
X188839946Y-70886200D03*
%TO.N,Row 2*%
X188689696Y-87886200D03*
%TO.N,Row 0 B*%
X138089662Y-61097303D03*
%TO.N,Row 1 B*%
X138489662Y-78285950D03*
%TO.N,Row 2 B*%
X138878309Y-95885950D03*
%TO.N,Net-(J1-PadR1)*%
X232589946Y-92985950D03*
%TO.N,Net-(J1-PadR2)*%
X233589946Y-92511450D03*
%TO.N,Net-(J1-PadS)*%
X182664745Y-92360450D03*
X234528153Y-92011450D03*
%TO.N,Net-(J2-PadR1)*%
X118339946Y-91485950D03*
%TO.N,Net-(J2-PadR2)*%
X120839946Y-91735950D03*
%TO.N,Net-(J2-PadS)*%
X112089946Y-92011450D03*
X128339946Y-107811450D03*
%TO.N,Net-(J2-PadT)*%
X113089946Y-91235950D03*
X125839946Y-107361450D03*
%TO.N,Col 3*%
X196839946Y-93985950D03*
%TO.N,Col 0 B*%
X85089946Y-93960450D03*
%TO.N,Col 1 B*%
X86089912Y-94485984D03*
%TO.N,Col 4 B*%
X134089946Y-85735950D03*
%TD*%
D21*
%TO.N,Row 0*%
X189589946Y-70485950D02*
X189589946Y-71235950D01*
X189339946Y-86849554D02*
X189864696Y-87374304D01*
X189339946Y-71485950D02*
X189339946Y-86849554D01*
X189864696Y-87374304D02*
X189864696Y-88483992D01*
X189864696Y-88483992D02*
X188589946Y-89758742D01*
X189589946Y-71235950D02*
X189339946Y-71485950D01*
X188939696Y-69835700D02*
X189589946Y-70485950D01*
X188589946Y-96283554D02*
X188501000Y-96372500D01*
X188939696Y-53886200D02*
X188939696Y-69835700D01*
X188589946Y-89758742D02*
X188589946Y-96283554D01*
%TO.N,Row 1*%
X188839946Y-86985950D02*
X189414696Y-87560700D01*
X189414696Y-88297596D02*
X185961000Y-91751292D01*
X188839946Y-70886200D02*
X188839946Y-86985950D01*
X185961000Y-91751292D02*
X185961000Y-96372500D01*
X189414696Y-87560700D02*
X189414696Y-88297596D01*
%TO.N,Row 2*%
X183421000Y-93654896D02*
X188689696Y-88386200D01*
X188689696Y-88386200D02*
X188689696Y-87886200D01*
X183421000Y-96372500D02*
X183421000Y-93654896D01*
%TO.N,Row 0 B*%
X135389946Y-94799554D02*
X132639946Y-97549554D01*
X132639946Y-108299554D02*
X132403550Y-108535950D01*
X119939946Y-108535950D02*
X118228825Y-110247071D01*
X132403550Y-108535950D02*
X119939946Y-108535950D01*
X132639946Y-97549554D02*
X132639946Y-108299554D01*
X118228825Y-110247071D02*
X118228825Y-111607500D01*
X135389946Y-63797019D02*
X135389946Y-94799554D01*
X138089662Y-61097303D02*
X135389946Y-63797019D01*
%TO.N,Row 1 B*%
X132589946Y-108985950D02*
X122089946Y-108985950D01*
X120768825Y-110307071D02*
X120768825Y-111607500D01*
X135839946Y-94985950D02*
X133089946Y-97735950D01*
X133089946Y-108485950D02*
X132589946Y-108985950D01*
X135839946Y-80935666D02*
X135839946Y-94985950D01*
X138489662Y-78285950D02*
X135839946Y-80935666D01*
X133089946Y-97735950D02*
X133089946Y-108485950D01*
X122089946Y-108985950D02*
X120768825Y-110307071D01*
%TO.N,Row 2 B*%
X123308825Y-110217071D02*
X123308825Y-111607500D01*
X135576342Y-95885950D02*
X133539946Y-97922346D01*
X124089946Y-109435950D02*
X123308825Y-110217071D01*
X133539946Y-108672346D02*
X132776342Y-109435950D01*
X133539946Y-97922346D02*
X133539946Y-108672346D01*
X132776342Y-109435950D02*
X124089946Y-109435950D01*
X138878309Y-95885950D02*
X135576342Y-95885950D01*
%TO.N,Net-(J1-PadR1)*%
X249089946Y-79735950D02*
X248339946Y-78985950D01*
X242089946Y-93235950D02*
X243589946Y-91735950D01*
X243589946Y-91735950D02*
X243589946Y-86235950D01*
X249539946Y-75785950D02*
X249539946Y-74048600D01*
X248339946Y-78985950D02*
X248339946Y-76985950D01*
X248339946Y-76985950D02*
X249539946Y-75785950D01*
X243589946Y-86235950D02*
X249089946Y-80735950D01*
X232839946Y-93235950D02*
X242089946Y-93235950D01*
X232589946Y-92985950D02*
X232839946Y-93235950D01*
X249089946Y-80735950D02*
X249089946Y-79735950D01*
%TO.N,Net-(J1-PadR2)*%
X246464945Y-75110951D02*
X247839946Y-73735950D01*
X247839946Y-73735950D02*
X247839946Y-72235950D01*
X248521748Y-79804148D02*
X246464945Y-77747345D01*
X248521748Y-80667752D02*
X248521748Y-79804148D01*
X233814446Y-92735950D02*
X241953550Y-92735950D01*
X246464945Y-77747345D02*
X246464945Y-75110951D01*
X233589946Y-92511450D02*
X233814446Y-92735950D01*
X247839946Y-72235950D02*
X249027296Y-71048600D01*
X243139946Y-86049554D02*
X248521748Y-80667752D01*
X243139946Y-91549554D02*
X243139946Y-86049554D01*
X241953550Y-92735950D02*
X243139946Y-91549554D01*
X249027296Y-71048600D02*
X249539946Y-71048600D01*
%TO.N,Net-(J1-PadS)*%
X179215446Y-92360450D02*
X178339946Y-93235950D01*
X178339946Y-93235950D02*
X178339946Y-96371446D01*
X242689946Y-85863158D02*
X246589946Y-81963158D01*
X241767154Y-92285950D02*
X242689946Y-91363158D01*
X234802653Y-92285950D02*
X241767154Y-92285950D01*
X182664745Y-92360450D02*
X179215446Y-92360450D01*
X234528153Y-92011450D02*
X234802653Y-92285950D01*
X246589946Y-80798600D02*
X244939946Y-79148600D01*
X246589946Y-81963158D02*
X246589946Y-80798600D01*
X242689946Y-91363158D02*
X242689946Y-85863158D01*
X178339946Y-96371446D02*
X178341000Y-96372500D01*
%TO.N,Net-(J2-PadR1)*%
X118228825Y-91597071D02*
X118228825Y-96372500D01*
X118339946Y-91485950D02*
X118228825Y-91597071D01*
%TO.N,Net-(J2-PadR2)*%
X120768825Y-91807071D02*
X120768825Y-96372500D01*
X120839946Y-91735950D02*
X120768825Y-91807071D01*
%TO.N,Net-(J2-PadS)*%
X128339946Y-107811450D02*
X128065446Y-108085950D01*
X117803550Y-108085950D02*
X112089946Y-102372346D01*
X128065446Y-108085950D02*
X117803550Y-108085950D01*
X112089946Y-102372346D02*
X112089946Y-92011450D01*
%TO.N,Net-(J2-PadT)*%
X112539946Y-102185950D02*
X112539946Y-92586755D01*
X112814946Y-91711145D02*
X112714849Y-91611047D01*
X112714849Y-91611047D02*
X113089946Y-91235950D01*
X125565446Y-107635950D02*
X117989946Y-107635950D01*
X125839946Y-107361450D02*
X125565446Y-107635950D01*
X112539946Y-92586755D02*
X112814946Y-92311755D01*
X112814946Y-92311755D02*
X112814946Y-91711145D01*
X117989946Y-107635950D02*
X112539946Y-102185950D01*
%TO.N,Col 0*%
X173339946Y-98235950D02*
X173339946Y-109235950D01*
X175711496Y-111607500D02*
X175801000Y-111607500D01*
X159839946Y-94735950D02*
X162339946Y-97235950D01*
X172339946Y-97235950D02*
X173339946Y-98235950D01*
X159639912Y-49485950D02*
X159639912Y-83485950D01*
X162339946Y-97235950D02*
X172339946Y-97235950D01*
X159639912Y-83485950D02*
X159839946Y-83685984D01*
X173339946Y-109235950D02*
X175711496Y-111607500D01*
X159839946Y-83685984D02*
X159839946Y-94735950D01*
%TO.N,Col 1*%
X177639912Y-76486200D02*
X177639912Y-88435984D01*
X177089946Y-109735950D02*
X178341000Y-110987004D01*
X177639912Y-42486200D02*
X177639912Y-76486200D01*
X174589946Y-109735950D02*
X177089946Y-109735950D01*
X172589946Y-96849554D02*
X173839946Y-98099554D01*
X173839946Y-108985950D02*
X174589946Y-109735950D01*
X178341000Y-110987004D02*
X178341000Y-111607500D01*
X172589946Y-93485950D02*
X172589946Y-96849554D01*
X177639912Y-88435984D02*
X172589946Y-93485950D01*
X173839946Y-98099554D02*
X173839946Y-108985950D01*
%TO.N,Col 3*%
X197195740Y-93630156D02*
X196839946Y-93985950D01*
X213639912Y-93630156D02*
X197195740Y-93630156D01*
X213639912Y-42486200D02*
X213639912Y-76486200D01*
X213639912Y-93630156D02*
X220300285Y-100290529D01*
X213639912Y-76486200D02*
X213639912Y-93630156D01*
%TO.N,Col 4*%
X240501578Y-106473294D02*
X240501578Y-106804251D01*
X231639912Y-79342400D02*
X231639912Y-92807758D01*
X230236793Y-100689402D02*
X230088281Y-100652274D01*
X197339946Y-111985950D02*
X194089946Y-108735950D01*
X231639912Y-92807758D02*
X231146302Y-93301368D01*
X231146302Y-93301368D02*
X230993227Y-93301368D01*
X240501578Y-106804251D02*
X234521645Y-106804251D01*
X229339946Y-111985950D02*
X197339946Y-111985950D01*
X237052071Y-103023787D02*
X240501578Y-106473294D01*
X231639912Y-45342400D02*
X231639912Y-79342400D01*
X234521645Y-106804251D02*
X229339946Y-111985950D01*
X194089946Y-108735950D02*
X183752550Y-108735950D01*
X183752550Y-108735950D02*
X180881000Y-111607500D01*
X230088291Y-100652235D02*
G75*
G02*
X230993227Y-93301368I904909J3619735D01*
G01*
X237052070Y-103023788D02*
G75*
G03*
X230236793Y-100689402I-15918070J-35357212D01*
G01*
%TO.N,Col 2*%
X195639912Y-73630000D02*
X195639912Y-95129825D01*
X195639912Y-95129825D02*
X199140087Y-98630000D01*
X192283675Y-95129825D02*
X191041000Y-96372500D01*
X195639912Y-39630000D02*
X195639912Y-73630000D01*
X195639912Y-95129825D02*
X192283675Y-95129825D01*
%TO.N,Col 0 B*%
X85089946Y-93960450D02*
X84365446Y-93235950D01*
X68089912Y-45342400D02*
X68089912Y-79342400D01*
X68089946Y-90485950D02*
X70839946Y-93235950D01*
X68089912Y-86735916D02*
X68089946Y-86735950D01*
X84365446Y-93235950D02*
X75589946Y-93235950D01*
X68089946Y-86735950D02*
X68089946Y-90485950D01*
X70839946Y-93235950D02*
X75589946Y-93235950D01*
X68089912Y-79342400D02*
X68089912Y-86735916D01*
X61089946Y-107235950D02*
X69089946Y-103235950D01*
X59839946Y-109985950D02*
X61089946Y-107235950D01*
X76499455Y-100623985D02*
G75*
G03*
X75589946Y-93235950I-909505J3638035D01*
G01*
X76499455Y-100623985D02*
G75*
G03*
X69089946Y-103235950I9012845J-37382715D01*
G01*
%TO.N,Col 1 B*%
X86089912Y-42486200D02*
X86089912Y-76486200D01*
X86089912Y-76486200D02*
X86089912Y-94485984D01*
X86089912Y-94485984D02*
X86089912Y-95442960D01*
X86089912Y-95442960D02*
X79620108Y-101912764D01*
%TO.N,Col 3 B*%
X122089912Y-42486200D02*
X122089912Y-76486200D01*
X123308825Y-92454829D02*
X123308825Y-96372500D01*
X122089912Y-91235916D02*
X123308825Y-92454829D01*
X122089912Y-76486200D02*
X122089912Y-91235916D01*
%TO.N,Col 4 B*%
X140089912Y-49485950D02*
X140089912Y-83485950D01*
X134089946Y-85735950D02*
X125848825Y-93977071D01*
X125848825Y-93977071D02*
X125848825Y-96372500D01*
%TO.N,Col 2 B*%
X101012404Y-109658408D02*
X102961496Y-111607500D01*
X104089912Y-39630000D02*
X104089912Y-73630000D01*
X102961496Y-111607500D02*
X115688825Y-111607500D01*
X104089946Y-95129791D02*
X100589737Y-98630000D01*
X101012404Y-99052667D02*
X101012404Y-109658408D01*
X100589737Y-98630000D02*
X101012404Y-99052667D01*
X104089912Y-73630000D02*
X104089946Y-73630034D01*
X104089946Y-73630034D02*
X104089946Y-95129791D01*
%TD*%
M02*
