M48
; DRILL file {KiCad (6.0.6)} date Sun Sep 25 18:06:19 2022
; FORMAT={-:-/ absolute / inch / decimal}
; #@! TF.CreationDate,2022-09-25T18:06:19-06:00
; #@! TF.GenerationSoftware,Kicad,Pcbnew,(6.0.6)
; #@! TF.FileFunction,NonPlated,1,2,NPTH
FMAT,2
INCH
; #@! TA.AperFunction,NonPlated,NPTH,ComponentDrill
T1C0.0315
; #@! TA.AperFunction,NonPlated,NPTH,ComponentDrill
T2C0.0748
; #@! TA.AperFunction,NonPlated,NPTH,ComponentDrill
T3C0.1201
; #@! TA.AperFunction,NonPlated,NPTH,ComponentDrill
T4C0.1988
%
G90
G05
T1
X7.5899Y-3.2699
X7.5899Y-3.2699
X7.5899Y-3.5455
X7.5899Y-3.5455
T2
X4.0624Y-2.7202
X4.0624Y-3.3895
X4.0624Y-4.0587
X4.4954Y-2.7202
X4.4954Y-3.3895
X4.4954Y-4.0587
X4.771Y-2.4446
X4.771Y-3.1139
X4.771Y-3.7832
X5.2041Y-2.4446
X5.2041Y-3.1139
X5.2041Y-3.7832
X5.4797Y-2.3321
X5.4797Y-3.0014
X5.4797Y-3.6707
X5.6175Y-4.655
X5.9127Y-2.3321
X5.9127Y-3.0014
X5.9127Y-3.6707
X6.0505Y-4.655
X6.1883Y-2.4446
X6.1883Y-3.1139
X6.1883Y-3.7832
X6.398Y-4.6957
X6.6214Y-2.4446
X6.6214Y-3.1139
X6.6214Y-3.7832
X6.8192Y-4.796
X6.897Y-2.557
X6.897Y-3.2263
X6.897Y-3.8956
X7.1478Y-4.9159
X7.3301Y-2.557
X7.3301Y-3.2263
X7.3301Y-3.8956
X7.5344Y-5.1112
T3
X4.082Y-2.5706
X4.082Y-3.2398
X4.082Y-3.9091
X4.2789Y-2.4879
X4.2789Y-3.1572
X4.2789Y-3.8265
X4.4757Y-2.5706
X4.4757Y-3.2398
X4.4757Y-3.9091
X4.7907Y-2.295
X4.7907Y-2.9643
X4.7907Y-3.6336
X4.9875Y-2.2123
X4.9875Y-2.8816
X4.9875Y-3.5509
X5.1844Y-2.295
X5.1844Y-2.9643
X5.1844Y-3.6336
X5.4994Y-2.1825
X5.4994Y-2.8518
X5.4994Y-3.5211
X5.6372Y-4.5054
X5.6962Y-2.0999
X5.6962Y-2.7691
X5.6962Y-3.4384
X5.834Y-4.4227
X5.8931Y-2.1825
X5.8931Y-2.8518
X5.8931Y-3.5211
X6.0309Y-4.5054
X6.208Y-2.295
X6.208Y-2.9643
X6.208Y-3.6336
X6.4049Y-2.2123
X6.4049Y-2.8816
X6.4049Y-3.5509
X6.4518Y-4.5547
X6.6017Y-2.295
X6.6017Y-2.9643
X6.6017Y-3.6336
X6.6624Y-4.5199
X6.8348Y-4.6459
X6.9167Y-2.4074
X6.9167Y-3.0767
X6.9167Y-3.746
X7.1135Y-2.3247
X7.1135Y-2.994
X7.1135Y-3.6633
X7.2329Y-4.7913
X7.3104Y-2.4074
X7.3104Y-3.0767
X7.3104Y-3.746
X7.4458Y-4.8062
X7.5843Y-4.9688
T4
X4.2789Y-2.7202
X4.2789Y-3.3895
X4.2789Y-4.0587
X4.9875Y-2.4446
X4.9875Y-3.1139
X4.9875Y-3.7832
X5.6962Y-2.3321
X5.6962Y-3.0014
X5.6962Y-3.6707
X5.834Y-4.655
X6.4049Y-2.4446
X6.4049Y-3.1139
X6.4049Y-3.7832
X6.6086Y-4.7458
X7.1135Y-2.557
X7.1135Y-3.2263
X7.1135Y-3.8956
X7.3411Y-5.0135
T0
M30
