%TF.GenerationSoftware,KiCad,Pcbnew,(6.0.6)*%
%TF.CreationDate,2022-09-11T22:53:33-06:00*%
%TF.ProjectId,miniErgo,6d696e69-4572-4676-9f2e-6b696361645f,rev?*%
%TF.SameCoordinates,Original*%
%TF.FileFunction,Copper,L2,Bot*%
%TF.FilePolarity,Positive*%
%FSLAX46Y46*%
G04 Gerber Fmt 4.6, Leading zero omitted, Abs format (unit mm)*
G04 Created by KiCad (PCBNEW (6.0.6)) date 2022-09-11 22:53:33*
%MOMM*%
%LPD*%
G01*
G04 APERTURE LIST*
G04 Aperture macros list*
%AMRoundRect*
0 Rectangle with rounded corners*
0 $1 Rounding radius*
0 $2 $3 $4 $5 $6 $7 $8 $9 X,Y pos of 4 corners*
0 Add a 4 corners polygon primitive as box body*
4,1,4,$2,$3,$4,$5,$6,$7,$8,$9,$2,$3,0*
0 Add four circle primitives for the rounded corners*
1,1,$1+$1,$2,$3*
1,1,$1+$1,$4,$5*
1,1,$1+$1,$6,$7*
1,1,$1+$1,$8,$9*
0 Add four rect primitives between the rounded corners*
20,1,$1+$1,$2,$3,$4,$5,0*
20,1,$1+$1,$4,$5,$6,$7,0*
20,1,$1+$1,$6,$7,$8,$9,0*
20,1,$1+$1,$8,$9,$2,$3,0*%
%AMRotRect*
0 Rectangle, with rotation*
0 The origin of the aperture is its center*
0 $1 length*
0 $2 width*
0 $3 Rotation angle, in degrees counterclockwise*
0 Add horizontal line*
21,1,$1,$2,0,0,$3*%
G04 Aperture macros list end*
%TA.AperFunction,ComponentPad*%
%ADD10RoundRect,0.250000X-1.025000X-1.000000X1.025000X-1.000000X1.025000X1.000000X-1.025000X1.000000X0*%
%TD*%
%TA.AperFunction,SMDPad,CuDef*%
%ADD11RoundRect,0.250000X-1.025000X-1.000000X1.025000X-1.000000X1.025000X1.000000X-1.025000X1.000000X0*%
%TD*%
%TA.AperFunction,ComponentPad*%
%ADD12C,1.600000*%
%TD*%
%TA.AperFunction,ComponentPad*%
%ADD13O,1.600000X2.000000*%
%TD*%
%TA.AperFunction,ComponentPad*%
%ADD14RoundRect,0.250000X-0.765347X-1.210317X1.228843X-0.735234X0.765347X1.210317X-1.228843X0.735234X0*%
%TD*%
%TA.AperFunction,SMDPad,CuDef*%
%ADD15RoundRect,0.250000X-0.765347X-1.210317X1.228843X-0.735234X0.765347X1.210317X-1.228843X0.735234X0*%
%TD*%
%TA.AperFunction,ComponentPad*%
%ADD16RoundRect,0.250000X-0.464023X-1.354735X1.365778X-0.430436X0.464023X1.354735X-1.365778X0.430436X0*%
%TD*%
%TA.AperFunction,SMDPad,CuDef*%
%ADD17RoundRect,0.250000X-0.464023X-1.354735X1.365778X-0.430436X0.464023X1.354735X-1.365778X0.430436X0*%
%TD*%
%TA.AperFunction,ComponentPad*%
%ADD18RoundRect,0.250000X-1.365778X-0.430436X0.464023X-1.354735X1.365778X0.430436X-0.464023X1.354735X0*%
%TD*%
%TA.AperFunction,SMDPad,CuDef*%
%ADD19RoundRect,0.250000X-1.365778X-0.430436X0.464023X-1.354735X1.365778X0.430436X-0.464023X1.354735X0*%
%TD*%
%TA.AperFunction,ComponentPad*%
%ADD20RoundRect,0.250000X-1.228843X-0.735234X0.765347X-1.210317X1.228843X0.735234X-0.765347X1.210317X0*%
%TD*%
%TA.AperFunction,SMDPad,CuDef*%
%ADD21RoundRect,0.250000X-1.228843X-0.735234X0.765347X-1.210317X1.228843X0.735234X-0.765347X1.210317X0*%
%TD*%
%TA.AperFunction,SMDPad,CuDef*%
%ADD22R,1.300000X1.300000*%
%TD*%
%TA.AperFunction,SMDPad,CuDef*%
%ADD23RotRect,1.300000X1.300000X76.600000*%
%TD*%
%TA.AperFunction,SMDPad,CuDef*%
%ADD24RotRect,1.300000X1.300000X103.400000*%
%TD*%
%TA.AperFunction,SMDPad,CuDef*%
%ADD25RotRect,1.300000X1.300000X116.800000*%
%TD*%
%TA.AperFunction,SMDPad,CuDef*%
%ADD26RotRect,1.300000X1.300000X63.200000*%
%TD*%
%TA.AperFunction,ViaPad*%
%ADD27C,0.800000*%
%TD*%
%TA.AperFunction,Conductor*%
%ADD28C,0.250000*%
%TD*%
G04 APERTURE END LIST*
D10*
%TO.P,SWB4,1,1*%
%TO.N,Col 1 B*%
X86089912Y-42486200D03*
D11*
%TO.P,SWB4,2,2*%
%TO.N,Net-(DB4-Pad1)*%
X98089912Y-44686200D03*
%TD*%
D12*
%TO.P,M2,1,D0*%
%TO.N,Col 0 B*%
X130928825Y-96372500D03*
%TO.P,M2,2,D1*%
%TO.N,Col 1 B*%
X128388825Y-96372500D03*
%TO.P,M2,3,D2*%
%TO.N,Col 4 B*%
X125848825Y-96372500D03*
%TO.P,M2,4,D3*%
%TO.N,Col 3 B*%
X123308825Y-96372500D03*
%TO.P,M2,5,D4*%
%TO.N,Net-(J2-PadR2)*%
X120768825Y-96372500D03*
%TO.P,M2,6,D5*%
%TO.N,Net-(J2-PadR1)*%
X118228825Y-96372500D03*
%TO.P,M2,7,D6*%
%TO.N,Row 3 B*%
X115688825Y-96372500D03*
%TO.P,M2,8,D7*%
%TO.N,Col 2 B*%
X115688825Y-111607500D03*
%TO.P,M2,9,D8*%
%TO.N,Row 0 B*%
X118228825Y-111607500D03*
%TO.P,M2,10,D9*%
%TO.N,Row 1 B*%
X120768825Y-111607500D03*
%TO.P,M2,11,D10*%
%TO.N,Row 2 B*%
X123308825Y-111607500D03*
%TO.P,M2,12,3V3*%
%TO.N,Net-(J2-PadT)*%
X125848825Y-111607500D03*
%TO.P,M2,13,GND*%
%TO.N,Net-(J2-PadS)*%
X128388825Y-111607500D03*
%TO.P,M2,14,5V*%
%TO.N,unconnected-(M2-Pad14)*%
X130928825Y-111607500D03*
%TD*%
D10*
%TO.P,SW10,1,1*%
%TO.N,Col 3*%
X213639912Y-42486200D03*
D11*
%TO.P,SW10,2,2*%
%TO.N,Net-(D10-Pad1)*%
X225639912Y-44686200D03*
%TD*%
D13*
%TO.P,J2,R1*%
%TO.N,Net-(J2-PadR1)*%
X61789946Y-74148600D03*
%TO.P,J2,R2*%
%TO.N,Net-(J2-PadR2)*%
X61789946Y-71148600D03*
%TO.P,J2,S*%
%TO.N,Net-(J2-PadS)*%
X57189946Y-79248600D03*
%TO.P,J2,T*%
%TO.N,Net-(J2-PadT)*%
X61789946Y-78148600D03*
%TD*%
D10*
%TO.P,SWB8,1,1*%
%TO.N,Col 2 B*%
X104089912Y-56630000D03*
D11*
%TO.P,SWB8,2,2*%
%TO.N,Net-(DB8-Pad1)*%
X116089912Y-58830000D03*
%TD*%
D10*
%TO.P,SWB12,1,1*%
%TO.N,Col 3 B*%
X122089912Y-76486200D03*
D11*
%TO.P,SWB12,2,2*%
%TO.N,Net-(DB12-Pad1)*%
X134089912Y-78686200D03*
%TD*%
D10*
%TO.P,SW16,1,1*%
%TO.N,Col 2*%
X199140087Y-98630000D03*
D11*
%TO.P,SW16,2,2*%
%TO.N,Net-(D16-Pad1)*%
X211140087Y-100830000D03*
%TD*%
D10*
%TO.P,SW11,1,1*%
%TO.N,Col 3*%
X213639912Y-59486200D03*
D11*
%TO.P,SW11,2,2*%
%TO.N,Net-(D11-Pad1)*%
X225639912Y-61686200D03*
%TD*%
D10*
%TO.P,SWB13,1,1*%
%TO.N,Col 4 B*%
X140089912Y-49485950D03*
D11*
%TO.P,SWB13,2,2*%
%TO.N,Net-(DB13-Pad1)*%
X152089912Y-51685950D03*
%TD*%
D10*
%TO.P,SWB18,1,1*%
%TO.N,Col 2 B*%
X100589737Y-98630000D03*
D11*
%TO.P,SWB18,2,2*%
%TO.N,Net-(DB18-Pad1)*%
X112589737Y-100830000D03*
%TD*%
D10*
%TO.P,SWB14,1,1*%
%TO.N,Col 4 B*%
X140089912Y-66485950D03*
D11*
%TO.P,SWB14,2,2*%
%TO.N,Net-(DB14-Pad1)*%
X152089912Y-68685950D03*
%TD*%
D10*
%TO.P,SW15,1,1*%
%TO.N,Col 4*%
X231639912Y-79342400D03*
D11*
%TO.P,SW15,2,2*%
%TO.N,Net-(D15-Pad1)*%
X243639912Y-81542400D03*
%TD*%
D10*
%TO.P,SW2,1,1*%
%TO.N,Col 0*%
X159639912Y-66485950D03*
D11*
%TO.P,SW2,2,2*%
%TO.N,Net-(D2-Pad1)*%
X171639912Y-68685950D03*
%TD*%
D10*
%TO.P,SWB10,1,1*%
%TO.N,Col 3 B*%
X122089912Y-42486200D03*
D11*
%TO.P,SWB10,2,2*%
%TO.N,Net-(DB10-Pad1)*%
X134089912Y-44686200D03*
%TD*%
D10*
%TO.P,SW4,1,1*%
%TO.N,Col 1*%
X177639912Y-42486200D03*
D11*
%TO.P,SW4,2,2*%
%TO.N,Net-(D4-Pad1)*%
X189639912Y-44686200D03*
%TD*%
D10*
%TO.P,SW14,1,1*%
%TO.N,Col 4*%
X231639912Y-62342400D03*
D11*
%TO.P,SW14,2,2*%
%TO.N,Net-(D14-Pad1)*%
X243639912Y-64542400D03*
%TD*%
D14*
%TO.P,SWB17,1,1*%
%TO.N,Col 1 B*%
X79620108Y-101912764D03*
D15*
%TO.P,SWB17,2,2*%
%TO.N,Net-(DB17-Pad1)*%
X91803264Y-101271896D03*
%TD*%
D10*
%TO.P,SWB1,1,1*%
%TO.N,Col 0 B*%
X68089912Y-45342400D03*
D11*
%TO.P,SWB1,2,2*%
%TO.N,Net-(DB1-Pad1)*%
X80089912Y-47542400D03*
%TD*%
D10*
%TO.P,SW13,1,1*%
%TO.N,Col 4*%
X231639912Y-45342400D03*
D11*
%TO.P,SW13,2,2*%
%TO.N,Net-(D13-Pad1)*%
X243639912Y-47542400D03*
%TD*%
D16*
%TO.P,SWB16,1,1*%
%TO.N,Col 0 B*%
X59980145Y-109960393D03*
D17*
%TO.P,SWB16,2,2*%
%TO.N,Net-(DB16-Pad1)*%
X71683106Y-106513552D03*
%TD*%
D10*
%TO.P,SW7,1,1*%
%TO.N,Col 2*%
X195639912Y-39630000D03*
D11*
%TO.P,SW7,2,2*%
%TO.N,Net-(D7-Pad1)*%
X207639912Y-41830000D03*
%TD*%
D10*
%TO.P,SWB3,1,1*%
%TO.N,Col 0 B*%
X68089912Y-79342400D03*
D11*
%TO.P,SWB3,2,2*%
%TO.N,Net-(DB3-Pad1)*%
X80089912Y-81542400D03*
%TD*%
D10*
%TO.P,SW9,1,1*%
%TO.N,Col 2*%
X195639912Y-73630000D03*
D11*
%TO.P,SW9,2,2*%
%TO.N,Net-(D9-Pad1)*%
X207639912Y-75830000D03*
%TD*%
D10*
%TO.P,SWB15,1,1*%
%TO.N,Col 4 B*%
X140089912Y-83485950D03*
D11*
%TO.P,SWB15,2,2*%
%TO.N,Net-(DB15-Pad1)*%
X152089912Y-85685950D03*
%TD*%
D10*
%TO.P,SWB9,1,1*%
%TO.N,Col 2 B*%
X104089912Y-73630000D03*
D11*
%TO.P,SWB9,2,2*%
%TO.N,Net-(DB9-Pad1)*%
X116089912Y-75830000D03*
%TD*%
D10*
%TO.P,SWB6,1,1*%
%TO.N,Col 1 B*%
X86089912Y-76486200D03*
D11*
%TO.P,SWB6,2,2*%
%TO.N,Net-(DB6-Pad1)*%
X98089912Y-78686200D03*
%TD*%
D10*
%TO.P,SWB7,1,1*%
%TO.N,Col 2 B*%
X104089912Y-39630000D03*
D11*
%TO.P,SWB7,2,2*%
%TO.N,Net-(DB7-Pad1)*%
X116089912Y-41830000D03*
%TD*%
D12*
%TO.P,M1,1,D0*%
%TO.N,Col 0*%
X175801000Y-111607500D03*
%TO.P,M1,2,D1*%
%TO.N,Col 1*%
X178341000Y-111607500D03*
%TO.P,M1,3,D2*%
%TO.N,Col 4*%
X180881000Y-111607500D03*
%TO.P,M1,4,D3*%
%TO.N,Col 3*%
X183421000Y-111607500D03*
%TO.P,M1,5,D4*%
%TO.N,Net-(J1-PadR2)*%
X185961000Y-111607500D03*
%TO.P,M1,6,D5*%
%TO.N,Net-(J1-PadR1)*%
X188501000Y-111607500D03*
%TO.P,M1,7,D6*%
%TO.N,Row 3*%
X191041000Y-111607500D03*
%TO.P,M1,8,D7*%
%TO.N,Col 2*%
X191041000Y-96372500D03*
%TO.P,M1,9,D8*%
%TO.N,Row 0*%
X188501000Y-96372500D03*
%TO.P,M1,10,D9*%
%TO.N,Row 1*%
X185961000Y-96372500D03*
%TO.P,M1,11,D10*%
%TO.N,Row 2*%
X183421000Y-96372500D03*
%TO.P,M1,12,3V3*%
%TO.N,Net-(J1-PadT)*%
X180881000Y-96372500D03*
%TO.P,M1,13,GND*%
%TO.N,Net-(J1-PadS)*%
X178341000Y-96372500D03*
%TO.P,M1,14,5V*%
%TO.N,unconnected-(M1-Pad14)*%
X175801000Y-96372500D03*
%TD*%
D10*
%TO.P,SW6,1,1*%
%TO.N,Col 1*%
X177639912Y-76486200D03*
D11*
%TO.P,SW6,2,2*%
%TO.N,Net-(D6-Pad1)*%
X189639912Y-78686200D03*
%TD*%
D10*
%TO.P,SW3,1,1*%
%TO.N,Col 0*%
X159639912Y-83485950D03*
D11*
%TO.P,SW3,2,2*%
%TO.N,Net-(D3-Pad1)*%
X171639912Y-85685950D03*
%TD*%
D13*
%TO.P,J1,R1*%
%TO.N,Net-(J1-PadR1)*%
X249539946Y-74048600D03*
%TO.P,J1,R2*%
%TO.N,Net-(J1-PadR2)*%
X249539946Y-71048600D03*
%TO.P,J1,S*%
%TO.N,Net-(J1-PadS)*%
X244939946Y-79148600D03*
%TO.P,J1,T*%
%TO.N,Net-(J1-PadT)*%
X249539946Y-78048600D03*
%TD*%
D18*
%TO.P,SW18,1,1*%
%TO.N,Col 4*%
X240501578Y-106804251D03*
D19*
%TO.P,SW18,2,2*%
%TO.N,Net-(D18-Pad1)*%
X250220677Y-114178470D03*
%TD*%
D10*
%TO.P,SW1,1,1*%
%TO.N,Col 0*%
X159639912Y-49485950D03*
D11*
%TO.P,SW1,2,2*%
%TO.N,Net-(D1-Pad1)*%
X171639912Y-51685950D03*
%TD*%
D10*
%TO.P,SWB5,1,1*%
%TO.N,Col 1 B*%
X86089912Y-59486200D03*
D11*
%TO.P,SWB5,2,2*%
%TO.N,Net-(DB5-Pad1)*%
X98089912Y-61686200D03*
%TD*%
D10*
%TO.P,SWB2,1,1*%
%TO.N,Col 0 B*%
X68089912Y-62342400D03*
D11*
%TO.P,SWB2,2,2*%
%TO.N,Net-(DB2-Pad1)*%
X80089912Y-64542400D03*
%TD*%
D10*
%TO.P,SW5,1,1*%
%TO.N,Col 1*%
X177639912Y-59486200D03*
D11*
%TO.P,SW5,2,2*%
%TO.N,Net-(D5-Pad1)*%
X189639912Y-61686200D03*
%TD*%
D10*
%TO.P,SW12,1,1*%
%TO.N,Col 3*%
X213639912Y-76486200D03*
D11*
%TO.P,SW12,2,2*%
%TO.N,Net-(D12-Pad1)*%
X225639912Y-78686200D03*
%TD*%
D20*
%TO.P,SW17,1,1*%
%TO.N,Col 3*%
X220300285Y-100290529D03*
D21*
%TO.P,SW17,2,2*%
%TO.N,Net-(D17-Pad1)*%
X231463750Y-105211611D03*
%TD*%
D10*
%TO.P,SW8,1,1*%
%TO.N,Col 2*%
X195639912Y-56630000D03*
D11*
%TO.P,SW8,2,2*%
%TO.N,Net-(D8-Pad1)*%
X207639912Y-58830000D03*
%TD*%
D10*
%TO.P,SWB11,1,1*%
%TO.N,Col 3 B*%
X122089912Y-59486200D03*
D11*
%TO.P,SWB11,2,2*%
%TO.N,Net-(DB11-Pad1)*%
X134089912Y-61686200D03*
%TD*%
D22*
%TO.P,DB7,1,K*%
%TO.N,Net-(DB7-Pad1)*%
X113089912Y-48230000D03*
%TO.P,DB7,2,A*%
%TO.N,Row 0 B*%
X113089912Y-51030000D03*
%TD*%
%TO.P,D4,1,K*%
%TO.N,Net-(D4-Pad1)*%
X186639912Y-51086200D03*
%TO.P,D4,2,A*%
%TO.N,Row 0*%
X186639912Y-53886200D03*
%TD*%
%TO.P,DB14,1,K*%
%TO.N,Net-(DB14-Pad1)*%
X149089912Y-75485950D03*
%TO.P,DB14,2,A*%
%TO.N,Row 1 B*%
X149089912Y-78285950D03*
%TD*%
%TO.P,DB10,1,K*%
%TO.N,Net-(DB10-Pad1)*%
X131089912Y-51297553D03*
%TO.P,DB10,2,A*%
%TO.N,Row 0 B*%
X131089912Y-54097553D03*
%TD*%
%TO.P,D13,1,K*%
%TO.N,Net-(D13-Pad1)*%
X240639912Y-53942400D03*
%TO.P,D13,2,A*%
%TO.N,Row 0*%
X240639912Y-56742400D03*
%TD*%
%TO.P,D14,1,K*%
%TO.N,Net-(D14-Pad1)*%
X240639912Y-70942400D03*
%TO.P,D14,2,A*%
%TO.N,Row 1*%
X240639912Y-73742400D03*
%TD*%
%TO.P,DB2,1,K*%
%TO.N,Net-(DB2-Pad1)*%
X77089912Y-71153753D03*
%TO.P,DB2,2,A*%
%TO.N,Row 1 B*%
X77089912Y-73953753D03*
%TD*%
%TO.P,D9,1,K*%
%TO.N,Net-(D9-Pad1)*%
X204639912Y-82230000D03*
%TO.P,D9,2,A*%
%TO.N,Row 2*%
X204639912Y-85030000D03*
%TD*%
%TO.P,D2,1,K*%
%TO.N,Net-(D2-Pad1)*%
X168639912Y-75085950D03*
%TO.P,D2,2,A*%
%TO.N,Row 1*%
X168639912Y-77885950D03*
%TD*%
%TO.P,D8,1,K*%
%TO.N,Net-(D8-Pad1)*%
X204639912Y-65230000D03*
%TO.P,D8,2,A*%
%TO.N,Row 1*%
X204639912Y-68030000D03*
%TD*%
%TO.P,DB3,1,K*%
%TO.N,Net-(DB3-Pad1)*%
X77089912Y-87835950D03*
%TO.P,DB3,2,A*%
%TO.N,Row 2 B*%
X77089912Y-90635950D03*
%TD*%
%TO.P,D11,1,K*%
%TO.N,Net-(D11-Pad1)*%
X222639912Y-68086200D03*
%TO.P,D11,2,A*%
%TO.N,Row 1*%
X222639912Y-70886200D03*
%TD*%
%TO.P,D3,1,K*%
%TO.N,Net-(D3-Pad1)*%
X168639912Y-92085950D03*
%TO.P,D3,2,A*%
%TO.N,Row 2*%
X168639912Y-94885950D03*
%TD*%
%TO.P,DB5,1,K*%
%TO.N,Net-(DB5-Pad1)*%
X95089912Y-68086200D03*
%TO.P,DB5,2,A*%
%TO.N,Row 1 B*%
X95089912Y-70886200D03*
%TD*%
%TO.P,DB12,1,K*%
%TO.N,Net-(DB12-Pad1)*%
X131089912Y-85297553D03*
%TO.P,DB12,2,A*%
%TO.N,Row 2 B*%
X131089912Y-88097553D03*
%TD*%
%TO.P,DB13,1,K*%
%TO.N,Net-(DB13-Pad1)*%
X149089912Y-58297303D03*
%TO.P,DB13,2,A*%
%TO.N,Row 0 B*%
X149089912Y-61097303D03*
%TD*%
%TO.P,DB1,1,K*%
%TO.N,Net-(DB1-Pad1)*%
X77089912Y-53942400D03*
%TO.P,DB1,2,A*%
%TO.N,Row 0 B*%
X77089912Y-56742400D03*
%TD*%
%TO.P,D16,1,K*%
%TO.N,Net-(D16-Pad1)*%
X208140087Y-107230000D03*
%TO.P,D16,2,A*%
%TO.N,Row 3*%
X208140087Y-110030000D03*
%TD*%
%TO.P,D6,1,K*%
%TO.N,Net-(D6-Pad1)*%
X186639912Y-85086200D03*
%TO.P,D6,2,A*%
%TO.N,Row 2*%
X186639912Y-87886200D03*
%TD*%
D23*
%TO.P,D17,1,K*%
%TO.N,Net-(D17-Pad1)*%
X227044521Y-110807495D03*
%TO.P,D17,2,A*%
%TO.N,Row 3*%
X226395627Y-113531267D03*
%TD*%
D24*
%TO.P,DB17,1,K*%
%TO.N,Net-(DB17-Pad1)*%
X90441503Y-108303365D03*
%TO.P,DB17,2,A*%
%TO.N,Row 3 B*%
X91090397Y-111027137D03*
%TD*%
D25*
%TO.P,DB16,1,K*%
%TO.N,Net-(DB16-Pad1)*%
X72124898Y-113740144D03*
%TO.P,DB16,2,A*%
%TO.N,Row 3 B*%
X73387356Y-116239384D03*
%TD*%
D22*
%TO.P,D1,1,K*%
%TO.N,Net-(D1-Pad1)*%
X168639912Y-58814796D03*
%TO.P,D1,2,A*%
%TO.N,Row 0*%
X168639912Y-61614796D03*
%TD*%
D26*
%TO.P,D18,1,K*%
%TO.N,Net-(D18-Pad1)*%
X244787300Y-118513283D03*
%TO.P,D18,2,A*%
%TO.N,Row 3*%
X243524842Y-121012523D03*
%TD*%
D22*
%TO.P,DB8,1,K*%
%TO.N,Net-(DB8-Pad1)*%
X113089912Y-65230000D03*
%TO.P,DB8,2,A*%
%TO.N,Row 1 B*%
X113089912Y-68030000D03*
%TD*%
%TO.P,D5,1,K*%
%TO.N,Net-(D5-Pad1)*%
X186639912Y-68086200D03*
%TO.P,D5,2,A*%
%TO.N,Row 1*%
X186639912Y-70886200D03*
%TD*%
%TO.P,DB4,1,K*%
%TO.N,Net-(DB4-Pad1)*%
X95089912Y-51086200D03*
%TO.P,DB4,2,A*%
%TO.N,Row 0 B*%
X95089912Y-53886200D03*
%TD*%
%TO.P,DB18,1,K*%
%TO.N,Net-(DB18-Pad1)*%
X109589737Y-107441353D03*
%TO.P,DB18,2,A*%
%TO.N,Row 3 B*%
X109589737Y-110241353D03*
%TD*%
%TO.P,DB11,1,K*%
%TO.N,Net-(DB11-Pad1)*%
X131089912Y-68086200D03*
%TO.P,DB11,2,A*%
%TO.N,Row 1 B*%
X131089912Y-70886200D03*
%TD*%
%TO.P,D10,1,K*%
%TO.N,Net-(D10-Pad1)*%
X222639912Y-51086200D03*
%TO.P,D10,2,A*%
%TO.N,Row 0*%
X222639912Y-53886200D03*
%TD*%
%TO.P,D15,1,K*%
%TO.N,Net-(D15-Pad1)*%
X240339946Y-87585950D03*
%TO.P,D15,2,A*%
%TO.N,Row 2*%
X240339946Y-90385950D03*
%TD*%
%TO.P,DB6,1,K*%
%TO.N,Net-(DB6-Pad1)*%
X95089912Y-85086200D03*
%TO.P,DB6,2,A*%
%TO.N,Row 2 B*%
X95089912Y-87886200D03*
%TD*%
%TO.P,D12,1,K*%
%TO.N,Net-(D12-Pad1)*%
X222639912Y-85086200D03*
%TO.P,D12,2,A*%
%TO.N,Row 2*%
X222639912Y-87886200D03*
%TD*%
%TO.P,DB9,1,K*%
%TO.N,Net-(DB9-Pad1)*%
X113089912Y-82441353D03*
%TO.P,DB9,2,A*%
%TO.N,Row 2 B*%
X113089912Y-85241353D03*
%TD*%
%TO.P,DB15,1,K*%
%TO.N,Net-(DB15-Pad1)*%
X149089912Y-93085950D03*
%TO.P,DB15,2,A*%
%TO.N,Row 2 B*%
X149089912Y-95885950D03*
%TD*%
%TO.P,D7,1,K*%
%TO.N,Net-(D7-Pad1)*%
X204639912Y-48230000D03*
%TO.P,D7,2,A*%
%TO.N,Row 0*%
X204639912Y-51030000D03*
%TD*%
D27*
%TO.N,Row 0*%
X188939696Y-53886200D03*
%TO.N,Row 1*%
X188839946Y-70886200D03*
%TO.N,Row 2*%
X188689696Y-87886200D03*
%TO.N,Row 0 B*%
X138089662Y-61097303D03*
%TO.N,Row 1 B*%
X138489662Y-78285950D03*
%TO.N,Row 2 B*%
X138878309Y-95885950D03*
%TO.N,Net-(J1-PadR1)*%
X232589946Y-92985950D03*
%TO.N,Net-(J1-PadR2)*%
X233589946Y-92511450D03*
%TO.N,Net-(J1-PadS)*%
X182664745Y-92360450D03*
X234528153Y-92011450D03*
%TO.N,Net-(J2-PadR1)*%
X118339946Y-91485950D03*
%TO.N,Net-(J2-PadR2)*%
X120839946Y-91735950D03*
%TO.N,Net-(J2-PadS)*%
X112089946Y-92011450D03*
X128339946Y-107811450D03*
%TO.N,Net-(J2-PadT)*%
X113089946Y-91235950D03*
X125839946Y-107361450D03*
%TO.N,Col 3*%
X196839946Y-93985950D03*
%TO.N,Col 0 B*%
X85089946Y-93960450D03*
%TO.N,Col 1 B*%
X86089912Y-94485984D03*
%TO.N,Col 4 B*%
X134089946Y-85735950D03*
%TD*%
D28*
%TO.N,Row 0*%
X169539912Y-61614796D02*
X177268508Y-53886200D01*
X186639912Y-53886200D02*
X188939696Y-53886200D01*
X188939696Y-53886200D02*
X201783712Y-53886200D01*
X168639912Y-61614796D02*
X169539912Y-61614796D01*
X222639912Y-53886200D02*
X225496112Y-56742400D01*
X225496112Y-56742400D02*
X240639912Y-56742400D01*
X204639912Y-51030000D02*
X207496112Y-53886200D01*
X177268508Y-53886200D02*
X186639912Y-53886200D01*
X201783712Y-53886200D02*
X204639912Y-51030000D01*
X207496112Y-53886200D02*
X222639912Y-53886200D01*
%TO.N,Net-(D1-Pad1)*%
X171639912Y-51685950D02*
X171639912Y-55814796D01*
X171639912Y-55814796D02*
X168639912Y-58814796D01*
%TO.N,Row 1*%
X175639662Y-70886200D02*
X186639912Y-70886200D01*
X222639912Y-70886200D02*
X225496112Y-73742400D01*
X207496112Y-70886200D02*
X222639912Y-70886200D01*
X186639912Y-70886200D02*
X188839946Y-70886200D01*
X201783712Y-70886200D02*
X204639912Y-68030000D01*
X168639912Y-77885950D02*
X175639662Y-70886200D01*
X225496112Y-73742400D02*
X240639912Y-73742400D01*
X188839946Y-70886200D02*
X201783712Y-70886200D01*
X204639912Y-68030000D02*
X207496112Y-70886200D01*
%TO.N,Net-(D2-Pad1)*%
X171639912Y-68685950D02*
X171639912Y-72085950D01*
X171639912Y-72085950D02*
X168639912Y-75085950D01*
%TO.N,Row 2*%
X201783712Y-87886200D02*
X204639912Y-85030000D01*
X177189696Y-87886200D02*
X186639912Y-87886200D01*
X170189946Y-94885950D02*
X177189696Y-87886200D01*
X222639912Y-87886200D02*
X225139662Y-90385950D01*
X186639912Y-87886200D02*
X188689696Y-87886200D01*
X204639912Y-85030000D02*
X207496112Y-87886200D01*
X207496112Y-87886200D02*
X222639912Y-87886200D01*
X188689696Y-87886200D02*
X201783712Y-87886200D01*
X168639912Y-94885950D02*
X170189946Y-94885950D01*
X225139662Y-90385950D02*
X240339946Y-90385950D01*
%TO.N,Net-(D3-Pad1)*%
X171639912Y-89085950D02*
X168639912Y-92085950D01*
X171639912Y-85685950D02*
X171639912Y-89085950D01*
%TO.N,Net-(D4-Pad1)*%
X189639912Y-44686200D02*
X189639912Y-48086200D01*
X189639912Y-48086200D02*
X186639912Y-51086200D01*
%TO.N,Net-(D5-Pad1)*%
X189639912Y-61686200D02*
X189589946Y-61736166D01*
X189589946Y-61736166D02*
X189589946Y-65985950D01*
X187489696Y-68086200D02*
X186639912Y-68086200D01*
X189589946Y-65985950D02*
X187489696Y-68086200D01*
%TO.N,Net-(D6-Pad1)*%
X189639912Y-78686200D02*
X189639912Y-82086200D01*
X189639912Y-82086200D02*
X186639912Y-85086200D01*
%TO.N,Net-(D7-Pad1)*%
X207639912Y-45230000D02*
X204639912Y-48230000D01*
X207639912Y-41830000D02*
X207639912Y-45230000D01*
%TO.N,Net-(D8-Pad1)*%
X207639912Y-62230000D02*
X204639912Y-65230000D01*
X207639912Y-58830000D02*
X207639912Y-62230000D01*
%TO.N,Net-(D9-Pad1)*%
X207639912Y-79230000D02*
X204639912Y-82230000D01*
X207639912Y-75830000D02*
X207639912Y-79230000D01*
%TO.N,Net-(D10-Pad1)*%
X225639912Y-48086200D02*
X222639912Y-51086200D01*
X225639912Y-44686200D02*
X225639912Y-48086200D01*
%TO.N,Net-(D11-Pad1)*%
X225639912Y-65086200D02*
X222639912Y-68086200D01*
X225639912Y-61686200D02*
X225639912Y-65086200D01*
%TO.N,Net-(D12-Pad1)*%
X225639912Y-78686200D02*
X225639912Y-82086200D01*
X225639912Y-82086200D02*
X222639912Y-85086200D01*
%TO.N,Net-(D13-Pad1)*%
X243639912Y-50942400D02*
X240639912Y-53942400D01*
X243639912Y-47542400D02*
X243639912Y-50942400D01*
%TO.N,Net-(D14-Pad1)*%
X243639912Y-67942400D02*
X240639912Y-70942400D01*
X243639912Y-64542400D02*
X243639912Y-67942400D01*
%TO.N,Net-(D15-Pad1)*%
X243639912Y-81542400D02*
X243639912Y-84942400D01*
X243639912Y-84942400D02*
X240639912Y-87942400D01*
%TO.N,Row 3*%
X192618500Y-110030000D02*
X191041000Y-111607500D01*
X226395627Y-113531267D02*
X208140087Y-110030000D01*
X208140087Y-110030000D02*
X192618500Y-110030000D01*
X243524842Y-121012523D02*
X226395627Y-113531267D01*
%TO.N,Net-(D16-Pad1)*%
X211140087Y-100830000D02*
X211140087Y-104230000D01*
X211140087Y-104230000D02*
X208140087Y-107230000D01*
%TO.N,Net-(D17-Pad1)*%
X231463750Y-105211611D02*
X230339946Y-109485950D01*
X230339946Y-109485950D02*
X227044521Y-110807495D01*
%TO.N,Net-(D18-Pad1)*%
X247589946Y-118485950D02*
X244787300Y-118513283D01*
X250220677Y-114178470D02*
X247589946Y-118485950D01*
%TO.N,Row 0 B*%
X95089912Y-53886200D02*
X110233712Y-53886200D01*
X77089912Y-56742400D02*
X92233712Y-56742400D01*
X92233712Y-56742400D02*
X95089912Y-53886200D01*
X116157465Y-54097553D02*
X131089912Y-54097553D01*
X110233712Y-53886200D02*
X113089912Y-51030000D01*
X113089912Y-51030000D02*
X116157465Y-54097553D01*
X138089662Y-61097303D02*
X149089912Y-61097303D01*
X131089912Y-54097553D02*
X138089662Y-61097303D01*
%TO.N,Net-(DB1-Pad1)*%
X80089912Y-50942400D02*
X77089912Y-53942400D01*
X80089912Y-47542400D02*
X80089912Y-50942400D01*
%TO.N,Row 1 B*%
X92022359Y-73953753D02*
X95089912Y-70886200D01*
X138489662Y-78285950D02*
X149089912Y-78285950D01*
X115946112Y-70886200D02*
X131089912Y-70886200D01*
X77089912Y-73953753D02*
X92022359Y-73953753D01*
X131089912Y-70886200D02*
X138489662Y-78285950D01*
X95089912Y-70886200D02*
X110233712Y-70886200D01*
X110233712Y-70886200D02*
X113089912Y-68030000D01*
X113089912Y-68030000D02*
X115946112Y-70886200D01*
%TO.N,Net-(DB2-Pad1)*%
X77089912Y-71153753D02*
X80089912Y-68153753D01*
X80089912Y-68153753D02*
X80089912Y-64542400D01*
%TO.N,Row 2 B*%
X92240162Y-90735950D02*
X95089912Y-87886200D01*
X77089912Y-90635950D02*
X77189912Y-90735950D01*
X77189912Y-90735950D02*
X92240162Y-90735950D01*
X131089912Y-88097553D02*
X138878309Y-95885950D01*
X113089912Y-85241353D02*
X115946112Y-88097553D01*
X138878309Y-95885950D02*
X138939946Y-95885950D01*
X115946112Y-88097553D02*
X131089912Y-88097553D01*
X95089912Y-87886200D02*
X110445065Y-87886200D01*
X110445065Y-87886200D02*
X113089912Y-85241353D01*
X138939946Y-95885950D02*
X149089912Y-95885950D01*
%TO.N,Net-(DB3-Pad1)*%
X80089912Y-85153753D02*
X80089912Y-81542400D01*
X77089912Y-88153753D02*
X80089912Y-85153753D01*
%TO.N,Net-(DB4-Pad1)*%
X98089912Y-44686200D02*
X98089912Y-48086200D01*
X98089912Y-48086200D02*
X95089912Y-51086200D01*
%TO.N,Net-(DB5-Pad1)*%
X95089912Y-68086200D02*
X98089912Y-65086200D01*
X98089912Y-65086200D02*
X98089912Y-61686200D01*
%TO.N,Net-(DB6-Pad1)*%
X95089912Y-85086200D02*
X98089912Y-82086200D01*
X98089912Y-82086200D02*
X98089912Y-78686200D01*
%TO.N,Net-(DB7-Pad1)*%
X116089912Y-45230000D02*
X113089912Y-48230000D01*
X116089912Y-41830000D02*
X116089912Y-45230000D01*
%TO.N,Net-(DB8-Pad1)*%
X114237580Y-65230000D02*
X116089912Y-63377668D01*
X113089912Y-65230000D02*
X114237580Y-65230000D01*
X116089912Y-63377668D02*
X116089912Y-58830000D01*
%TO.N,Net-(DB9-Pad1)*%
X113089912Y-82441353D02*
X116089912Y-79441353D01*
X116089912Y-79441353D02*
X116089912Y-75830000D01*
%TO.N,Net-(DB10-Pad1)*%
X134089912Y-48297553D02*
X131089912Y-51297553D01*
X134089912Y-44686200D02*
X134089912Y-48297553D01*
%TO.N,Net-(DB11-Pad1)*%
X131089912Y-68086200D02*
X134089912Y-65086200D01*
X134089912Y-65086200D02*
X134089912Y-61686200D01*
%TO.N,Net-(DB12-Pad1)*%
X134089912Y-78686200D02*
X134089912Y-82297553D01*
X134089912Y-82297553D02*
X131089912Y-85297553D01*
%TO.N,Net-(DB13-Pad1)*%
X151589946Y-56733584D02*
X151589946Y-52985950D01*
X149089912Y-58297303D02*
X150026227Y-58297303D01*
X150026227Y-58297303D02*
X151589946Y-56733584D01*
X151589946Y-52985950D02*
X152089946Y-51735950D01*
%TO.N,Net-(DB14-Pad1)*%
X149153631Y-75485950D02*
X150089946Y-75485950D01*
X151653665Y-70174597D02*
X152153665Y-68924597D01*
X151653665Y-73922231D02*
X151653665Y-70174597D01*
X150089946Y-75485950D02*
X151653665Y-73922231D01*
%TO.N,Net-(DB15-Pad1)*%
X151653665Y-91422231D02*
X151653665Y-87674597D01*
X150089946Y-92985950D02*
X151653665Y-91422231D01*
X149153631Y-92985950D02*
X150089946Y-92985950D01*
X151653665Y-87674597D02*
X152153665Y-86424597D01*
%TO.N,Row 3 B*%
X115589946Y-96471379D02*
X115688825Y-96372500D01*
X109589737Y-110241353D02*
X115589946Y-104241144D01*
X73387356Y-116239384D02*
X91090397Y-111027137D01*
X91090397Y-111027137D02*
X109589737Y-110241353D01*
X115589946Y-104241144D02*
X115589946Y-96471379D01*
%TO.N,Net-(DB16-Pad1)*%
X73589946Y-110485950D02*
X72124898Y-113740144D01*
X71683106Y-106513552D02*
X73589946Y-110485950D01*
%TO.N,Net-(DB17-Pad1)*%
X92839946Y-105485950D02*
X90441503Y-108303365D01*
X91803264Y-101271896D02*
X92839946Y-105485950D01*
%TO.N,Net-(DB18-Pad1)*%
X109589737Y-107441353D02*
X112589737Y-104441353D01*
X112589737Y-104441353D02*
X112589737Y-100830000D01*
%TO.N,Net-(J1-PadR1)*%
X188589946Y-104985950D02*
X188589946Y-111518554D01*
X188589946Y-111518554D02*
X188501000Y-111607500D01*
X200589946Y-92985950D02*
X188589946Y-104985950D01*
X232589946Y-92985950D02*
X200589946Y-92985950D01*
%TO.N,Net-(J1-PadR2)*%
X233589946Y-92511450D02*
X233365446Y-92511450D01*
X232014641Y-92535950D02*
X199789946Y-92535950D01*
X199789946Y-92535950D02*
X185839946Y-106485950D01*
X233089946Y-92235950D02*
X232314641Y-92235950D01*
X232314641Y-92235950D02*
X232014641Y-92535950D01*
X233365446Y-92511450D02*
X233089946Y-92235950D01*
X185839946Y-111486446D02*
X185961000Y-111607500D01*
X185839946Y-106485950D02*
X185839946Y-111486446D01*
%TO.N,Net-(J1-PadS)*%
X182664745Y-92360450D02*
X182939245Y-92085950D01*
X232128245Y-91785950D02*
X234302653Y-91785950D01*
X231828245Y-92085950D02*
X232128245Y-91785950D01*
X182939245Y-92085950D02*
X231828245Y-92085950D01*
X234302653Y-91785950D02*
X234528153Y-92011450D01*
%TO.N,Net-(J1-PadT)*%
X242339946Y-91735950D02*
X235339946Y-91735950D01*
X249539946Y-78048600D02*
X249539946Y-80285950D01*
X182314946Y-91635950D02*
X180881000Y-93069896D01*
X243589946Y-90485950D02*
X242339946Y-91735950D01*
X232041849Y-91235950D02*
X231641849Y-91635950D01*
X180881000Y-93069896D02*
X180881000Y-96372500D01*
X235339946Y-91735950D02*
X234839946Y-91235950D01*
X234839946Y-91235950D02*
X232041849Y-91235950D01*
X249539946Y-80285950D02*
X243589946Y-86235950D01*
X231641849Y-91635950D02*
X182314946Y-91635950D01*
X243589946Y-86235950D02*
X243589946Y-90485950D01*
%TO.N,Net-(J2-PadR1)*%
X117839946Y-90485950D02*
X111953745Y-90485950D01*
X111953745Y-90485950D02*
X111053745Y-91385950D01*
X63101342Y-84974554D02*
X63101342Y-75459996D01*
X111053745Y-91385950D02*
X104144362Y-91385950D01*
X103194362Y-92335950D02*
X64712738Y-92335950D01*
X104144362Y-91385950D02*
X103194362Y-92335950D01*
X63101342Y-75459996D02*
X61789946Y-74148600D01*
X64712738Y-92335950D02*
X64239946Y-91863158D01*
X64239946Y-86113158D02*
X63101342Y-84974554D01*
X118339946Y-90985950D02*
X117839946Y-90485950D01*
X64239946Y-91863158D02*
X64239946Y-86113158D01*
X118339946Y-91485950D02*
X118339946Y-90985950D01*
%TO.N,Net-(J2-PadR2)*%
X119089946Y-89985950D02*
X111817349Y-89985950D01*
X110867349Y-90935950D02*
X103957966Y-90935950D01*
X63551342Y-84788158D02*
X63551342Y-72909996D01*
X63551342Y-72909996D02*
X61789946Y-71148600D01*
X120839946Y-91735950D02*
X119089946Y-89985950D01*
X103957966Y-90935950D02*
X103007966Y-91885950D01*
X111817349Y-89985950D02*
X110867349Y-90935950D01*
X64899134Y-91885950D02*
X64689946Y-91676762D01*
X64689946Y-85926762D02*
X63551342Y-84788158D01*
X103007966Y-91885950D02*
X64899134Y-91885950D01*
X64689946Y-91676762D02*
X64689946Y-85926762D01*
%TO.N,Net-(J2-PadS)*%
X128339946Y-107811450D02*
X128388825Y-107860329D01*
X111815446Y-92285950D02*
X104517154Y-92285950D01*
X103567154Y-93235950D02*
X64339946Y-93235950D01*
X128388825Y-107860329D02*
X128388825Y-111607500D01*
X63339946Y-86485950D02*
X57189946Y-80335950D01*
X104517154Y-92285950D02*
X103567154Y-93235950D01*
X112089946Y-92011450D02*
X111815446Y-92285950D01*
X64339946Y-93235950D02*
X63339946Y-92235950D01*
X57189946Y-80335950D02*
X57189946Y-79248600D01*
X63339946Y-92235950D02*
X63339946Y-86485950D01*
%TO.N,Net-(J2-PadT)*%
X61789946Y-78148600D02*
X62651342Y-79009996D01*
X64526342Y-92785950D02*
X103380758Y-92785950D01*
X63789946Y-92049554D02*
X64526342Y-92785950D01*
X112839849Y-91486047D02*
X113089946Y-91235950D01*
X62651342Y-79009996D02*
X62651342Y-85160950D01*
X111789641Y-91286450D02*
X112390251Y-91286450D01*
X111240141Y-91835950D02*
X111789641Y-91286450D01*
X125839946Y-107361450D02*
X125839946Y-111598621D01*
X104330758Y-91835950D02*
X111240141Y-91835950D01*
X103380758Y-92785950D02*
X104330758Y-91835950D01*
X112390251Y-91286450D02*
X112589849Y-91486047D01*
X62651342Y-85160950D02*
X63789946Y-86299554D01*
X125839946Y-111598621D02*
X125848825Y-111607500D01*
X63789946Y-86299554D02*
X63789946Y-92049554D01*
X112589849Y-91486047D02*
X112839849Y-91486047D01*
%TO.N,Col 3*%
X196839946Y-93985950D02*
X183421000Y-107404896D01*
X183421000Y-107404896D02*
X183421000Y-111607500D01*
%TO.N,Col 0 B*%
X103753550Y-93685950D02*
X104703550Y-92735950D01*
X129589946Y-92735950D02*
X130928825Y-94074829D01*
X85364446Y-93685950D02*
X103753550Y-93685950D01*
X130928825Y-94074829D02*
X130928825Y-96372500D01*
X104703550Y-92735950D02*
X129589946Y-92735950D01*
X85089946Y-93960450D02*
X85364446Y-93685950D01*
%TO.N,Col 1 B*%
X104889946Y-93185950D02*
X127289946Y-93185950D01*
X127289946Y-93185950D02*
X128388825Y-94284829D01*
X103939946Y-94135950D02*
X104889946Y-93185950D01*
X86089912Y-94485984D02*
X86439946Y-94135950D01*
X86439946Y-94135950D02*
X103939946Y-94135950D01*
X128388825Y-94284829D02*
X128388825Y-96372500D01*
%TO.N,Col 4 B*%
X136339946Y-83485950D02*
X134089946Y-85735950D01*
X140089912Y-83485950D02*
X136339946Y-83485950D01*
%TD*%
M02*
