%TF.GenerationSoftware,KiCad,Pcbnew,(6.0.6)*%
%TF.CreationDate,2022-09-11T22:53:33-06:00*%
%TF.ProjectId,miniErgo,6d696e69-4572-4676-9f2e-6b696361645f,rev?*%
%TF.SameCoordinates,Original*%
%TF.FileFunction,Legend,Top*%
%TF.FilePolarity,Positive*%
%FSLAX46Y46*%
G04 Gerber Fmt 4.6, Leading zero omitted, Abs format (unit mm)*
G04 Created by KiCad (PCBNEW (6.0.6)) date 2022-09-11 22:53:33*
%MOMM*%
%LPD*%
G01*
G04 APERTURE LIST*
%ADD10C,0.150000*%
%ADD11C,0.120000*%
G04 APERTURE END LIST*
D10*
%TO.C,SWB4*%
X87756578Y-39890961D02*
X87899435Y-39938580D01*
X88137531Y-39938580D01*
X88232769Y-39890961D01*
X88280388Y-39843342D01*
X88328007Y-39748104D01*
X88328007Y-39652866D01*
X88280388Y-39557628D01*
X88232769Y-39510009D01*
X88137531Y-39462390D01*
X87947054Y-39414771D01*
X87851816Y-39367152D01*
X87804197Y-39319533D01*
X87756578Y-39224295D01*
X87756578Y-39129057D01*
X87804197Y-39033819D01*
X87851816Y-38986200D01*
X87947054Y-38938580D01*
X88185150Y-38938580D01*
X88328007Y-38986200D01*
X88661340Y-38938580D02*
X88899435Y-39938580D01*
X89089912Y-39224295D01*
X89280388Y-39938580D01*
X89518483Y-38938580D01*
X90232769Y-39414771D02*
X90375626Y-39462390D01*
X90423245Y-39510009D01*
X90470864Y-39605247D01*
X90470864Y-39748104D01*
X90423245Y-39843342D01*
X90375626Y-39890961D01*
X90280388Y-39938580D01*
X89899435Y-39938580D01*
X89899435Y-38938580D01*
X90232769Y-38938580D01*
X90328007Y-38986200D01*
X90375626Y-39033819D01*
X90423245Y-39129057D01*
X90423245Y-39224295D01*
X90375626Y-39319533D01*
X90328007Y-39367152D01*
X90232769Y-39414771D01*
X89899435Y-39414771D01*
X91328007Y-39271914D02*
X91328007Y-39938580D01*
X91089912Y-38890961D02*
X90851816Y-39605247D01*
X91470864Y-39605247D01*
%TO.C,M2*%
X125005444Y-103180476D02*
X126005444Y-103180476D01*
X125291158Y-103513809D01*
X126005444Y-103847142D01*
X125005444Y-103847142D01*
X125910205Y-104275714D02*
X125957825Y-104323333D01*
X126005444Y-104418571D01*
X126005444Y-104656666D01*
X125957825Y-104751904D01*
X125910205Y-104799523D01*
X125814967Y-104847142D01*
X125719729Y-104847142D01*
X125576872Y-104799523D01*
X125005444Y-104228095D01*
X125005444Y-104847142D01*
%TO.C,SW10*%
X215330388Y-39890961D02*
X215473245Y-39938580D01*
X215711340Y-39938580D01*
X215806578Y-39890961D01*
X215854197Y-39843342D01*
X215901816Y-39748104D01*
X215901816Y-39652866D01*
X215854197Y-39557628D01*
X215806578Y-39510009D01*
X215711340Y-39462390D01*
X215520864Y-39414771D01*
X215425626Y-39367152D01*
X215378007Y-39319533D01*
X215330388Y-39224295D01*
X215330388Y-39129057D01*
X215378007Y-39033819D01*
X215425626Y-38986200D01*
X215520864Y-38938580D01*
X215758959Y-38938580D01*
X215901816Y-38986200D01*
X216235150Y-38938580D02*
X216473245Y-39938580D01*
X216663721Y-39224295D01*
X216854197Y-39938580D01*
X217092292Y-38938580D01*
X217997054Y-39938580D02*
X217425626Y-39938580D01*
X217711340Y-39938580D02*
X217711340Y-38938580D01*
X217616102Y-39081438D01*
X217520864Y-39176676D01*
X217425626Y-39224295D01*
X218616102Y-38938580D02*
X218711340Y-38938580D01*
X218806578Y-38986200D01*
X218854197Y-39033819D01*
X218901816Y-39129057D01*
X218949435Y-39319533D01*
X218949435Y-39557628D01*
X218901816Y-39748104D01*
X218854197Y-39843342D01*
X218806578Y-39890961D01*
X218711340Y-39938580D01*
X218616102Y-39938580D01*
X218520864Y-39890961D01*
X218473245Y-39843342D01*
X218425626Y-39748104D01*
X218378007Y-39557628D01*
X218378007Y-39319533D01*
X218425626Y-39129057D01*
X218473245Y-39033819D01*
X218520864Y-38986200D01*
X218616102Y-38938580D01*
%TO.C,SWB8*%
X105756578Y-54034761D02*
X105899435Y-54082380D01*
X106137531Y-54082380D01*
X106232769Y-54034761D01*
X106280388Y-53987142D01*
X106328007Y-53891904D01*
X106328007Y-53796666D01*
X106280388Y-53701428D01*
X106232769Y-53653809D01*
X106137531Y-53606190D01*
X105947054Y-53558571D01*
X105851816Y-53510952D01*
X105804197Y-53463333D01*
X105756578Y-53368095D01*
X105756578Y-53272857D01*
X105804197Y-53177619D01*
X105851816Y-53130000D01*
X105947054Y-53082380D01*
X106185150Y-53082380D01*
X106328007Y-53130000D01*
X106661340Y-53082380D02*
X106899435Y-54082380D01*
X107089912Y-53368095D01*
X107280388Y-54082380D01*
X107518483Y-53082380D01*
X108232769Y-53558571D02*
X108375626Y-53606190D01*
X108423245Y-53653809D01*
X108470864Y-53749047D01*
X108470864Y-53891904D01*
X108423245Y-53987142D01*
X108375626Y-54034761D01*
X108280388Y-54082380D01*
X107899435Y-54082380D01*
X107899435Y-53082380D01*
X108232769Y-53082380D01*
X108328007Y-53130000D01*
X108375626Y-53177619D01*
X108423245Y-53272857D01*
X108423245Y-53368095D01*
X108375626Y-53463333D01*
X108328007Y-53510952D01*
X108232769Y-53558571D01*
X107899435Y-53558571D01*
X109042292Y-53510952D02*
X108947054Y-53463333D01*
X108899435Y-53415714D01*
X108851816Y-53320476D01*
X108851816Y-53272857D01*
X108899435Y-53177619D01*
X108947054Y-53130000D01*
X109042292Y-53082380D01*
X109232769Y-53082380D01*
X109328007Y-53130000D01*
X109375626Y-53177619D01*
X109423245Y-53272857D01*
X109423245Y-53320476D01*
X109375626Y-53415714D01*
X109328007Y-53463333D01*
X109232769Y-53510952D01*
X109042292Y-53510952D01*
X108947054Y-53558571D01*
X108899435Y-53606190D01*
X108851816Y-53701428D01*
X108851816Y-53891904D01*
X108899435Y-53987142D01*
X108947054Y-54034761D01*
X109042292Y-54082380D01*
X109232769Y-54082380D01*
X109328007Y-54034761D01*
X109375626Y-53987142D01*
X109423245Y-53891904D01*
X109423245Y-53701428D01*
X109375626Y-53606190D01*
X109328007Y-53558571D01*
X109232769Y-53510952D01*
%TO.C,SWB12*%
X123280388Y-73890961D02*
X123423245Y-73938580D01*
X123661340Y-73938580D01*
X123756578Y-73890961D01*
X123804197Y-73843342D01*
X123851816Y-73748104D01*
X123851816Y-73652866D01*
X123804197Y-73557628D01*
X123756578Y-73510009D01*
X123661340Y-73462390D01*
X123470864Y-73414771D01*
X123375626Y-73367152D01*
X123328007Y-73319533D01*
X123280388Y-73224295D01*
X123280388Y-73129057D01*
X123328007Y-73033819D01*
X123375626Y-72986200D01*
X123470864Y-72938580D01*
X123708959Y-72938580D01*
X123851816Y-72986200D01*
X124185150Y-72938580D02*
X124423245Y-73938580D01*
X124613721Y-73224295D01*
X124804197Y-73938580D01*
X125042292Y-72938580D01*
X125756578Y-73414771D02*
X125899435Y-73462390D01*
X125947054Y-73510009D01*
X125994673Y-73605247D01*
X125994673Y-73748104D01*
X125947054Y-73843342D01*
X125899435Y-73890961D01*
X125804197Y-73938580D01*
X125423245Y-73938580D01*
X125423245Y-72938580D01*
X125756578Y-72938580D01*
X125851816Y-72986200D01*
X125899435Y-73033819D01*
X125947054Y-73129057D01*
X125947054Y-73224295D01*
X125899435Y-73319533D01*
X125851816Y-73367152D01*
X125756578Y-73414771D01*
X125423245Y-73414771D01*
X126947054Y-73938580D02*
X126375626Y-73938580D01*
X126661340Y-73938580D02*
X126661340Y-72938580D01*
X126566102Y-73081438D01*
X126470864Y-73176676D01*
X126375626Y-73224295D01*
X127328007Y-73033819D02*
X127375626Y-72986200D01*
X127470864Y-72938580D01*
X127708959Y-72938580D01*
X127804197Y-72986200D01*
X127851816Y-73033819D01*
X127899435Y-73129057D01*
X127899435Y-73224295D01*
X127851816Y-73367152D01*
X127280388Y-73938580D01*
X127899435Y-73938580D01*
%TO.C,SW16*%
X200830563Y-96034761D02*
X200973420Y-96082380D01*
X201211515Y-96082380D01*
X201306753Y-96034761D01*
X201354372Y-95987142D01*
X201401991Y-95891904D01*
X201401991Y-95796666D01*
X201354372Y-95701428D01*
X201306753Y-95653809D01*
X201211515Y-95606190D01*
X201021039Y-95558571D01*
X200925801Y-95510952D01*
X200878182Y-95463333D01*
X200830563Y-95368095D01*
X200830563Y-95272857D01*
X200878182Y-95177619D01*
X200925801Y-95130000D01*
X201021039Y-95082380D01*
X201259134Y-95082380D01*
X201401991Y-95130000D01*
X201735325Y-95082380D02*
X201973420Y-96082380D01*
X202163896Y-95368095D01*
X202354372Y-96082380D01*
X202592467Y-95082380D01*
X203497229Y-96082380D02*
X202925801Y-96082380D01*
X203211515Y-96082380D02*
X203211515Y-95082380D01*
X203116277Y-95225238D01*
X203021039Y-95320476D01*
X202925801Y-95368095D01*
X204354372Y-95082380D02*
X204163896Y-95082380D01*
X204068658Y-95130000D01*
X204021039Y-95177619D01*
X203925801Y-95320476D01*
X203878182Y-95510952D01*
X203878182Y-95891904D01*
X203925801Y-95987142D01*
X203973420Y-96034761D01*
X204068658Y-96082380D01*
X204259134Y-96082380D01*
X204354372Y-96034761D01*
X204401991Y-95987142D01*
X204449610Y-95891904D01*
X204449610Y-95653809D01*
X204401991Y-95558571D01*
X204354372Y-95510952D01*
X204259134Y-95463333D01*
X204068658Y-95463333D01*
X203973420Y-95510952D01*
X203925801Y-95558571D01*
X203878182Y-95653809D01*
%TO.C,SW11*%
X215330388Y-56890961D02*
X215473245Y-56938580D01*
X215711340Y-56938580D01*
X215806578Y-56890961D01*
X215854197Y-56843342D01*
X215901816Y-56748104D01*
X215901816Y-56652866D01*
X215854197Y-56557628D01*
X215806578Y-56510009D01*
X215711340Y-56462390D01*
X215520864Y-56414771D01*
X215425626Y-56367152D01*
X215378007Y-56319533D01*
X215330388Y-56224295D01*
X215330388Y-56129057D01*
X215378007Y-56033819D01*
X215425626Y-55986200D01*
X215520864Y-55938580D01*
X215758959Y-55938580D01*
X215901816Y-55986200D01*
X216235150Y-55938580D02*
X216473245Y-56938580D01*
X216663721Y-56224295D01*
X216854197Y-56938580D01*
X217092292Y-55938580D01*
X217997054Y-56938580D02*
X217425626Y-56938580D01*
X217711340Y-56938580D02*
X217711340Y-55938580D01*
X217616102Y-56081438D01*
X217520864Y-56176676D01*
X217425626Y-56224295D01*
X218949435Y-56938580D02*
X218378007Y-56938580D01*
X218663721Y-56938580D02*
X218663721Y-55938580D01*
X218568483Y-56081438D01*
X218473245Y-56176676D01*
X218378007Y-56224295D01*
%TO.C,SWB13*%
X141280388Y-46890711D02*
X141423245Y-46938330D01*
X141661340Y-46938330D01*
X141756578Y-46890711D01*
X141804197Y-46843092D01*
X141851816Y-46747854D01*
X141851816Y-46652616D01*
X141804197Y-46557378D01*
X141756578Y-46509759D01*
X141661340Y-46462140D01*
X141470864Y-46414521D01*
X141375626Y-46366902D01*
X141328007Y-46319283D01*
X141280388Y-46224045D01*
X141280388Y-46128807D01*
X141328007Y-46033569D01*
X141375626Y-45985950D01*
X141470864Y-45938330D01*
X141708959Y-45938330D01*
X141851816Y-45985950D01*
X142185150Y-45938330D02*
X142423245Y-46938330D01*
X142613721Y-46224045D01*
X142804197Y-46938330D01*
X143042292Y-45938330D01*
X143756578Y-46414521D02*
X143899435Y-46462140D01*
X143947054Y-46509759D01*
X143994673Y-46604997D01*
X143994673Y-46747854D01*
X143947054Y-46843092D01*
X143899435Y-46890711D01*
X143804197Y-46938330D01*
X143423245Y-46938330D01*
X143423245Y-45938330D01*
X143756578Y-45938330D01*
X143851816Y-45985950D01*
X143899435Y-46033569D01*
X143947054Y-46128807D01*
X143947054Y-46224045D01*
X143899435Y-46319283D01*
X143851816Y-46366902D01*
X143756578Y-46414521D01*
X143423245Y-46414521D01*
X144947054Y-46938330D02*
X144375626Y-46938330D01*
X144661340Y-46938330D02*
X144661340Y-45938330D01*
X144566102Y-46081188D01*
X144470864Y-46176426D01*
X144375626Y-46224045D01*
X145280388Y-45938330D02*
X145899435Y-45938330D01*
X145566102Y-46319283D01*
X145708959Y-46319283D01*
X145804197Y-46366902D01*
X145851816Y-46414521D01*
X145899435Y-46509759D01*
X145899435Y-46747854D01*
X145851816Y-46843092D01*
X145804197Y-46890711D01*
X145708959Y-46938330D01*
X145423245Y-46938330D01*
X145328007Y-46890711D01*
X145280388Y-46843092D01*
%TO.C,SWB18*%
X101780213Y-96034761D02*
X101923070Y-96082380D01*
X102161165Y-96082380D01*
X102256403Y-96034761D01*
X102304022Y-95987142D01*
X102351641Y-95891904D01*
X102351641Y-95796666D01*
X102304022Y-95701428D01*
X102256403Y-95653809D01*
X102161165Y-95606190D01*
X101970689Y-95558571D01*
X101875451Y-95510952D01*
X101827832Y-95463333D01*
X101780213Y-95368095D01*
X101780213Y-95272857D01*
X101827832Y-95177619D01*
X101875451Y-95130000D01*
X101970689Y-95082380D01*
X102208784Y-95082380D01*
X102351641Y-95130000D01*
X102684975Y-95082380D02*
X102923070Y-96082380D01*
X103113546Y-95368095D01*
X103304022Y-96082380D01*
X103542117Y-95082380D01*
X104256403Y-95558571D02*
X104399260Y-95606190D01*
X104446879Y-95653809D01*
X104494498Y-95749047D01*
X104494498Y-95891904D01*
X104446879Y-95987142D01*
X104399260Y-96034761D01*
X104304022Y-96082380D01*
X103923070Y-96082380D01*
X103923070Y-95082380D01*
X104256403Y-95082380D01*
X104351641Y-95130000D01*
X104399260Y-95177619D01*
X104446879Y-95272857D01*
X104446879Y-95368095D01*
X104399260Y-95463333D01*
X104351641Y-95510952D01*
X104256403Y-95558571D01*
X103923070Y-95558571D01*
X105446879Y-96082380D02*
X104875451Y-96082380D01*
X105161165Y-96082380D02*
X105161165Y-95082380D01*
X105065927Y-95225238D01*
X104970689Y-95320476D01*
X104875451Y-95368095D01*
X106018308Y-95510952D02*
X105923070Y-95463333D01*
X105875451Y-95415714D01*
X105827832Y-95320476D01*
X105827832Y-95272857D01*
X105875451Y-95177619D01*
X105923070Y-95130000D01*
X106018308Y-95082380D01*
X106208784Y-95082380D01*
X106304022Y-95130000D01*
X106351641Y-95177619D01*
X106399260Y-95272857D01*
X106399260Y-95320476D01*
X106351641Y-95415714D01*
X106304022Y-95463333D01*
X106208784Y-95510952D01*
X106018308Y-95510952D01*
X105923070Y-95558571D01*
X105875451Y-95606190D01*
X105827832Y-95701428D01*
X105827832Y-95891904D01*
X105875451Y-95987142D01*
X105923070Y-96034761D01*
X106018308Y-96082380D01*
X106208784Y-96082380D01*
X106304022Y-96034761D01*
X106351641Y-95987142D01*
X106399260Y-95891904D01*
X106399260Y-95701428D01*
X106351641Y-95606190D01*
X106304022Y-95558571D01*
X106208784Y-95510952D01*
%TO.C,SWB14*%
X141280388Y-63890711D02*
X141423245Y-63938330D01*
X141661340Y-63938330D01*
X141756578Y-63890711D01*
X141804197Y-63843092D01*
X141851816Y-63747854D01*
X141851816Y-63652616D01*
X141804197Y-63557378D01*
X141756578Y-63509759D01*
X141661340Y-63462140D01*
X141470864Y-63414521D01*
X141375626Y-63366902D01*
X141328007Y-63319283D01*
X141280388Y-63224045D01*
X141280388Y-63128807D01*
X141328007Y-63033569D01*
X141375626Y-62985950D01*
X141470864Y-62938330D01*
X141708959Y-62938330D01*
X141851816Y-62985950D01*
X142185150Y-62938330D02*
X142423245Y-63938330D01*
X142613721Y-63224045D01*
X142804197Y-63938330D01*
X143042292Y-62938330D01*
X143756578Y-63414521D02*
X143899435Y-63462140D01*
X143947054Y-63509759D01*
X143994673Y-63604997D01*
X143994673Y-63747854D01*
X143947054Y-63843092D01*
X143899435Y-63890711D01*
X143804197Y-63938330D01*
X143423245Y-63938330D01*
X143423245Y-62938330D01*
X143756578Y-62938330D01*
X143851816Y-62985950D01*
X143899435Y-63033569D01*
X143947054Y-63128807D01*
X143947054Y-63224045D01*
X143899435Y-63319283D01*
X143851816Y-63366902D01*
X143756578Y-63414521D01*
X143423245Y-63414521D01*
X144947054Y-63938330D02*
X144375626Y-63938330D01*
X144661340Y-63938330D02*
X144661340Y-62938330D01*
X144566102Y-63081188D01*
X144470864Y-63176426D01*
X144375626Y-63224045D01*
X145804197Y-63271664D02*
X145804197Y-63938330D01*
X145566102Y-62890711D02*
X145328007Y-63604997D01*
X145947054Y-63604997D01*
%TO.C,SW15*%
X233330388Y-76747161D02*
X233473245Y-76794780D01*
X233711340Y-76794780D01*
X233806578Y-76747161D01*
X233854197Y-76699542D01*
X233901816Y-76604304D01*
X233901816Y-76509066D01*
X233854197Y-76413828D01*
X233806578Y-76366209D01*
X233711340Y-76318590D01*
X233520864Y-76270971D01*
X233425626Y-76223352D01*
X233378007Y-76175733D01*
X233330388Y-76080495D01*
X233330388Y-75985257D01*
X233378007Y-75890019D01*
X233425626Y-75842400D01*
X233520864Y-75794780D01*
X233758959Y-75794780D01*
X233901816Y-75842400D01*
X234235150Y-75794780D02*
X234473245Y-76794780D01*
X234663721Y-76080495D01*
X234854197Y-76794780D01*
X235092292Y-75794780D01*
X235997054Y-76794780D02*
X235425626Y-76794780D01*
X235711340Y-76794780D02*
X235711340Y-75794780D01*
X235616102Y-75937638D01*
X235520864Y-76032876D01*
X235425626Y-76080495D01*
X236901816Y-75794780D02*
X236425626Y-75794780D01*
X236378007Y-76270971D01*
X236425626Y-76223352D01*
X236520864Y-76175733D01*
X236758959Y-76175733D01*
X236854197Y-76223352D01*
X236901816Y-76270971D01*
X236949435Y-76366209D01*
X236949435Y-76604304D01*
X236901816Y-76699542D01*
X236854197Y-76747161D01*
X236758959Y-76794780D01*
X236520864Y-76794780D01*
X236425626Y-76747161D01*
X236378007Y-76699542D01*
%TO.C,SW2*%
X161806578Y-63890711D02*
X161949435Y-63938330D01*
X162187531Y-63938330D01*
X162282769Y-63890711D01*
X162330388Y-63843092D01*
X162378007Y-63747854D01*
X162378007Y-63652616D01*
X162330388Y-63557378D01*
X162282769Y-63509759D01*
X162187531Y-63462140D01*
X161997054Y-63414521D01*
X161901816Y-63366902D01*
X161854197Y-63319283D01*
X161806578Y-63224045D01*
X161806578Y-63128807D01*
X161854197Y-63033569D01*
X161901816Y-62985950D01*
X161997054Y-62938330D01*
X162235150Y-62938330D01*
X162378007Y-62985950D01*
X162711340Y-62938330D02*
X162949435Y-63938330D01*
X163139912Y-63224045D01*
X163330388Y-63938330D01*
X163568483Y-62938330D01*
X163901816Y-63033569D02*
X163949435Y-62985950D01*
X164044673Y-62938330D01*
X164282769Y-62938330D01*
X164378007Y-62985950D01*
X164425626Y-63033569D01*
X164473245Y-63128807D01*
X164473245Y-63224045D01*
X164425626Y-63366902D01*
X163854197Y-63938330D01*
X164473245Y-63938330D01*
%TO.C,SWB10*%
X123280388Y-39890961D02*
X123423245Y-39938580D01*
X123661340Y-39938580D01*
X123756578Y-39890961D01*
X123804197Y-39843342D01*
X123851816Y-39748104D01*
X123851816Y-39652866D01*
X123804197Y-39557628D01*
X123756578Y-39510009D01*
X123661340Y-39462390D01*
X123470864Y-39414771D01*
X123375626Y-39367152D01*
X123328007Y-39319533D01*
X123280388Y-39224295D01*
X123280388Y-39129057D01*
X123328007Y-39033819D01*
X123375626Y-38986200D01*
X123470864Y-38938580D01*
X123708959Y-38938580D01*
X123851816Y-38986200D01*
X124185150Y-38938580D02*
X124423245Y-39938580D01*
X124613721Y-39224295D01*
X124804197Y-39938580D01*
X125042292Y-38938580D01*
X125756578Y-39414771D02*
X125899435Y-39462390D01*
X125947054Y-39510009D01*
X125994673Y-39605247D01*
X125994673Y-39748104D01*
X125947054Y-39843342D01*
X125899435Y-39890961D01*
X125804197Y-39938580D01*
X125423245Y-39938580D01*
X125423245Y-38938580D01*
X125756578Y-38938580D01*
X125851816Y-38986200D01*
X125899435Y-39033819D01*
X125947054Y-39129057D01*
X125947054Y-39224295D01*
X125899435Y-39319533D01*
X125851816Y-39367152D01*
X125756578Y-39414771D01*
X125423245Y-39414771D01*
X126947054Y-39938580D02*
X126375626Y-39938580D01*
X126661340Y-39938580D02*
X126661340Y-38938580D01*
X126566102Y-39081438D01*
X126470864Y-39176676D01*
X126375626Y-39224295D01*
X127566102Y-38938580D02*
X127661340Y-38938580D01*
X127756578Y-38986200D01*
X127804197Y-39033819D01*
X127851816Y-39129057D01*
X127899435Y-39319533D01*
X127899435Y-39557628D01*
X127851816Y-39748104D01*
X127804197Y-39843342D01*
X127756578Y-39890961D01*
X127661340Y-39938580D01*
X127566102Y-39938580D01*
X127470864Y-39890961D01*
X127423245Y-39843342D01*
X127375626Y-39748104D01*
X127328007Y-39557628D01*
X127328007Y-39319533D01*
X127375626Y-39129057D01*
X127423245Y-39033819D01*
X127470864Y-38986200D01*
X127566102Y-38938580D01*
%TO.C,SW4*%
X179806578Y-39890961D02*
X179949435Y-39938580D01*
X180187531Y-39938580D01*
X180282769Y-39890961D01*
X180330388Y-39843342D01*
X180378007Y-39748104D01*
X180378007Y-39652866D01*
X180330388Y-39557628D01*
X180282769Y-39510009D01*
X180187531Y-39462390D01*
X179997054Y-39414771D01*
X179901816Y-39367152D01*
X179854197Y-39319533D01*
X179806578Y-39224295D01*
X179806578Y-39129057D01*
X179854197Y-39033819D01*
X179901816Y-38986200D01*
X179997054Y-38938580D01*
X180235150Y-38938580D01*
X180378007Y-38986200D01*
X180711340Y-38938580D02*
X180949435Y-39938580D01*
X181139912Y-39224295D01*
X181330388Y-39938580D01*
X181568483Y-38938580D01*
X182378007Y-39271914D02*
X182378007Y-39938580D01*
X182139912Y-38890961D02*
X181901816Y-39605247D01*
X182520864Y-39605247D01*
%TO.C,SW14*%
X233330388Y-59747161D02*
X233473245Y-59794780D01*
X233711340Y-59794780D01*
X233806578Y-59747161D01*
X233854197Y-59699542D01*
X233901816Y-59604304D01*
X233901816Y-59509066D01*
X233854197Y-59413828D01*
X233806578Y-59366209D01*
X233711340Y-59318590D01*
X233520864Y-59270971D01*
X233425626Y-59223352D01*
X233378007Y-59175733D01*
X233330388Y-59080495D01*
X233330388Y-58985257D01*
X233378007Y-58890019D01*
X233425626Y-58842400D01*
X233520864Y-58794780D01*
X233758959Y-58794780D01*
X233901816Y-58842400D01*
X234235150Y-58794780D02*
X234473245Y-59794780D01*
X234663721Y-59080495D01*
X234854197Y-59794780D01*
X235092292Y-58794780D01*
X235997054Y-59794780D02*
X235425626Y-59794780D01*
X235711340Y-59794780D02*
X235711340Y-58794780D01*
X235616102Y-58937638D01*
X235520864Y-59032876D01*
X235425626Y-59080495D01*
X236854197Y-59128114D02*
X236854197Y-59794780D01*
X236616102Y-58747161D02*
X236378007Y-59461447D01*
X236997054Y-59461447D01*
%TO.C,SWB17*%
X80176733Y-99112288D02*
X80326737Y-99125504D01*
X80558350Y-99070326D01*
X80639960Y-99001932D01*
X80675247Y-98944574D01*
X80699498Y-98840893D01*
X80677427Y-98748248D01*
X80609033Y-98666638D01*
X80551675Y-98631351D01*
X80447994Y-98607100D01*
X80251668Y-98604919D01*
X80147987Y-98580668D01*
X80090628Y-98545381D01*
X80022235Y-98463771D01*
X80000163Y-98371126D01*
X80024415Y-98267445D01*
X80059702Y-98210087D01*
X80141312Y-98141693D01*
X80372925Y-98086515D01*
X80522928Y-98099730D01*
X80836151Y-97976159D02*
X81299513Y-98893756D01*
X81319269Y-98154774D01*
X81670094Y-98805471D01*
X81669959Y-97777517D01*
X82475155Y-98075210D02*
X82625159Y-98088426D01*
X82682517Y-98123713D01*
X82750911Y-98205322D01*
X82784018Y-98344290D01*
X82759767Y-98447971D01*
X82724480Y-98505330D01*
X82642870Y-98573724D01*
X82272289Y-98662008D01*
X82040541Y-97689233D01*
X82364799Y-97611983D01*
X82468480Y-97636235D01*
X82525838Y-97671522D01*
X82594232Y-97753131D01*
X82616304Y-97845777D01*
X82592052Y-97949458D01*
X82556765Y-98006816D01*
X82475155Y-98075210D01*
X82150897Y-98152459D01*
X83754614Y-98308869D02*
X83198742Y-98441296D01*
X83476678Y-98375082D02*
X83244930Y-97402307D01*
X83185391Y-97563346D01*
X83114817Y-97678062D01*
X83033208Y-97746456D01*
X83847124Y-97258844D02*
X84495642Y-97104345D01*
X84310486Y-98176441D01*
%TO.C,SWB1*%
X69756578Y-42747161D02*
X69899435Y-42794780D01*
X70137531Y-42794780D01*
X70232769Y-42747161D01*
X70280388Y-42699542D01*
X70328007Y-42604304D01*
X70328007Y-42509066D01*
X70280388Y-42413828D01*
X70232769Y-42366209D01*
X70137531Y-42318590D01*
X69947054Y-42270971D01*
X69851816Y-42223352D01*
X69804197Y-42175733D01*
X69756578Y-42080495D01*
X69756578Y-41985257D01*
X69804197Y-41890019D01*
X69851816Y-41842400D01*
X69947054Y-41794780D01*
X70185150Y-41794780D01*
X70328007Y-41842400D01*
X70661340Y-41794780D02*
X70899435Y-42794780D01*
X71089912Y-42080495D01*
X71280388Y-42794780D01*
X71518483Y-41794780D01*
X72232769Y-42270971D02*
X72375626Y-42318590D01*
X72423245Y-42366209D01*
X72470864Y-42461447D01*
X72470864Y-42604304D01*
X72423245Y-42699542D01*
X72375626Y-42747161D01*
X72280388Y-42794780D01*
X71899435Y-42794780D01*
X71899435Y-41794780D01*
X72232769Y-41794780D01*
X72328007Y-41842400D01*
X72375626Y-41890019D01*
X72423245Y-41985257D01*
X72423245Y-42080495D01*
X72375626Y-42175733D01*
X72328007Y-42223352D01*
X72232769Y-42270971D01*
X71899435Y-42270971D01*
X73423245Y-42794780D02*
X72851816Y-42794780D01*
X73137531Y-42794780D02*
X73137531Y-41794780D01*
X73042292Y-41937638D01*
X72947054Y-42032876D01*
X72851816Y-42080495D01*
%TO.C,SW13*%
X233330388Y-42747161D02*
X233473245Y-42794780D01*
X233711340Y-42794780D01*
X233806578Y-42747161D01*
X233854197Y-42699542D01*
X233901816Y-42604304D01*
X233901816Y-42509066D01*
X233854197Y-42413828D01*
X233806578Y-42366209D01*
X233711340Y-42318590D01*
X233520864Y-42270971D01*
X233425626Y-42223352D01*
X233378007Y-42175733D01*
X233330388Y-42080495D01*
X233330388Y-41985257D01*
X233378007Y-41890019D01*
X233425626Y-41842400D01*
X233520864Y-41794780D01*
X233758959Y-41794780D01*
X233901816Y-41842400D01*
X234235150Y-41794780D02*
X234473245Y-42794780D01*
X234663721Y-42080495D01*
X234854197Y-42794780D01*
X235092292Y-41794780D01*
X235997054Y-42794780D02*
X235425626Y-42794780D01*
X235711340Y-42794780D02*
X235711340Y-41794780D01*
X235616102Y-41937638D01*
X235520864Y-42032876D01*
X235425626Y-42080495D01*
X236330388Y-41794780D02*
X236949435Y-41794780D01*
X236616102Y-42175733D01*
X236758959Y-42175733D01*
X236854197Y-42223352D01*
X236901816Y-42270971D01*
X236949435Y-42366209D01*
X236949435Y-42604304D01*
X236901816Y-42699542D01*
X236854197Y-42747161D01*
X236758959Y-42794780D01*
X236473245Y-42794780D01*
X236378007Y-42747161D01*
X236330388Y-42699542D01*
%TO.C,SWB16*%
X59872612Y-107107162D02*
X60021595Y-107085255D01*
X60234115Y-106977903D01*
X60297653Y-106892458D01*
X60318687Y-106828484D01*
X60318250Y-106722005D01*
X60275310Y-106636997D01*
X60189865Y-106573459D01*
X60125890Y-106552425D01*
X60019412Y-106552862D01*
X59827925Y-106596239D01*
X59721447Y-106596676D01*
X59657472Y-106575642D01*
X59572027Y-106512104D01*
X59529087Y-106427096D01*
X59528650Y-106320618D01*
X59549684Y-106256643D01*
X59613222Y-106171198D01*
X59825742Y-106063847D01*
X59974725Y-106041940D01*
X60250783Y-105849143D02*
X60914181Y-106634377D01*
X60762142Y-105910934D01*
X61254213Y-106462614D01*
X61015856Y-105462677D01*
X61868121Y-105565662D02*
X62017104Y-105543755D01*
X62081078Y-105564789D01*
X62166523Y-105628327D01*
X62230934Y-105755839D01*
X62231371Y-105862317D01*
X62210337Y-105926292D01*
X62146799Y-106011737D01*
X61806767Y-106183500D01*
X61355889Y-105290914D01*
X61653418Y-105140621D01*
X61759896Y-105140185D01*
X61823871Y-105161218D01*
X61909315Y-105224756D01*
X61952256Y-105309764D01*
X61952693Y-105416243D01*
X61931659Y-105480217D01*
X61868121Y-105565662D01*
X61570593Y-105715955D01*
X63166897Y-105496448D02*
X62656848Y-105754092D01*
X62911873Y-105625270D02*
X62460995Y-104732684D01*
X62440398Y-104903137D01*
X62398331Y-105031086D01*
X62334793Y-105116531D01*
X63481093Y-104217396D02*
X63311077Y-104303277D01*
X63247539Y-104388722D01*
X63226506Y-104452696D01*
X63205908Y-104623149D01*
X63249286Y-104814636D01*
X63421049Y-105154669D01*
X63506493Y-105218207D01*
X63570468Y-105239240D01*
X63676946Y-105238804D01*
X63846963Y-105152922D01*
X63910501Y-105067478D01*
X63931534Y-105003503D01*
X63931098Y-104897025D01*
X63823746Y-104684504D01*
X63738301Y-104620966D01*
X63674327Y-104599933D01*
X63567848Y-104600369D01*
X63397832Y-104686251D01*
X63334294Y-104771695D01*
X63313260Y-104835670D01*
X63313697Y-104942148D01*
%TO.C,SW7*%
X197806578Y-37034761D02*
X197949435Y-37082380D01*
X198187531Y-37082380D01*
X198282769Y-37034761D01*
X198330388Y-36987142D01*
X198378007Y-36891904D01*
X198378007Y-36796666D01*
X198330388Y-36701428D01*
X198282769Y-36653809D01*
X198187531Y-36606190D01*
X197997054Y-36558571D01*
X197901816Y-36510952D01*
X197854197Y-36463333D01*
X197806578Y-36368095D01*
X197806578Y-36272857D01*
X197854197Y-36177619D01*
X197901816Y-36130000D01*
X197997054Y-36082380D01*
X198235150Y-36082380D01*
X198378007Y-36130000D01*
X198711340Y-36082380D02*
X198949435Y-37082380D01*
X199139912Y-36368095D01*
X199330388Y-37082380D01*
X199568483Y-36082380D01*
X199854197Y-36082380D02*
X200520864Y-36082380D01*
X200092292Y-37082380D01*
%TO.C,SWB3*%
X69756578Y-76747161D02*
X69899435Y-76794780D01*
X70137531Y-76794780D01*
X70232769Y-76747161D01*
X70280388Y-76699542D01*
X70328007Y-76604304D01*
X70328007Y-76509066D01*
X70280388Y-76413828D01*
X70232769Y-76366209D01*
X70137531Y-76318590D01*
X69947054Y-76270971D01*
X69851816Y-76223352D01*
X69804197Y-76175733D01*
X69756578Y-76080495D01*
X69756578Y-75985257D01*
X69804197Y-75890019D01*
X69851816Y-75842400D01*
X69947054Y-75794780D01*
X70185150Y-75794780D01*
X70328007Y-75842400D01*
X70661340Y-75794780D02*
X70899435Y-76794780D01*
X71089912Y-76080495D01*
X71280388Y-76794780D01*
X71518483Y-75794780D01*
X72232769Y-76270971D02*
X72375626Y-76318590D01*
X72423245Y-76366209D01*
X72470864Y-76461447D01*
X72470864Y-76604304D01*
X72423245Y-76699542D01*
X72375626Y-76747161D01*
X72280388Y-76794780D01*
X71899435Y-76794780D01*
X71899435Y-75794780D01*
X72232769Y-75794780D01*
X72328007Y-75842400D01*
X72375626Y-75890019D01*
X72423245Y-75985257D01*
X72423245Y-76080495D01*
X72375626Y-76175733D01*
X72328007Y-76223352D01*
X72232769Y-76270971D01*
X71899435Y-76270971D01*
X72804197Y-75794780D02*
X73423245Y-75794780D01*
X73089912Y-76175733D01*
X73232769Y-76175733D01*
X73328007Y-76223352D01*
X73375626Y-76270971D01*
X73423245Y-76366209D01*
X73423245Y-76604304D01*
X73375626Y-76699542D01*
X73328007Y-76747161D01*
X73232769Y-76794780D01*
X72947054Y-76794780D01*
X72851816Y-76747161D01*
X72804197Y-76699542D01*
%TO.C,SW9*%
X197806578Y-71034761D02*
X197949435Y-71082380D01*
X198187531Y-71082380D01*
X198282769Y-71034761D01*
X198330388Y-70987142D01*
X198378007Y-70891904D01*
X198378007Y-70796666D01*
X198330388Y-70701428D01*
X198282769Y-70653809D01*
X198187531Y-70606190D01*
X197997054Y-70558571D01*
X197901816Y-70510952D01*
X197854197Y-70463333D01*
X197806578Y-70368095D01*
X197806578Y-70272857D01*
X197854197Y-70177619D01*
X197901816Y-70130000D01*
X197997054Y-70082380D01*
X198235150Y-70082380D01*
X198378007Y-70130000D01*
X198711340Y-70082380D02*
X198949435Y-71082380D01*
X199139912Y-70368095D01*
X199330388Y-71082380D01*
X199568483Y-70082380D01*
X199997054Y-71082380D02*
X200187531Y-71082380D01*
X200282769Y-71034761D01*
X200330388Y-70987142D01*
X200425626Y-70844285D01*
X200473245Y-70653809D01*
X200473245Y-70272857D01*
X200425626Y-70177619D01*
X200378007Y-70130000D01*
X200282769Y-70082380D01*
X200092292Y-70082380D01*
X199997054Y-70130000D01*
X199949435Y-70177619D01*
X199901816Y-70272857D01*
X199901816Y-70510952D01*
X199949435Y-70606190D01*
X199997054Y-70653809D01*
X200092292Y-70701428D01*
X200282769Y-70701428D01*
X200378007Y-70653809D01*
X200425626Y-70606190D01*
X200473245Y-70510952D01*
%TO.C,SWB15*%
X141280388Y-80890711D02*
X141423245Y-80938330D01*
X141661340Y-80938330D01*
X141756578Y-80890711D01*
X141804197Y-80843092D01*
X141851816Y-80747854D01*
X141851816Y-80652616D01*
X141804197Y-80557378D01*
X141756578Y-80509759D01*
X141661340Y-80462140D01*
X141470864Y-80414521D01*
X141375626Y-80366902D01*
X141328007Y-80319283D01*
X141280388Y-80224045D01*
X141280388Y-80128807D01*
X141328007Y-80033569D01*
X141375626Y-79985950D01*
X141470864Y-79938330D01*
X141708959Y-79938330D01*
X141851816Y-79985950D01*
X142185150Y-79938330D02*
X142423245Y-80938330D01*
X142613721Y-80224045D01*
X142804197Y-80938330D01*
X143042292Y-79938330D01*
X143756578Y-80414521D02*
X143899435Y-80462140D01*
X143947054Y-80509759D01*
X143994673Y-80604997D01*
X143994673Y-80747854D01*
X143947054Y-80843092D01*
X143899435Y-80890711D01*
X143804197Y-80938330D01*
X143423245Y-80938330D01*
X143423245Y-79938330D01*
X143756578Y-79938330D01*
X143851816Y-79985950D01*
X143899435Y-80033569D01*
X143947054Y-80128807D01*
X143947054Y-80224045D01*
X143899435Y-80319283D01*
X143851816Y-80366902D01*
X143756578Y-80414521D01*
X143423245Y-80414521D01*
X144947054Y-80938330D02*
X144375626Y-80938330D01*
X144661340Y-80938330D02*
X144661340Y-79938330D01*
X144566102Y-80081188D01*
X144470864Y-80176426D01*
X144375626Y-80224045D01*
X145851816Y-79938330D02*
X145375626Y-79938330D01*
X145328007Y-80414521D01*
X145375626Y-80366902D01*
X145470864Y-80319283D01*
X145708959Y-80319283D01*
X145804197Y-80366902D01*
X145851816Y-80414521D01*
X145899435Y-80509759D01*
X145899435Y-80747854D01*
X145851816Y-80843092D01*
X145804197Y-80890711D01*
X145708959Y-80938330D01*
X145470864Y-80938330D01*
X145375626Y-80890711D01*
X145328007Y-80843092D01*
%TO.C,SWB9*%
X105756578Y-71034761D02*
X105899435Y-71082380D01*
X106137531Y-71082380D01*
X106232769Y-71034761D01*
X106280388Y-70987142D01*
X106328007Y-70891904D01*
X106328007Y-70796666D01*
X106280388Y-70701428D01*
X106232769Y-70653809D01*
X106137531Y-70606190D01*
X105947054Y-70558571D01*
X105851816Y-70510952D01*
X105804197Y-70463333D01*
X105756578Y-70368095D01*
X105756578Y-70272857D01*
X105804197Y-70177619D01*
X105851816Y-70130000D01*
X105947054Y-70082380D01*
X106185150Y-70082380D01*
X106328007Y-70130000D01*
X106661340Y-70082380D02*
X106899435Y-71082380D01*
X107089912Y-70368095D01*
X107280388Y-71082380D01*
X107518483Y-70082380D01*
X108232769Y-70558571D02*
X108375626Y-70606190D01*
X108423245Y-70653809D01*
X108470864Y-70749047D01*
X108470864Y-70891904D01*
X108423245Y-70987142D01*
X108375626Y-71034761D01*
X108280388Y-71082380D01*
X107899435Y-71082380D01*
X107899435Y-70082380D01*
X108232769Y-70082380D01*
X108328007Y-70130000D01*
X108375626Y-70177619D01*
X108423245Y-70272857D01*
X108423245Y-70368095D01*
X108375626Y-70463333D01*
X108328007Y-70510952D01*
X108232769Y-70558571D01*
X107899435Y-70558571D01*
X108947054Y-71082380D02*
X109137531Y-71082380D01*
X109232769Y-71034761D01*
X109280388Y-70987142D01*
X109375626Y-70844285D01*
X109423245Y-70653809D01*
X109423245Y-70272857D01*
X109375626Y-70177619D01*
X109328007Y-70130000D01*
X109232769Y-70082380D01*
X109042292Y-70082380D01*
X108947054Y-70130000D01*
X108899435Y-70177619D01*
X108851816Y-70272857D01*
X108851816Y-70510952D01*
X108899435Y-70606190D01*
X108947054Y-70653809D01*
X109042292Y-70701428D01*
X109232769Y-70701428D01*
X109328007Y-70653809D01*
X109375626Y-70606190D01*
X109423245Y-70510952D01*
%TO.C,SWB6*%
X87756578Y-73890961D02*
X87899435Y-73938580D01*
X88137531Y-73938580D01*
X88232769Y-73890961D01*
X88280388Y-73843342D01*
X88328007Y-73748104D01*
X88328007Y-73652866D01*
X88280388Y-73557628D01*
X88232769Y-73510009D01*
X88137531Y-73462390D01*
X87947054Y-73414771D01*
X87851816Y-73367152D01*
X87804197Y-73319533D01*
X87756578Y-73224295D01*
X87756578Y-73129057D01*
X87804197Y-73033819D01*
X87851816Y-72986200D01*
X87947054Y-72938580D01*
X88185150Y-72938580D01*
X88328007Y-72986200D01*
X88661340Y-72938580D02*
X88899435Y-73938580D01*
X89089912Y-73224295D01*
X89280388Y-73938580D01*
X89518483Y-72938580D01*
X90232769Y-73414771D02*
X90375626Y-73462390D01*
X90423245Y-73510009D01*
X90470864Y-73605247D01*
X90470864Y-73748104D01*
X90423245Y-73843342D01*
X90375626Y-73890961D01*
X90280388Y-73938580D01*
X89899435Y-73938580D01*
X89899435Y-72938580D01*
X90232769Y-72938580D01*
X90328007Y-72986200D01*
X90375626Y-73033819D01*
X90423245Y-73129057D01*
X90423245Y-73224295D01*
X90375626Y-73319533D01*
X90328007Y-73367152D01*
X90232769Y-73414771D01*
X89899435Y-73414771D01*
X91328007Y-72938580D02*
X91137531Y-72938580D01*
X91042292Y-72986200D01*
X90994673Y-73033819D01*
X90899435Y-73176676D01*
X90851816Y-73367152D01*
X90851816Y-73748104D01*
X90899435Y-73843342D01*
X90947054Y-73890961D01*
X91042292Y-73938580D01*
X91232769Y-73938580D01*
X91328007Y-73890961D01*
X91375626Y-73843342D01*
X91423245Y-73748104D01*
X91423245Y-73510009D01*
X91375626Y-73414771D01*
X91328007Y-73367152D01*
X91232769Y-73319533D01*
X91042292Y-73319533D01*
X90947054Y-73367152D01*
X90899435Y-73414771D01*
X90851816Y-73510009D01*
%TO.C,SWB7*%
X105756578Y-37034761D02*
X105899435Y-37082380D01*
X106137531Y-37082380D01*
X106232769Y-37034761D01*
X106280388Y-36987142D01*
X106328007Y-36891904D01*
X106328007Y-36796666D01*
X106280388Y-36701428D01*
X106232769Y-36653809D01*
X106137531Y-36606190D01*
X105947054Y-36558571D01*
X105851816Y-36510952D01*
X105804197Y-36463333D01*
X105756578Y-36368095D01*
X105756578Y-36272857D01*
X105804197Y-36177619D01*
X105851816Y-36130000D01*
X105947054Y-36082380D01*
X106185150Y-36082380D01*
X106328007Y-36130000D01*
X106661340Y-36082380D02*
X106899435Y-37082380D01*
X107089912Y-36368095D01*
X107280388Y-37082380D01*
X107518483Y-36082380D01*
X108232769Y-36558571D02*
X108375626Y-36606190D01*
X108423245Y-36653809D01*
X108470864Y-36749047D01*
X108470864Y-36891904D01*
X108423245Y-36987142D01*
X108375626Y-37034761D01*
X108280388Y-37082380D01*
X107899435Y-37082380D01*
X107899435Y-36082380D01*
X108232769Y-36082380D01*
X108328007Y-36130000D01*
X108375626Y-36177619D01*
X108423245Y-36272857D01*
X108423245Y-36368095D01*
X108375626Y-36463333D01*
X108328007Y-36510952D01*
X108232769Y-36558571D01*
X107899435Y-36558571D01*
X108804197Y-36082380D02*
X109470864Y-36082380D01*
X109042292Y-37082380D01*
%TO.C,M1*%
X181724380Y-104799523D02*
X180724380Y-104799523D01*
X181438666Y-104466190D01*
X180724380Y-104132857D01*
X181724380Y-104132857D01*
X181724380Y-103132857D02*
X181724380Y-103704285D01*
X181724380Y-103418571D02*
X180724380Y-103418571D01*
X180867238Y-103513809D01*
X180962476Y-103609047D01*
X181010095Y-103704285D01*
%TO.C,SW6*%
X179806578Y-73890961D02*
X179949435Y-73938580D01*
X180187531Y-73938580D01*
X180282769Y-73890961D01*
X180330388Y-73843342D01*
X180378007Y-73748104D01*
X180378007Y-73652866D01*
X180330388Y-73557628D01*
X180282769Y-73510009D01*
X180187531Y-73462390D01*
X179997054Y-73414771D01*
X179901816Y-73367152D01*
X179854197Y-73319533D01*
X179806578Y-73224295D01*
X179806578Y-73129057D01*
X179854197Y-73033819D01*
X179901816Y-72986200D01*
X179997054Y-72938580D01*
X180235150Y-72938580D01*
X180378007Y-72986200D01*
X180711340Y-72938580D02*
X180949435Y-73938580D01*
X181139912Y-73224295D01*
X181330388Y-73938580D01*
X181568483Y-72938580D01*
X182378007Y-72938580D02*
X182187531Y-72938580D01*
X182092292Y-72986200D01*
X182044673Y-73033819D01*
X181949435Y-73176676D01*
X181901816Y-73367152D01*
X181901816Y-73748104D01*
X181949435Y-73843342D01*
X181997054Y-73890961D01*
X182092292Y-73938580D01*
X182282769Y-73938580D01*
X182378007Y-73890961D01*
X182425626Y-73843342D01*
X182473245Y-73748104D01*
X182473245Y-73510009D01*
X182425626Y-73414771D01*
X182378007Y-73367152D01*
X182282769Y-73319533D01*
X182092292Y-73319533D01*
X181997054Y-73367152D01*
X181949435Y-73414771D01*
X181901816Y-73510009D01*
%TO.C,SW3*%
X161806578Y-80890711D02*
X161949435Y-80938330D01*
X162187531Y-80938330D01*
X162282769Y-80890711D01*
X162330388Y-80843092D01*
X162378007Y-80747854D01*
X162378007Y-80652616D01*
X162330388Y-80557378D01*
X162282769Y-80509759D01*
X162187531Y-80462140D01*
X161997054Y-80414521D01*
X161901816Y-80366902D01*
X161854197Y-80319283D01*
X161806578Y-80224045D01*
X161806578Y-80128807D01*
X161854197Y-80033569D01*
X161901816Y-79985950D01*
X161997054Y-79938330D01*
X162235150Y-79938330D01*
X162378007Y-79985950D01*
X162711340Y-79938330D02*
X162949435Y-80938330D01*
X163139912Y-80224045D01*
X163330388Y-80938330D01*
X163568483Y-79938330D01*
X163854197Y-79938330D02*
X164473245Y-79938330D01*
X164139912Y-80319283D01*
X164282769Y-80319283D01*
X164378007Y-80366902D01*
X164425626Y-80414521D01*
X164473245Y-80509759D01*
X164473245Y-80747854D01*
X164425626Y-80843092D01*
X164378007Y-80890711D01*
X164282769Y-80938330D01*
X163997054Y-80938330D01*
X163901816Y-80890711D01*
X163854197Y-80843092D01*
%TO.C,SW18*%
X246775914Y-106159153D02*
X246669872Y-106052238D01*
X246457352Y-105944886D01*
X246350873Y-105944450D01*
X246286899Y-105965484D01*
X246201454Y-106029021D01*
X246158513Y-106114030D01*
X246158076Y-106220508D01*
X246179110Y-106284483D01*
X246242648Y-106369927D01*
X246391194Y-106498313D01*
X246454732Y-106583758D01*
X246475765Y-106647732D01*
X246475329Y-106754211D01*
X246432388Y-106839219D01*
X246346943Y-106902757D01*
X246282969Y-106923790D01*
X246176490Y-106923354D01*
X245963970Y-106816002D01*
X245857928Y-106709087D01*
X245538929Y-106601298D02*
X245777286Y-105601361D01*
X245285214Y-106153041D01*
X245437253Y-105429598D01*
X244773855Y-106214832D01*
X244417155Y-104914309D02*
X244927204Y-105171954D01*
X244672180Y-105043131D02*
X244221302Y-105935717D01*
X244370722Y-105851146D01*
X244498670Y-105809078D01*
X244605149Y-105809515D01*
X243649462Y-105166714D02*
X243713000Y-105252159D01*
X243734034Y-105316133D01*
X243733597Y-105422612D01*
X243712127Y-105465116D01*
X243626682Y-105528654D01*
X243562707Y-105549687D01*
X243456229Y-105549251D01*
X243286212Y-105463369D01*
X243222675Y-105377924D01*
X243201641Y-105313950D01*
X243202078Y-105207472D01*
X243223548Y-105164967D01*
X243308993Y-105101430D01*
X243372967Y-105080396D01*
X243479446Y-105080833D01*
X243649462Y-105166714D01*
X243755941Y-105167151D01*
X243819915Y-105146117D01*
X243905360Y-105082579D01*
X243991241Y-104912563D01*
X243991678Y-104806084D01*
X243970644Y-104742110D01*
X243907106Y-104656665D01*
X243737090Y-104570783D01*
X243630611Y-104570347D01*
X243566637Y-104591381D01*
X243481192Y-104654918D01*
X243395311Y-104824935D01*
X243394874Y-104931413D01*
X243415908Y-104995388D01*
X243479446Y-105080833D01*
%TO.C,SW1*%
X161806578Y-46890711D02*
X161949435Y-46938330D01*
X162187531Y-46938330D01*
X162282769Y-46890711D01*
X162330388Y-46843092D01*
X162378007Y-46747854D01*
X162378007Y-46652616D01*
X162330388Y-46557378D01*
X162282769Y-46509759D01*
X162187531Y-46462140D01*
X161997054Y-46414521D01*
X161901816Y-46366902D01*
X161854197Y-46319283D01*
X161806578Y-46224045D01*
X161806578Y-46128807D01*
X161854197Y-46033569D01*
X161901816Y-45985950D01*
X161997054Y-45938330D01*
X162235150Y-45938330D01*
X162378007Y-45985950D01*
X162711340Y-45938330D02*
X162949435Y-46938330D01*
X163139912Y-46224045D01*
X163330388Y-46938330D01*
X163568483Y-45938330D01*
X164473245Y-46938330D02*
X163901816Y-46938330D01*
X164187531Y-46938330D02*
X164187531Y-45938330D01*
X164092292Y-46081188D01*
X163997054Y-46176426D01*
X163901816Y-46224045D01*
%TO.C,SWB5*%
X87756578Y-56890961D02*
X87899435Y-56938580D01*
X88137531Y-56938580D01*
X88232769Y-56890961D01*
X88280388Y-56843342D01*
X88328007Y-56748104D01*
X88328007Y-56652866D01*
X88280388Y-56557628D01*
X88232769Y-56510009D01*
X88137531Y-56462390D01*
X87947054Y-56414771D01*
X87851816Y-56367152D01*
X87804197Y-56319533D01*
X87756578Y-56224295D01*
X87756578Y-56129057D01*
X87804197Y-56033819D01*
X87851816Y-55986200D01*
X87947054Y-55938580D01*
X88185150Y-55938580D01*
X88328007Y-55986200D01*
X88661340Y-55938580D02*
X88899435Y-56938580D01*
X89089912Y-56224295D01*
X89280388Y-56938580D01*
X89518483Y-55938580D01*
X90232769Y-56414771D02*
X90375626Y-56462390D01*
X90423245Y-56510009D01*
X90470864Y-56605247D01*
X90470864Y-56748104D01*
X90423245Y-56843342D01*
X90375626Y-56890961D01*
X90280388Y-56938580D01*
X89899435Y-56938580D01*
X89899435Y-55938580D01*
X90232769Y-55938580D01*
X90328007Y-55986200D01*
X90375626Y-56033819D01*
X90423245Y-56129057D01*
X90423245Y-56224295D01*
X90375626Y-56319533D01*
X90328007Y-56367152D01*
X90232769Y-56414771D01*
X89899435Y-56414771D01*
X91375626Y-55938580D02*
X90899435Y-55938580D01*
X90851816Y-56414771D01*
X90899435Y-56367152D01*
X90994673Y-56319533D01*
X91232769Y-56319533D01*
X91328007Y-56367152D01*
X91375626Y-56414771D01*
X91423245Y-56510009D01*
X91423245Y-56748104D01*
X91375626Y-56843342D01*
X91328007Y-56890961D01*
X91232769Y-56938580D01*
X90994673Y-56938580D01*
X90899435Y-56890961D01*
X90851816Y-56843342D01*
%TO.C,SWB2*%
X69756578Y-59747161D02*
X69899435Y-59794780D01*
X70137531Y-59794780D01*
X70232769Y-59747161D01*
X70280388Y-59699542D01*
X70328007Y-59604304D01*
X70328007Y-59509066D01*
X70280388Y-59413828D01*
X70232769Y-59366209D01*
X70137531Y-59318590D01*
X69947054Y-59270971D01*
X69851816Y-59223352D01*
X69804197Y-59175733D01*
X69756578Y-59080495D01*
X69756578Y-58985257D01*
X69804197Y-58890019D01*
X69851816Y-58842400D01*
X69947054Y-58794780D01*
X70185150Y-58794780D01*
X70328007Y-58842400D01*
X70661340Y-58794780D02*
X70899435Y-59794780D01*
X71089912Y-59080495D01*
X71280388Y-59794780D01*
X71518483Y-58794780D01*
X72232769Y-59270971D02*
X72375626Y-59318590D01*
X72423245Y-59366209D01*
X72470864Y-59461447D01*
X72470864Y-59604304D01*
X72423245Y-59699542D01*
X72375626Y-59747161D01*
X72280388Y-59794780D01*
X71899435Y-59794780D01*
X71899435Y-58794780D01*
X72232769Y-58794780D01*
X72328007Y-58842400D01*
X72375626Y-58890019D01*
X72423245Y-58985257D01*
X72423245Y-59080495D01*
X72375626Y-59175733D01*
X72328007Y-59223352D01*
X72232769Y-59270971D01*
X71899435Y-59270971D01*
X72851816Y-58890019D02*
X72899435Y-58842400D01*
X72994673Y-58794780D01*
X73232769Y-58794780D01*
X73328007Y-58842400D01*
X73375626Y-58890019D01*
X73423245Y-58985257D01*
X73423245Y-59080495D01*
X73375626Y-59223352D01*
X72804197Y-59794780D01*
X73423245Y-59794780D01*
%TO.C,SW5*%
X179806578Y-56890961D02*
X179949435Y-56938580D01*
X180187531Y-56938580D01*
X180282769Y-56890961D01*
X180330388Y-56843342D01*
X180378007Y-56748104D01*
X180378007Y-56652866D01*
X180330388Y-56557628D01*
X180282769Y-56510009D01*
X180187531Y-56462390D01*
X179997054Y-56414771D01*
X179901816Y-56367152D01*
X179854197Y-56319533D01*
X179806578Y-56224295D01*
X179806578Y-56129057D01*
X179854197Y-56033819D01*
X179901816Y-55986200D01*
X179997054Y-55938580D01*
X180235150Y-55938580D01*
X180378007Y-55986200D01*
X180711340Y-55938580D02*
X180949435Y-56938580D01*
X181139912Y-56224295D01*
X181330388Y-56938580D01*
X181568483Y-55938580D01*
X182425626Y-55938580D02*
X181949435Y-55938580D01*
X181901816Y-56414771D01*
X181949435Y-56367152D01*
X182044673Y-56319533D01*
X182282769Y-56319533D01*
X182378007Y-56367152D01*
X182425626Y-56414771D01*
X182473245Y-56510009D01*
X182473245Y-56748104D01*
X182425626Y-56843342D01*
X182378007Y-56890961D01*
X182282769Y-56938580D01*
X182044673Y-56938580D01*
X181949435Y-56890961D01*
X181901816Y-56843342D01*
%TO.C,SW12*%
X215330388Y-73890961D02*
X215473245Y-73938580D01*
X215711340Y-73938580D01*
X215806578Y-73890961D01*
X215854197Y-73843342D01*
X215901816Y-73748104D01*
X215901816Y-73652866D01*
X215854197Y-73557628D01*
X215806578Y-73510009D01*
X215711340Y-73462390D01*
X215520864Y-73414771D01*
X215425626Y-73367152D01*
X215378007Y-73319533D01*
X215330388Y-73224295D01*
X215330388Y-73129057D01*
X215378007Y-73033819D01*
X215425626Y-72986200D01*
X215520864Y-72938580D01*
X215758959Y-72938580D01*
X215901816Y-72986200D01*
X216235150Y-72938580D02*
X216473245Y-73938580D01*
X216663721Y-73224295D01*
X216854197Y-73938580D01*
X217092292Y-72938580D01*
X217997054Y-73938580D02*
X217425626Y-73938580D01*
X217711340Y-73938580D02*
X217711340Y-72938580D01*
X217616102Y-73081438D01*
X217520864Y-73176676D01*
X217425626Y-73224295D01*
X218378007Y-73033819D02*
X218425626Y-72986200D01*
X218520864Y-72938580D01*
X218758959Y-72938580D01*
X218854197Y-72986200D01*
X218901816Y-73033819D01*
X218949435Y-73129057D01*
X218949435Y-73224295D01*
X218901816Y-73367152D01*
X218330388Y-73938580D01*
X218949435Y-73938580D01*
%TO.C,SW17*%
X226254307Y-98208929D02*
X226126375Y-98129500D01*
X225894762Y-98074322D01*
X225791081Y-98098573D01*
X225733722Y-98133860D01*
X225665329Y-98215470D01*
X225643257Y-98308115D01*
X225667509Y-98411796D01*
X225702796Y-98469154D01*
X225784406Y-98537548D01*
X225958661Y-98628013D01*
X226040270Y-98696407D01*
X226075557Y-98753766D01*
X226099809Y-98857446D01*
X226077738Y-98950092D01*
X226009344Y-99031702D01*
X225951985Y-99066989D01*
X225848304Y-99091240D01*
X225616691Y-99036062D01*
X225488759Y-98956632D01*
X225153464Y-98925706D02*
X225153599Y-97897752D01*
X224802774Y-98548449D01*
X224783018Y-97809467D01*
X224319657Y-98727065D01*
X223671274Y-97544612D02*
X224227146Y-97677040D01*
X223949210Y-97610826D02*
X223717462Y-98583602D01*
X223843214Y-98466705D01*
X223957931Y-98396131D01*
X224061612Y-98371879D01*
X223115267Y-98440139D02*
X222466750Y-98285640D01*
X223115402Y-97412185D01*
%TO.C,SW8*%
X197806578Y-54034761D02*
X197949435Y-54082380D01*
X198187531Y-54082380D01*
X198282769Y-54034761D01*
X198330388Y-53987142D01*
X198378007Y-53891904D01*
X198378007Y-53796666D01*
X198330388Y-53701428D01*
X198282769Y-53653809D01*
X198187531Y-53606190D01*
X197997054Y-53558571D01*
X197901816Y-53510952D01*
X197854197Y-53463333D01*
X197806578Y-53368095D01*
X197806578Y-53272857D01*
X197854197Y-53177619D01*
X197901816Y-53130000D01*
X197997054Y-53082380D01*
X198235150Y-53082380D01*
X198378007Y-53130000D01*
X198711340Y-53082380D02*
X198949435Y-54082380D01*
X199139912Y-53368095D01*
X199330388Y-54082380D01*
X199568483Y-53082380D01*
X200092292Y-53510952D02*
X199997054Y-53463333D01*
X199949435Y-53415714D01*
X199901816Y-53320476D01*
X199901816Y-53272857D01*
X199949435Y-53177619D01*
X199997054Y-53130000D01*
X200092292Y-53082380D01*
X200282769Y-53082380D01*
X200378007Y-53130000D01*
X200425626Y-53177619D01*
X200473245Y-53272857D01*
X200473245Y-53320476D01*
X200425626Y-53415714D01*
X200378007Y-53463333D01*
X200282769Y-53510952D01*
X200092292Y-53510952D01*
X199997054Y-53558571D01*
X199949435Y-53606190D01*
X199901816Y-53701428D01*
X199901816Y-53891904D01*
X199949435Y-53987142D01*
X199997054Y-54034761D01*
X200092292Y-54082380D01*
X200282769Y-54082380D01*
X200378007Y-54034761D01*
X200425626Y-53987142D01*
X200473245Y-53891904D01*
X200473245Y-53701428D01*
X200425626Y-53606190D01*
X200378007Y-53558571D01*
X200282769Y-53510952D01*
%TO.C,SWB11*%
X123280388Y-56890961D02*
X123423245Y-56938580D01*
X123661340Y-56938580D01*
X123756578Y-56890961D01*
X123804197Y-56843342D01*
X123851816Y-56748104D01*
X123851816Y-56652866D01*
X123804197Y-56557628D01*
X123756578Y-56510009D01*
X123661340Y-56462390D01*
X123470864Y-56414771D01*
X123375626Y-56367152D01*
X123328007Y-56319533D01*
X123280388Y-56224295D01*
X123280388Y-56129057D01*
X123328007Y-56033819D01*
X123375626Y-55986200D01*
X123470864Y-55938580D01*
X123708959Y-55938580D01*
X123851816Y-55986200D01*
X124185150Y-55938580D02*
X124423245Y-56938580D01*
X124613721Y-56224295D01*
X124804197Y-56938580D01*
X125042292Y-55938580D01*
X125756578Y-56414771D02*
X125899435Y-56462390D01*
X125947054Y-56510009D01*
X125994673Y-56605247D01*
X125994673Y-56748104D01*
X125947054Y-56843342D01*
X125899435Y-56890961D01*
X125804197Y-56938580D01*
X125423245Y-56938580D01*
X125423245Y-55938580D01*
X125756578Y-55938580D01*
X125851816Y-55986200D01*
X125899435Y-56033819D01*
X125947054Y-56129057D01*
X125947054Y-56224295D01*
X125899435Y-56319533D01*
X125851816Y-56367152D01*
X125756578Y-56414771D01*
X125423245Y-56414771D01*
X126947054Y-56938580D02*
X126375626Y-56938580D01*
X126661340Y-56938580D02*
X126661340Y-55938580D01*
X126566102Y-56081438D01*
X126470864Y-56176676D01*
X126375626Y-56224295D01*
X127899435Y-56938580D02*
X127328007Y-56938580D01*
X127613721Y-56938580D02*
X127613721Y-55938580D01*
X127518483Y-56081438D01*
X127423245Y-56176676D01*
X127328007Y-56224295D01*
D11*
%TO.C,SWB4*%
X97189912Y-40886200D02*
X81989912Y-40886200D01*
X97189912Y-56086200D02*
X97189912Y-40886200D01*
X81989912Y-40886200D02*
X81989912Y-56086200D01*
X81989912Y-56086200D02*
X97189912Y-56086200D01*
%TO.C,M2*%
X112757825Y-111610000D02*
X112757825Y-96370000D01*
X133839825Y-96370000D02*
X133839825Y-111610000D01*
X114027825Y-95100000D02*
X132569825Y-95100000D01*
X132569825Y-112880000D02*
X114027825Y-112880000D01*
X133839825Y-99490000D02*
X135363825Y-99490000D01*
X135363825Y-99490000D02*
X135363825Y-108490000D01*
X135363825Y-108490000D02*
X133839825Y-108490000D01*
X133839825Y-108490000D02*
X133839825Y-99490000D01*
X112757825Y-111610000D02*
G75*
G03*
X114027825Y-112880000I1269999J-1D01*
G01*
X133839825Y-96370000D02*
G75*
G03*
X132569825Y-95100000I-1269999J1D01*
G01*
X132569825Y-112880000D02*
G75*
G03*
X133839825Y-111610000I1J1269999D01*
G01*
X114027825Y-95100000D02*
G75*
G03*
X112757825Y-96370000I-1J-1269999D01*
G01*
%TO.C,SW10*%
X209539912Y-56086200D02*
X224739912Y-56086200D01*
X209539912Y-40886200D02*
X209539912Y-56086200D01*
X224739912Y-40886200D02*
X209539912Y-40886200D01*
X224739912Y-56086200D02*
X224739912Y-40886200D01*
D10*
%TO.C,J2*%
X56439946Y-67948600D02*
X56439946Y-80048600D01*
X62289946Y-67948600D02*
X62289946Y-65948600D01*
X62539946Y-67948600D02*
X56439946Y-67948600D01*
X62539946Y-67948600D02*
X62539946Y-80048600D01*
X62289946Y-65948600D02*
X56689946Y-65948600D01*
X62539946Y-80048600D02*
X56439946Y-80048600D01*
X56689946Y-67948600D02*
X56689946Y-65948600D01*
D11*
%TO.C,SWB8*%
X99989912Y-70230000D02*
X115189912Y-70230000D01*
X99989912Y-55030000D02*
X99989912Y-70230000D01*
X115189912Y-55030000D02*
X99989912Y-55030000D01*
X115189912Y-70230000D02*
X115189912Y-55030000D01*
%TO.C,SWB12*%
X117989912Y-90086200D02*
X133189912Y-90086200D01*
X133189912Y-90086200D02*
X133189912Y-74886200D01*
X117989912Y-74886200D02*
X117989912Y-90086200D01*
X133189912Y-74886200D02*
X117989912Y-74886200D01*
%TO.C,SW16*%
X210240087Y-112230000D02*
X210240087Y-97030000D01*
X195040087Y-112230000D02*
X210240087Y-112230000D01*
X195040087Y-97030000D02*
X195040087Y-112230000D01*
X210240087Y-97030000D02*
X195040087Y-97030000D01*
%TO.C,SW11*%
X224739912Y-57886200D02*
X209539912Y-57886200D01*
X209539912Y-57886200D02*
X209539912Y-73086200D01*
X209539912Y-73086200D02*
X224739912Y-73086200D01*
X224739912Y-73086200D02*
X224739912Y-57886200D01*
%TO.C,SWB13*%
X135989912Y-63085950D02*
X151189912Y-63085950D01*
X151189912Y-47885950D02*
X135989912Y-47885950D01*
X151189912Y-63085950D02*
X151189912Y-47885950D01*
X135989912Y-47885950D02*
X135989912Y-63085950D01*
%TO.C,SWB18*%
X111689737Y-97030000D02*
X96489737Y-97030000D01*
X96489737Y-112230000D02*
X111689737Y-112230000D01*
X111689737Y-112230000D02*
X111689737Y-97030000D01*
X96489737Y-97030000D02*
X96489737Y-112230000D01*
%TO.C,SWB14*%
X135989912Y-64885950D02*
X135989912Y-80085950D01*
X135989912Y-80085950D02*
X151189912Y-80085950D01*
X151189912Y-80085950D02*
X151189912Y-64885950D01*
X151189912Y-64885950D02*
X135989912Y-64885950D01*
%TO.C,SW15*%
X242739912Y-77742400D02*
X227539912Y-77742400D01*
X242739912Y-92942400D02*
X242739912Y-77742400D01*
X227539912Y-92942400D02*
X242739912Y-92942400D01*
X227539912Y-77742400D02*
X227539912Y-92942400D01*
%TO.C,SW2*%
X170739912Y-80085950D02*
X170739912Y-64885950D01*
X155539912Y-64885950D02*
X155539912Y-80085950D01*
X155539912Y-80085950D02*
X170739912Y-80085950D01*
X170739912Y-64885950D02*
X155539912Y-64885950D01*
%TO.C,SWB10*%
X117989912Y-56086200D02*
X133189912Y-56086200D01*
X117989912Y-40886200D02*
X117989912Y-56086200D01*
X133189912Y-56086200D02*
X133189912Y-40886200D01*
X133189912Y-40886200D02*
X117989912Y-40886200D01*
%TO.C,SW4*%
X188739912Y-56086200D02*
X188739912Y-40886200D01*
X173539912Y-56086200D02*
X188739912Y-56086200D01*
X188739912Y-40886200D02*
X173539912Y-40886200D01*
X173539912Y-40886200D02*
X173539912Y-56086200D01*
%TO.C,SW14*%
X242739912Y-60742400D02*
X227539912Y-60742400D01*
X242739912Y-75942400D02*
X242739912Y-60742400D01*
X227539912Y-60742400D02*
X227539912Y-75942400D01*
X227539912Y-75942400D02*
X242739912Y-75942400D01*
%TO.C,SWB17*%
X90047124Y-97783921D02*
X75260930Y-101306489D01*
X75260930Y-101306489D02*
X78783498Y-116092683D01*
X93569692Y-112570115D02*
X90047124Y-97783921D01*
X78783498Y-116092683D02*
X93569692Y-112570115D01*
%TO.C,SWB1*%
X79189912Y-58942400D02*
X79189912Y-43742400D01*
X63989912Y-43742400D02*
X63989912Y-58942400D01*
X63989912Y-58942400D02*
X79189912Y-58942400D01*
X79189912Y-43742400D02*
X63989912Y-43742400D01*
%TO.C,SW13*%
X227539912Y-43742400D02*
X227539912Y-58942400D01*
X227539912Y-58942400D02*
X242739912Y-58942400D01*
X242739912Y-58942400D02*
X242739912Y-43742400D01*
X242739912Y-43742400D02*
X227539912Y-43742400D01*
%TO.C,SWB16*%
X69166444Y-103527515D02*
X55599139Y-110380854D01*
X55599139Y-110380854D02*
X62452478Y-123948159D01*
X62452478Y-123948159D02*
X76019783Y-117094820D01*
X76019783Y-117094820D02*
X69166444Y-103527515D01*
%TO.C,SW7*%
X206739912Y-38030000D02*
X191539912Y-38030000D01*
X191539912Y-38030000D02*
X191539912Y-53230000D01*
X206739912Y-53230000D02*
X206739912Y-38030000D01*
X191539912Y-53230000D02*
X206739912Y-53230000D01*
%TO.C,SWB3*%
X63989912Y-77742400D02*
X63989912Y-92942400D01*
X79189912Y-77742400D02*
X63989912Y-77742400D01*
X63989912Y-92942400D02*
X79189912Y-92942400D01*
X79189912Y-92942400D02*
X79189912Y-77742400D01*
%TO.C,SW9*%
X206739912Y-72030000D02*
X191539912Y-72030000D01*
X206739912Y-87230000D02*
X206739912Y-72030000D01*
X191539912Y-72030000D02*
X191539912Y-87230000D01*
X191539912Y-87230000D02*
X206739912Y-87230000D01*
%TO.C,SWB15*%
X151189912Y-81885950D02*
X135989912Y-81885950D01*
X135989912Y-81885950D02*
X135989912Y-97085950D01*
X135989912Y-97085950D02*
X151189912Y-97085950D01*
X151189912Y-97085950D02*
X151189912Y-81885950D01*
%TO.C,SWB9*%
X99989912Y-72030000D02*
X99989912Y-87230000D01*
X115189912Y-72030000D02*
X99989912Y-72030000D01*
X115189912Y-87230000D02*
X115189912Y-72030000D01*
X99989912Y-87230000D02*
X115189912Y-87230000D01*
%TO.C,SWB6*%
X81989912Y-74886200D02*
X81989912Y-90086200D01*
X81989912Y-90086200D02*
X97189912Y-90086200D01*
X97189912Y-74886200D02*
X81989912Y-74886200D01*
X97189912Y-90086200D02*
X97189912Y-74886200D01*
%TO.C,SWB7*%
X99989912Y-38030000D02*
X99989912Y-53230000D01*
X99989912Y-53230000D02*
X115189912Y-53230000D01*
X115189912Y-53230000D02*
X115189912Y-38030000D01*
X115189912Y-38030000D02*
X99989912Y-38030000D01*
%TO.C,M1*%
X172890000Y-111610000D02*
X172890000Y-96370000D01*
X193972000Y-96370000D02*
X193972000Y-111610000D01*
X192702000Y-112880000D02*
X174160000Y-112880000D01*
X174160000Y-95100000D02*
X192702000Y-95100000D01*
X172890000Y-108490000D02*
X171366000Y-108490000D01*
X171366000Y-108490000D02*
X171366000Y-99490000D01*
X171366000Y-99490000D02*
X172890000Y-99490000D01*
X172890000Y-99490000D02*
X172890000Y-108490000D01*
X192702000Y-112880000D02*
G75*
G03*
X193972000Y-111610000I0J1270000D01*
G01*
X174160000Y-95100000D02*
G75*
G03*
X172890000Y-96370000I0J-1270000D01*
G01*
X193972000Y-96370000D02*
G75*
G03*
X192702000Y-95100000I-1270000J0D01*
G01*
X172890000Y-111610000D02*
G75*
G03*
X174160000Y-112880000I1270000J0D01*
G01*
%TO.C,SW6*%
X173539912Y-74886200D02*
X173539912Y-90086200D01*
X188739912Y-90086200D02*
X188739912Y-74886200D01*
X188739912Y-74886200D02*
X173539912Y-74886200D01*
X173539912Y-90086200D02*
X188739912Y-90086200D01*
%TO.C,SW3*%
X155539912Y-81885950D02*
X155539912Y-97085950D01*
X170739912Y-81885950D02*
X155539912Y-81885950D01*
X170739912Y-97085950D02*
X170739912Y-81885950D01*
X155539912Y-97085950D02*
X170739912Y-97085950D01*
D10*
%TO.C,J1*%
X250289946Y-67848600D02*
X250289946Y-79948600D01*
X250039946Y-65848600D02*
X244439946Y-65848600D01*
X250039946Y-67848600D02*
X250039946Y-65848600D01*
X250289946Y-67848600D02*
X244189946Y-67848600D01*
X244439946Y-67848600D02*
X244439946Y-65848600D01*
X244189946Y-67848600D02*
X244189946Y-79948600D01*
X250289946Y-79948600D02*
X244189946Y-79948600D01*
D11*
%TO.C,SW18*%
X244277346Y-123948159D02*
X251130685Y-110380854D01*
X237563380Y-103527515D02*
X230710041Y-117094820D01*
X251130685Y-110380854D02*
X237563380Y-103527515D01*
X230710041Y-117094820D02*
X244277346Y-123948159D01*
%TO.C,SW1*%
X155539912Y-63085950D02*
X170739912Y-63085950D01*
X170739912Y-47885950D02*
X155539912Y-47885950D01*
X170739912Y-63085950D02*
X170739912Y-47885950D01*
X155539912Y-47885950D02*
X155539912Y-63085950D01*
%TO.C,SWB5*%
X81989912Y-57886200D02*
X81989912Y-73086200D01*
X81989912Y-73086200D02*
X97189912Y-73086200D01*
X97189912Y-73086200D02*
X97189912Y-57886200D01*
X97189912Y-57886200D02*
X81989912Y-57886200D01*
%TO.C,SWB2*%
X79189912Y-60742400D02*
X63989912Y-60742400D01*
X63989912Y-60742400D02*
X63989912Y-75942400D01*
X63989912Y-75942400D02*
X79189912Y-75942400D01*
X79189912Y-75942400D02*
X79189912Y-60742400D01*
%TO.C,SW5*%
X188739912Y-73086200D02*
X188739912Y-57886200D01*
X173539912Y-57886200D02*
X173539912Y-73086200D01*
X188739912Y-57886200D02*
X173539912Y-57886200D01*
X173539912Y-73086200D02*
X188739912Y-73086200D01*
%TO.C,SW12*%
X209539912Y-90086200D02*
X224739912Y-90086200D01*
X209539912Y-74886200D02*
X209539912Y-90086200D01*
X224739912Y-90086200D02*
X224739912Y-74886200D01*
X224739912Y-74886200D02*
X209539912Y-74886200D01*
%TO.C,SW17*%
X231468894Y-101306489D02*
X216682700Y-97783921D01*
X227946326Y-116092683D02*
X231468894Y-101306489D01*
X213160132Y-112570115D02*
X227946326Y-116092683D01*
X216682700Y-97783921D02*
X213160132Y-112570115D01*
%TO.C,SW8*%
X191539912Y-70230000D02*
X206739912Y-70230000D01*
X206739912Y-55030000D02*
X191539912Y-55030000D01*
X206739912Y-70230000D02*
X206739912Y-55030000D01*
X191539912Y-55030000D02*
X191539912Y-70230000D01*
%TO.C,SWB11*%
X133189912Y-73086200D02*
X133189912Y-57886200D01*
X117989912Y-57886200D02*
X117989912Y-73086200D01*
X133189912Y-57886200D02*
X117989912Y-57886200D01*
X117989912Y-73086200D02*
X133189912Y-73086200D01*
%TD*%
M02*
