%TF.GenerationSoftware,KiCad,Pcbnew,(6.0.6)*%
%TF.CreationDate,2022-09-25T18:06:26-06:00*%
%TF.ProjectId,miniErgo,6d696e69-4572-4676-9f2e-6b696361645f,rev?*%
%TF.SameCoordinates,Original*%
%TF.FileFunction,Legend,Bot*%
%TF.FilePolarity,Positive*%
%FSLAX46Y46*%
G04 Gerber Fmt 4.6, Leading zero omitted, Abs format (unit mm)*
G04 Created by KiCad (PCBNEW (6.0.6)) date 2022-09-25 18:06:26*
%MOMM*%
%LPD*%
G01*
G04 APERTURE LIST*
%ADD10C,0.150000*%
%ADD11C,0.120000*%
G04 APERTURE END LIST*
D10*
%TO.C,M1*%
X127268204Y-116786676D02*
X126268204Y-116786676D01*
X126982490Y-117120009D01*
X126268204Y-117453342D01*
X127268204Y-117453342D01*
X127268204Y-118453342D02*
X127268204Y-117881914D01*
X127268204Y-118167628D02*
X126268204Y-118167628D01*
X126411062Y-118072390D01*
X126506300Y-117977152D01*
X126553919Y-117881914D01*
D11*
X122282324Y-108706200D02*
X122893324Y-108706200D01*
X132448824Y-108706200D02*
X133059824Y-108706200D01*
X135004324Y-108706200D02*
X135615324Y-108706200D01*
X124782324Y-108706200D02*
X125393324Y-108706200D01*
X119684324Y-108706200D02*
X120525324Y-108706200D01*
X129893324Y-108706200D02*
X130504324Y-108706200D01*
X127337824Y-108706200D02*
X127948824Y-108706200D01*
X137365324Y-108706200D02*
X138245824Y-108706200D01*
X122301824Y-126486200D02*
X122912824Y-126486200D01*
X132468324Y-126486200D02*
X133079324Y-126486200D01*
X118433824Y-109976200D02*
X118433824Y-125216200D01*
X139515824Y-125216200D02*
X139515824Y-109976200D01*
X137384824Y-126486200D02*
X138245824Y-126486200D01*
X118433824Y-113096200D02*
X116909824Y-113096200D01*
X116909824Y-113096200D02*
X116909824Y-122096200D01*
X116909824Y-122096200D02*
X118433824Y-122096200D01*
X118433824Y-122096200D02*
X118433824Y-113096200D01*
X119703824Y-108706200D02*
G75*
G03*
X118433824Y-109976200I-1J-1269999D01*
G01*
X118433824Y-125216200D02*
G75*
G03*
X119703824Y-126486200I1269999J-1D01*
G01*
X139515824Y-109976200D02*
G75*
G03*
X138245824Y-108706200I-1269999J1D01*
G01*
X138245824Y-126486200D02*
G75*
G03*
X139515824Y-125216200I1J1269999D01*
G01*
X135023824Y-126486200D02*
X135634824Y-126486200D01*
X129912824Y-126486200D02*
X130523824Y-126486200D01*
X127357324Y-126486200D02*
X127968324Y-126486200D01*
X124801824Y-126486200D02*
X125412824Y-126486200D01*
X119703824Y-126486200D02*
X120544824Y-126486200D01*
D10*
%TO.C,D7*%
X150183736Y-62826400D02*
X150183736Y-62445400D01*
X150564736Y-62826400D02*
X149802736Y-62826400D01*
X150183736Y-63842400D02*
X150183736Y-63461400D01*
X150183736Y-63461400D02*
X150564736Y-62826400D01*
X150691736Y-63461400D02*
X149675736Y-63461400D01*
X149802736Y-62826400D02*
X150183736Y-63461400D01*
X151083736Y-64943900D02*
X151083736Y-61403900D01*
X149283736Y-64943900D02*
X149283736Y-61403900D01*
%TO.C,D12*%
X168183736Y-99576400D02*
X168183736Y-99195400D01*
X168564736Y-99576400D02*
X167802736Y-99576400D01*
X168183736Y-100592400D02*
X168183736Y-100211400D01*
X168691736Y-100211400D02*
X167675736Y-100211400D01*
X167283736Y-101693900D02*
X167283736Y-98153900D01*
X168183736Y-100211400D02*
X168564736Y-99576400D01*
X169083736Y-101693900D02*
X169083736Y-98153900D01*
X167802736Y-99576400D02*
X168183736Y-100211400D01*
%TO.C,D15*%
X185733770Y-104406300D02*
X185733770Y-100866300D01*
X183933770Y-104406300D02*
X183933770Y-100866300D01*
X185214770Y-102288800D02*
X184452770Y-102288800D01*
X184833770Y-102923800D02*
X185214770Y-102288800D01*
X184833770Y-103304800D02*
X184833770Y-102923800D01*
X184452770Y-102288800D02*
X184833770Y-102923800D01*
X184833770Y-102288800D02*
X184833770Y-101907800D01*
X185341770Y-102923800D02*
X184325770Y-102923800D01*
%TO.C,D10*%
X167283736Y-67943900D02*
X167283736Y-64403900D01*
X169083736Y-67943900D02*
X169083736Y-64403900D01*
X168183736Y-66842400D02*
X168183736Y-66461400D01*
X167802736Y-65826400D02*
X168183736Y-66461400D01*
X168183736Y-65826400D02*
X168183736Y-65445400D01*
X168183736Y-66461400D02*
X168564736Y-65826400D01*
X168691736Y-66461400D02*
X167675736Y-66461400D01*
X168564736Y-65826400D02*
X167802736Y-65826400D01*
%TO.C,J2*%
X189733770Y-93554800D02*
X195833770Y-93554800D01*
X195583770Y-81454800D02*
X195583770Y-79454800D01*
X189733770Y-81454800D02*
X189733770Y-93554800D01*
X189983770Y-79454800D02*
X195583770Y-79454800D01*
X189733770Y-81454800D02*
X195833770Y-81454800D01*
X189983770Y-81454800D02*
X189983770Y-79454800D01*
X195833770Y-81454800D02*
X195833770Y-93554800D01*
%TO.C,D5*%
X132691736Y-83211400D02*
X131675736Y-83211400D01*
X131802736Y-82576400D02*
X132183736Y-83211400D01*
X132183736Y-82576400D02*
X132183736Y-82195400D01*
X132183736Y-83211400D02*
X132564736Y-82576400D01*
X133083736Y-84693900D02*
X133083736Y-81153900D01*
X131283736Y-84693900D02*
X131283736Y-81153900D01*
X132183736Y-83592400D02*
X132183736Y-83211400D01*
X132564736Y-82576400D02*
X131802736Y-82576400D01*
%TO.C,D18*%
X190099674Y-133704367D02*
X189192807Y-133246275D01*
X188174487Y-134392789D02*
X189770594Y-131233036D01*
X189474456Y-133815396D02*
X189646241Y-133475321D01*
X189592473Y-132736744D02*
X189646241Y-133475321D01*
X189781142Y-135204369D02*
X191377248Y-132044615D01*
X189932548Y-132908529D02*
X190104332Y-132568454D01*
X189646241Y-133475321D02*
X190272623Y-133080313D01*
X190272623Y-133080313D02*
X189592473Y-132736744D01*
%TO.C,D1*%
X114314736Y-72826400D02*
X113552736Y-72826400D01*
X113552736Y-72826400D02*
X113933736Y-73461400D01*
X113933736Y-72826400D02*
X113933736Y-72445400D01*
X113933736Y-73842400D02*
X113933736Y-73461400D01*
X113033736Y-74943900D02*
X113033736Y-71403900D01*
X114833736Y-74943900D02*
X114833736Y-71403900D01*
X113933736Y-73461400D02*
X114314736Y-72826400D01*
X114441736Y-73461400D02*
X113425736Y-73461400D01*
%TO.C,D17*%
X172383480Y-125273629D02*
X172471776Y-124903001D01*
X172148024Y-126261969D02*
X172236320Y-125891341D01*
X172754108Y-125361925D02*
X172012852Y-125185333D01*
X171017255Y-127124908D02*
X171837643Y-123681282D01*
X172768252Y-127542055D02*
X173588640Y-124098428D01*
X172012852Y-125185333D02*
X172236320Y-125891341D01*
X172730490Y-126009069D02*
X171742150Y-125773613D01*
X172236320Y-125891341D02*
X172754108Y-125361925D01*
%TO.C,D6*%
X132183736Y-100592400D02*
X132183736Y-100211400D01*
X131283736Y-101693900D02*
X131283736Y-98153900D01*
X132183736Y-99576400D02*
X132183736Y-99195400D01*
X132183736Y-100211400D02*
X132564736Y-99576400D01*
X133083736Y-101693900D02*
X133083736Y-98153900D01*
X131802736Y-99576400D02*
X132183736Y-100211400D01*
X132564736Y-99576400D02*
X131802736Y-99576400D01*
X132691736Y-100211400D02*
X131675736Y-100211400D01*
%TO.C,D16*%
X153683911Y-122736200D02*
X153683911Y-122355200D01*
X153302911Y-121720200D02*
X153683911Y-122355200D01*
X154064911Y-121720200D02*
X153302911Y-121720200D01*
X152783911Y-123837700D02*
X152783911Y-120297700D01*
X154583911Y-123837700D02*
X154583911Y-120297700D01*
X153683911Y-122355200D02*
X154064911Y-121720200D01*
X154191911Y-122355200D02*
X153175911Y-122355200D01*
X153683911Y-121720200D02*
X153683911Y-121339200D01*
%TO.C,D3*%
X115083736Y-108693650D02*
X115083736Y-105153650D01*
X114183736Y-107592150D02*
X114183736Y-107211150D01*
X113802736Y-106576150D02*
X114183736Y-107211150D01*
X114183736Y-107211150D02*
X114564736Y-106576150D01*
X114183736Y-106576150D02*
X114183736Y-106195150D01*
X113283736Y-108693650D02*
X113283736Y-105153650D01*
X114691736Y-107211150D02*
X113675736Y-107211150D01*
X114564736Y-106576150D02*
X113802736Y-106576150D01*
%TO.C,D11*%
X168183736Y-83211400D02*
X168564736Y-82576400D01*
X168183736Y-82576400D02*
X168183736Y-82195400D01*
X168691736Y-83211400D02*
X167675736Y-83211400D01*
X168183736Y-83592400D02*
X168183736Y-83211400D01*
X169083736Y-84693900D02*
X169083736Y-81153900D01*
X168564736Y-82576400D02*
X167802736Y-82576400D01*
X167283736Y-84693900D02*
X167283736Y-81153900D01*
X167802736Y-82576400D02*
X168183736Y-83211400D01*
%TO.C,D8*%
X150183736Y-79720200D02*
X150183736Y-79339200D01*
X149802736Y-79720200D02*
X150183736Y-80355200D01*
X149283736Y-81837700D02*
X149283736Y-78297700D01*
X151083736Y-81837700D02*
X151083736Y-78297700D01*
X150183736Y-80736200D02*
X150183736Y-80355200D01*
X150183736Y-80355200D02*
X150564736Y-79720200D01*
X150691736Y-80355200D02*
X149675736Y-80355200D01*
X150564736Y-79720200D02*
X149802736Y-79720200D01*
%TO.C,D2*%
X114691736Y-90211150D02*
X113675736Y-90211150D01*
X113802736Y-89576150D02*
X114183736Y-90211150D01*
X114183736Y-90592150D02*
X114183736Y-90211150D01*
X114183736Y-90211150D02*
X114564736Y-89576150D01*
X114183736Y-89576150D02*
X114183736Y-89195150D01*
X115083736Y-91693650D02*
X115083736Y-88153650D01*
X114564736Y-89576150D02*
X113802736Y-89576150D01*
X113283736Y-91693650D02*
X113283736Y-88153650D01*
%TO.C,D9*%
X150183736Y-96720200D02*
X150183736Y-96339200D01*
X150564736Y-96720200D02*
X149802736Y-96720200D01*
X149283736Y-98837700D02*
X149283736Y-95297700D01*
X150183736Y-97355200D02*
X150564736Y-96720200D01*
X150183736Y-97736200D02*
X150183736Y-97355200D01*
X150691736Y-97355200D02*
X149675736Y-97355200D01*
X151083736Y-98837700D02*
X151083736Y-95297700D01*
X149802736Y-96720200D02*
X150183736Y-97355200D01*
%TO.C,D14*%
X185802736Y-85432600D02*
X186183736Y-86067600D01*
X186183736Y-85432600D02*
X186183736Y-85051600D01*
X186691736Y-86067600D02*
X185675736Y-86067600D01*
X186183736Y-86448600D02*
X186183736Y-86067600D01*
X185283736Y-87550100D02*
X185283736Y-84010100D01*
X186183736Y-86067600D02*
X186564736Y-85432600D01*
X187083736Y-87550100D02*
X187083736Y-84010100D01*
X186564736Y-85432600D02*
X185802736Y-85432600D01*
%TO.C,D13*%
X187083736Y-70693900D02*
X187083736Y-67153900D01*
X186183736Y-68576400D02*
X186183736Y-68195400D01*
X186183736Y-69592400D02*
X186183736Y-69211400D01*
X186691736Y-69211400D02*
X185675736Y-69211400D01*
X186183736Y-69211400D02*
X186564736Y-68576400D01*
X186564736Y-68576400D02*
X185802736Y-68576400D01*
X185283736Y-70693900D02*
X185283736Y-67153900D01*
X185802736Y-68576400D02*
X186183736Y-69211400D01*
%TO.C,D4*%
X132183736Y-66211400D02*
X132564736Y-65576400D01*
X131802736Y-65576400D02*
X132183736Y-66211400D01*
X132564736Y-65576400D02*
X131802736Y-65576400D01*
X132183736Y-65576400D02*
X132183736Y-65195400D01*
X132691736Y-66211400D02*
X131675736Y-66211400D01*
X132183736Y-66592400D02*
X132183736Y-66211400D01*
X131283736Y-67693900D02*
X131283736Y-64153900D01*
X133083736Y-67693900D02*
X133083736Y-64153900D01*
D11*
%TO.C,SW8*%
X147927736Y-70003200D02*
X148365736Y-70090200D01*
X151492736Y-70155200D02*
X151775736Y-70344200D01*
X146696736Y-68199200D02*
X147229736Y-68732200D01*
X147560736Y-69759200D02*
X147927736Y-70003200D01*
X147933736Y-74823200D02*
X147659736Y-74653200D01*
X147230736Y-73539200D02*
X146892736Y-73086200D01*
X147229736Y-68954200D02*
X147316736Y-69392200D01*
X143204736Y-72682200D02*
X142183736Y-71661200D01*
X145951736Y-67890200D02*
X146354736Y-67970200D01*
X147466736Y-74395200D02*
X147384736Y-74097200D01*
X147384736Y-74097200D02*
X147230736Y-73539200D01*
X151966736Y-73940200D02*
X152329736Y-73940200D01*
X145851736Y-72682200D02*
X143204736Y-72682200D01*
X151165736Y-70090200D02*
X151492736Y-70155200D01*
X151964736Y-70627200D02*
X152049736Y-71054200D01*
X148365736Y-70090200D02*
X151165736Y-70090200D01*
X146892736Y-73086200D02*
X146413736Y-72787200D01*
X146413736Y-72787200D02*
X145851736Y-72682200D01*
X148243736Y-74882200D02*
X147933736Y-74823200D01*
X147659736Y-74653200D02*
X147466736Y-74395200D01*
X147316736Y-69392200D02*
X147560736Y-69759200D01*
X151775736Y-70344200D02*
X151964736Y-70627200D01*
X146354736Y-67970200D02*
X146696736Y-68199200D01*
X152329736Y-74882200D02*
X148243736Y-74882200D01*
X142267736Y-68827200D02*
X143204736Y-67890200D01*
X143204736Y-67890200D02*
X145951736Y-67890200D01*
X152329736Y-73940200D02*
X152329736Y-74882200D01*
X147229736Y-68732200D02*
X147229736Y-68954200D01*
%TO.C,SW17*%
X167225131Y-112777303D02*
X168353769Y-112082959D01*
X172005739Y-114497016D02*
X172158044Y-114910571D01*
X171025985Y-112719571D02*
X171399474Y-112890787D01*
X171347318Y-119923150D02*
X171120175Y-119694280D01*
X175588193Y-116068011D02*
X175891227Y-116207023D01*
X167243234Y-116744501D02*
X166486644Y-115514683D01*
X170340538Y-117590322D02*
X169818171Y-117357938D01*
X172074061Y-113834822D02*
X172022613Y-114050778D01*
X172458507Y-115232980D02*
X172864420Y-115419117D01*
X170992220Y-119398576D02*
X170981513Y-119089685D01*
X170961021Y-118511187D02*
X170737205Y-117992189D01*
X171399474Y-112890787D02*
X171679093Y-113192811D01*
X175475157Y-119998829D02*
X175828275Y-120082953D01*
X172158044Y-114910571D02*
X172458507Y-115232980D01*
X170981513Y-119089685D02*
X170961021Y-118511187D01*
X172022613Y-114050778D02*
X172005739Y-114497016D01*
X172864420Y-115419117D02*
X175588193Y-116068011D01*
X168353769Y-112082959D02*
X171025985Y-112719571D01*
X175891227Y-116207023D02*
X176122722Y-116456463D01*
X171120175Y-119694280D02*
X170992220Y-119398576D01*
X175609968Y-120999308D02*
X171635206Y-120052386D01*
X171635206Y-120052386D02*
X171347318Y-119923150D01*
X171679093Y-113192811D02*
X172074061Y-113834822D01*
X176240992Y-116775559D02*
X176224722Y-117210632D01*
X169818171Y-117357938D02*
X167243234Y-116744501D01*
X175828275Y-120082953D02*
X175609968Y-120999308D01*
X170737205Y-117992189D02*
X170340538Y-117590322D01*
X176122722Y-116456463D02*
X176240992Y-116775559D01*
%TO.C,SW12*%
X165230736Y-93395400D02*
X164892736Y-92942400D01*
X164413736Y-92643400D02*
X163851736Y-92538400D01*
X165384736Y-93953400D02*
X165230736Y-93395400D01*
X163851736Y-92538400D02*
X161204736Y-92538400D01*
X169165736Y-89946400D02*
X169492736Y-90011400D01*
X170329736Y-94738400D02*
X166243736Y-94738400D01*
X165560736Y-89615400D02*
X165927736Y-89859400D01*
X164892736Y-92942400D02*
X164413736Y-92643400D01*
X165229736Y-88810400D02*
X165316736Y-89248400D01*
X165933736Y-94679400D02*
X165659736Y-94509400D01*
X165927736Y-89859400D02*
X166365736Y-89946400D01*
X170329736Y-93796400D02*
X170329736Y-94738400D01*
X164354736Y-87826400D02*
X164696736Y-88055400D01*
X166365736Y-89946400D02*
X169165736Y-89946400D01*
X169964736Y-90483400D02*
X170049736Y-90910400D01*
X165659736Y-94509400D02*
X165466736Y-94251400D01*
X163951736Y-87746400D02*
X164354736Y-87826400D01*
X169966736Y-93796400D02*
X170329736Y-93796400D01*
X166243736Y-94738400D02*
X165933736Y-94679400D01*
X161204736Y-87746400D02*
X163951736Y-87746400D01*
X165466736Y-94251400D02*
X165384736Y-93953400D01*
X165316736Y-89248400D02*
X165560736Y-89615400D01*
X161204736Y-92538400D02*
X160183736Y-91517400D01*
X160267736Y-88683400D02*
X161204736Y-87746400D01*
X164696736Y-88055400D02*
X165229736Y-88588400D01*
X169492736Y-90011400D02*
X169775736Y-90200400D01*
X165229736Y-88588400D02*
X165229736Y-88810400D01*
X169775736Y-90200400D02*
X169964736Y-90483400D01*
%TO.C,SW5*%
X129230736Y-76395400D02*
X128892736Y-75942400D01*
X129466736Y-77251400D02*
X129384736Y-76953400D01*
X134329736Y-77738400D02*
X130243736Y-77738400D01*
X128413736Y-75643400D02*
X127851736Y-75538400D01*
X130365736Y-72946400D02*
X133165736Y-72946400D01*
X128354736Y-70826400D02*
X128696736Y-71055400D01*
X129229736Y-71588400D02*
X129229736Y-71810400D01*
X129316736Y-72248400D02*
X129560736Y-72615400D01*
X130243736Y-77738400D02*
X129933736Y-77679400D01*
X125204736Y-70746400D02*
X127951736Y-70746400D01*
X129229736Y-71810400D02*
X129316736Y-72248400D01*
X124267736Y-71683400D02*
X125204736Y-70746400D01*
X127851736Y-75538400D02*
X125204736Y-75538400D01*
X127951736Y-70746400D02*
X128354736Y-70826400D01*
X133775736Y-73200400D02*
X133964736Y-73483400D01*
X133492736Y-73011400D02*
X133775736Y-73200400D01*
X125204736Y-75538400D02*
X124183736Y-74517400D01*
X134329736Y-76796400D02*
X134329736Y-77738400D01*
X133165736Y-72946400D02*
X133492736Y-73011400D01*
X133964736Y-73483400D02*
X134049736Y-73910400D01*
X129933736Y-77679400D02*
X129659736Y-77509400D01*
X128892736Y-75942400D02*
X128413736Y-75643400D01*
X129560736Y-72615400D02*
X129927736Y-72859400D01*
X129384736Y-76953400D02*
X129230736Y-76395400D01*
X128696736Y-71055400D02*
X129229736Y-71588400D01*
X129927736Y-72859400D02*
X130365736Y-72946400D01*
X129659736Y-77509400D02*
X129466736Y-77251400D01*
X133966736Y-76796400D02*
X134329736Y-76796400D01*
%TO.C,SW1*%
X111466736Y-67251150D02*
X111384736Y-66953150D01*
X110892736Y-65942150D02*
X110413736Y-65643150D01*
X110413736Y-65643150D02*
X109851736Y-65538150D01*
X111230736Y-66395150D02*
X110892736Y-65942150D01*
X106267736Y-61683150D02*
X107204736Y-60746150D01*
X115966736Y-66796150D02*
X116329736Y-66796150D01*
X115492736Y-63011150D02*
X115775736Y-63200150D01*
X115775736Y-63200150D02*
X115964736Y-63483150D01*
X111384736Y-66953150D02*
X111230736Y-66395150D01*
X116329736Y-67738150D02*
X112243736Y-67738150D01*
X109951736Y-60746150D02*
X110354736Y-60826150D01*
X111927736Y-62859150D02*
X112365736Y-62946150D01*
X111560736Y-62615150D02*
X111927736Y-62859150D01*
X110696736Y-61055150D02*
X111229736Y-61588150D01*
X112243736Y-67738150D02*
X111933736Y-67679150D01*
X111659736Y-67509150D02*
X111466736Y-67251150D01*
X107204736Y-60746150D02*
X109951736Y-60746150D01*
X111316736Y-62248150D02*
X111560736Y-62615150D01*
X110354736Y-60826150D02*
X110696736Y-61055150D01*
X115964736Y-63483150D02*
X116049736Y-63910150D01*
X115165736Y-62946150D02*
X115492736Y-63011150D01*
X112365736Y-62946150D02*
X115165736Y-62946150D01*
X107204736Y-65538150D02*
X106183736Y-64517150D01*
X109851736Y-65538150D02*
X107204736Y-65538150D01*
X111229736Y-61588150D02*
X111229736Y-61810150D01*
X111229736Y-61810150D02*
X111316736Y-62248150D01*
X116329736Y-66796150D02*
X116329736Y-67738150D01*
X111933736Y-67679150D02*
X111659736Y-67509150D01*
%TO.C,SW18*%
X194324113Y-128742070D02*
X193899386Y-129582885D01*
X186746471Y-123504939D02*
X186295487Y-122133263D01*
X189834262Y-127272885D02*
X189778319Y-126955579D01*
X191900171Y-122422340D02*
X191952490Y-122859933D01*
X189563437Y-125045527D02*
X189109146Y-124698412D01*
X195492076Y-125620363D02*
X195375422Y-126039821D01*
X190252281Y-127740600D02*
X190002181Y-127548165D01*
X194000104Y-128578401D02*
X194324113Y-128742070D01*
X187648251Y-119641549D02*
X188907077Y-119227668D01*
X189856173Y-125528380D02*
X189563437Y-125045527D01*
X191952490Y-122859933D02*
X192170055Y-123243196D01*
X189778319Y-126955579D02*
X189839488Y-126652616D01*
X195450976Y-125282545D02*
X195492076Y-125620363D01*
X192020001Y-121992161D02*
X191900171Y-122422340D01*
X191884665Y-121077941D02*
X192120096Y-121794007D01*
X195021022Y-124780793D02*
X195283590Y-124986248D01*
X192170055Y-123243196D02*
X192521781Y-123518336D01*
X189839488Y-126652616D02*
X189953620Y-126085118D01*
X190002181Y-127548165D02*
X189834262Y-127272885D01*
X189953620Y-126085118D02*
X189856173Y-125528380D01*
X195283590Y-124986248D02*
X195450976Y-125282545D01*
X192120096Y-121794007D02*
X192020001Y-121992161D01*
X189109146Y-124698412D02*
X186746471Y-123504939D01*
X192521781Y-123518336D02*
X195021022Y-124780793D01*
X193899386Y-129582885D02*
X190252281Y-127740600D01*
X191682652Y-120719339D02*
X191884665Y-121077941D01*
X188907077Y-119227668D02*
X191359010Y-120466228D01*
X191359010Y-120466228D02*
X191682652Y-120719339D01*
%TO.C,SW3*%
X111229736Y-95588150D02*
X111229736Y-95810150D01*
X116329736Y-100796150D02*
X116329736Y-101738150D01*
X115966736Y-100796150D02*
X116329736Y-100796150D01*
X111230736Y-100395150D02*
X110892736Y-99942150D01*
X110354736Y-94826150D02*
X110696736Y-95055150D01*
X111927736Y-96859150D02*
X112365736Y-96946150D01*
X110892736Y-99942150D02*
X110413736Y-99643150D01*
X116329736Y-101738150D02*
X112243736Y-101738150D01*
X112243736Y-101738150D02*
X111933736Y-101679150D01*
X112365736Y-96946150D02*
X115165736Y-96946150D01*
X107204736Y-99538150D02*
X106183736Y-98517150D01*
X106267736Y-95683150D02*
X107204736Y-94746150D01*
X115492736Y-97011150D02*
X115775736Y-97200150D01*
X115165736Y-96946150D02*
X115492736Y-97011150D01*
X115775736Y-97200150D02*
X115964736Y-97483150D01*
X115964736Y-97483150D02*
X116049736Y-97910150D01*
X111659736Y-101509150D02*
X111466736Y-101251150D01*
X111316736Y-96248150D02*
X111560736Y-96615150D01*
X109951736Y-94746150D02*
X110354736Y-94826150D01*
X109851736Y-99538150D02*
X107204736Y-99538150D01*
X111384736Y-100953150D02*
X111230736Y-100395150D01*
X107204736Y-94746150D02*
X109951736Y-94746150D01*
X111560736Y-96615150D02*
X111927736Y-96859150D01*
X111466736Y-101251150D02*
X111384736Y-100953150D01*
X111229736Y-95810150D02*
X111316736Y-96248150D01*
X110696736Y-95055150D02*
X111229736Y-95588150D01*
X110413736Y-99643150D02*
X109851736Y-99538150D01*
X111933736Y-101679150D02*
X111659736Y-101509150D01*
%TO.C,SW6*%
X134329736Y-94738400D02*
X130243736Y-94738400D01*
X129229736Y-88588400D02*
X129229736Y-88810400D01*
X129229736Y-88810400D02*
X129316736Y-89248400D01*
X133492736Y-90011400D02*
X133775736Y-90200400D01*
X130365736Y-89946400D02*
X133165736Y-89946400D01*
X129384736Y-93953400D02*
X129230736Y-93395400D01*
X133966736Y-93796400D02*
X134329736Y-93796400D01*
X129466736Y-94251400D02*
X129384736Y-93953400D01*
X130243736Y-94738400D02*
X129933736Y-94679400D01*
X134329736Y-93796400D02*
X134329736Y-94738400D01*
X129933736Y-94679400D02*
X129659736Y-94509400D01*
X128892736Y-92942400D02*
X128413736Y-92643400D01*
X129927736Y-89859400D02*
X130365736Y-89946400D01*
X128413736Y-92643400D02*
X127851736Y-92538400D01*
X129316736Y-89248400D02*
X129560736Y-89615400D01*
X133165736Y-89946400D02*
X133492736Y-90011400D01*
X129560736Y-89615400D02*
X129927736Y-89859400D01*
X125204736Y-87746400D02*
X127951736Y-87746400D01*
X128696736Y-88055400D02*
X129229736Y-88588400D01*
X129230736Y-93395400D02*
X128892736Y-92942400D01*
X127951736Y-87746400D02*
X128354736Y-87826400D01*
X125204736Y-92538400D02*
X124183736Y-91517400D01*
X133964736Y-90483400D02*
X134049736Y-90910400D01*
X133775736Y-90200400D02*
X133964736Y-90483400D01*
X129659736Y-94509400D02*
X129466736Y-94251400D01*
X128354736Y-87826400D02*
X128696736Y-88055400D01*
X124267736Y-88683400D02*
X125204736Y-87746400D01*
X127851736Y-92538400D02*
X125204736Y-92538400D01*
%TO.C,SW9*%
X147229736Y-85954200D02*
X147316736Y-86392200D01*
X147659736Y-91653200D02*
X147466736Y-91395200D01*
X151964736Y-87627200D02*
X152049736Y-88054200D01*
X147560736Y-86759200D02*
X147927736Y-87003200D01*
X147927736Y-87003200D02*
X148365736Y-87090200D01*
X147229736Y-85732200D02*
X147229736Y-85954200D01*
X151165736Y-87090200D02*
X151492736Y-87155200D01*
X146696736Y-85199200D02*
X147229736Y-85732200D01*
X143204736Y-89682200D02*
X142183736Y-88661200D01*
X152329736Y-91882200D02*
X148243736Y-91882200D01*
X147384736Y-91097200D02*
X147230736Y-90539200D01*
X147230736Y-90539200D02*
X146892736Y-90086200D01*
X147466736Y-91395200D02*
X147384736Y-91097200D01*
X147933736Y-91823200D02*
X147659736Y-91653200D01*
X148365736Y-87090200D02*
X151165736Y-87090200D01*
X142267736Y-85827200D02*
X143204736Y-84890200D01*
X145851736Y-89682200D02*
X143204736Y-89682200D01*
X148243736Y-91882200D02*
X147933736Y-91823200D01*
X146354736Y-84970200D02*
X146696736Y-85199200D01*
X145951736Y-84890200D02*
X146354736Y-84970200D01*
X152329736Y-90940200D02*
X152329736Y-91882200D01*
X146413736Y-89787200D02*
X145851736Y-89682200D01*
X151775736Y-87344200D02*
X151964736Y-87627200D01*
X143204736Y-84890200D02*
X145951736Y-84890200D01*
X147316736Y-86392200D02*
X147560736Y-86759200D01*
X151492736Y-87155200D02*
X151775736Y-87344200D01*
X151966736Y-90940200D02*
X152329736Y-90940200D01*
X146892736Y-90086200D02*
X146413736Y-89787200D01*
%TO.C,SW7*%
X146413736Y-55787200D02*
X145851736Y-55682200D01*
X145951736Y-50890200D02*
X146354736Y-50970200D01*
X143204736Y-50890200D02*
X145951736Y-50890200D01*
X151775736Y-53344200D02*
X151964736Y-53627200D01*
X145851736Y-55682200D02*
X143204736Y-55682200D01*
X147316736Y-52392200D02*
X147560736Y-52759200D01*
X146892736Y-56086200D02*
X146413736Y-55787200D01*
X151964736Y-53627200D02*
X152049736Y-54054200D01*
X143204736Y-55682200D02*
X142183736Y-54661200D01*
X152329736Y-56940200D02*
X152329736Y-57882200D01*
X142267736Y-51827200D02*
X143204736Y-50890200D01*
X147229736Y-51732200D02*
X147229736Y-51954200D01*
X146696736Y-51199200D02*
X147229736Y-51732200D01*
X151492736Y-53155200D02*
X151775736Y-53344200D01*
X147659736Y-57653200D02*
X147466736Y-57395200D01*
X147560736Y-52759200D02*
X147927736Y-53003200D01*
X148243736Y-57882200D02*
X147933736Y-57823200D01*
X147466736Y-57395200D02*
X147384736Y-57097200D01*
X147230736Y-56539200D02*
X146892736Y-56086200D01*
X148365736Y-53090200D02*
X151165736Y-53090200D01*
X151966736Y-56940200D02*
X152329736Y-56940200D01*
X147927736Y-53003200D02*
X148365736Y-53090200D01*
X146354736Y-50970200D02*
X146696736Y-51199200D01*
X151165736Y-53090200D02*
X151492736Y-53155200D01*
X147384736Y-57097200D02*
X147230736Y-56539200D01*
X147933736Y-57823200D02*
X147659736Y-57653200D01*
X152329736Y-57882200D02*
X148243736Y-57882200D01*
X147229736Y-51954200D02*
X147316736Y-52392200D01*
%TO.C,SW13*%
X187492736Y-58867600D02*
X187775736Y-59056600D01*
X183560736Y-58471600D02*
X183927736Y-58715600D01*
X181851736Y-61394600D02*
X179204736Y-61394600D01*
X183466736Y-63107600D02*
X183384736Y-62809600D01*
X187775736Y-59056600D02*
X187964736Y-59339600D01*
X188329736Y-63594600D02*
X184243736Y-63594600D01*
X182892736Y-61798600D02*
X182413736Y-61499600D01*
X183230736Y-62251600D02*
X182892736Y-61798600D01*
X181951736Y-56602600D02*
X182354736Y-56682600D01*
X183229736Y-57444600D02*
X183229736Y-57666600D01*
X187966736Y-62652600D02*
X188329736Y-62652600D01*
X183316736Y-58104600D02*
X183560736Y-58471600D01*
X183229736Y-57666600D02*
X183316736Y-58104600D01*
X184365736Y-58802600D02*
X187165736Y-58802600D01*
X178267736Y-57539600D02*
X179204736Y-56602600D01*
X184243736Y-63594600D02*
X183933736Y-63535600D01*
X183384736Y-62809600D02*
X183230736Y-62251600D01*
X183659736Y-63365600D02*
X183466736Y-63107600D01*
X182696736Y-56911600D02*
X183229736Y-57444600D01*
X183927736Y-58715600D02*
X184365736Y-58802600D01*
X179204736Y-56602600D02*
X181951736Y-56602600D01*
X179204736Y-61394600D02*
X178183736Y-60373600D01*
X182413736Y-61499600D02*
X181851736Y-61394600D01*
X182354736Y-56682600D02*
X182696736Y-56911600D01*
X188329736Y-62652600D02*
X188329736Y-63594600D01*
X183933736Y-63535600D02*
X183659736Y-63365600D01*
X187165736Y-58802600D02*
X187492736Y-58867600D01*
X187964736Y-59339600D02*
X188049736Y-59766600D01*
%TO.C,SW14*%
X188329736Y-79652600D02*
X188329736Y-80594600D01*
X183316736Y-75104600D02*
X183560736Y-75471600D01*
X187775736Y-76056600D02*
X187964736Y-76339600D01*
X183560736Y-75471600D02*
X183927736Y-75715600D01*
X183466736Y-80107600D02*
X183384736Y-79809600D01*
X188329736Y-80594600D02*
X184243736Y-80594600D01*
X182354736Y-73682600D02*
X182696736Y-73911600D01*
X182892736Y-78798600D02*
X182413736Y-78499600D01*
X183927736Y-75715600D02*
X184365736Y-75802600D01*
X183230736Y-79251600D02*
X182892736Y-78798600D01*
X183229736Y-74666600D02*
X183316736Y-75104600D01*
X183659736Y-80365600D02*
X183466736Y-80107600D01*
X183229736Y-74444600D02*
X183229736Y-74666600D01*
X182413736Y-78499600D02*
X181851736Y-78394600D01*
X183384736Y-79809600D02*
X183230736Y-79251600D01*
X178267736Y-74539600D02*
X179204736Y-73602600D01*
X183933736Y-80535600D02*
X183659736Y-80365600D01*
X184243736Y-80594600D02*
X183933736Y-80535600D01*
X182696736Y-73911600D02*
X183229736Y-74444600D01*
X181851736Y-78394600D02*
X179204736Y-78394600D01*
X181951736Y-73602600D02*
X182354736Y-73682600D01*
X187165736Y-75802600D02*
X187492736Y-75867600D01*
X179204736Y-78394600D02*
X178183736Y-77373600D01*
X187492736Y-75867600D02*
X187775736Y-76056600D01*
X179204736Y-73602600D02*
X181951736Y-73602600D01*
X187966736Y-79652600D02*
X188329736Y-79652600D01*
X184365736Y-75802600D02*
X187165736Y-75802600D01*
X187964736Y-76339600D02*
X188049736Y-76766600D01*
%TO.C,SW4*%
X133492736Y-56011400D02*
X133775736Y-56200400D01*
X130365736Y-55946400D02*
X133165736Y-55946400D01*
X129659736Y-60509400D02*
X129466736Y-60251400D01*
X129384736Y-59953400D02*
X129230736Y-59395400D01*
X125204736Y-53746400D02*
X127951736Y-53746400D01*
X133966736Y-59796400D02*
X134329736Y-59796400D01*
X129933736Y-60679400D02*
X129659736Y-60509400D01*
X129560736Y-55615400D02*
X129927736Y-55859400D01*
X133165736Y-55946400D02*
X133492736Y-56011400D01*
X129230736Y-59395400D02*
X128892736Y-58942400D01*
X124267736Y-54683400D02*
X125204736Y-53746400D01*
X125204736Y-58538400D02*
X124183736Y-57517400D01*
X129316736Y-55248400D02*
X129560736Y-55615400D01*
X133775736Y-56200400D02*
X133964736Y-56483400D01*
X129927736Y-55859400D02*
X130365736Y-55946400D01*
X130243736Y-60738400D02*
X129933736Y-60679400D01*
X128354736Y-53826400D02*
X128696736Y-54055400D01*
X128696736Y-54055400D02*
X129229736Y-54588400D01*
X129229736Y-54810400D02*
X129316736Y-55248400D01*
X128413736Y-58643400D02*
X127851736Y-58538400D01*
X129466736Y-60251400D02*
X129384736Y-59953400D01*
X127951736Y-53746400D02*
X128354736Y-53826400D01*
X134329736Y-60738400D02*
X130243736Y-60738400D01*
X133964736Y-56483400D02*
X134049736Y-56910400D01*
X128892736Y-58942400D02*
X128413736Y-58643400D01*
X134329736Y-59796400D02*
X134329736Y-60738400D01*
X127851736Y-58538400D02*
X125204736Y-58538400D01*
X129229736Y-54588400D02*
X129229736Y-54810400D01*
%TO.C,SW2*%
X112243736Y-84738150D02*
X111933736Y-84679150D01*
X116329736Y-83796150D02*
X116329736Y-84738150D01*
X109951736Y-77746150D02*
X110354736Y-77826150D01*
X111933736Y-84679150D02*
X111659736Y-84509150D01*
X111659736Y-84509150D02*
X111466736Y-84251150D01*
X115964736Y-80483150D02*
X116049736Y-80910150D01*
X110354736Y-77826150D02*
X110696736Y-78055150D01*
X111560736Y-79615150D02*
X111927736Y-79859150D01*
X115492736Y-80011150D02*
X115775736Y-80200150D01*
X111229736Y-78588150D02*
X111229736Y-78810150D01*
X115165736Y-79946150D02*
X115492736Y-80011150D01*
X106267736Y-78683150D02*
X107204736Y-77746150D01*
X111384736Y-83953150D02*
X111230736Y-83395150D01*
X112365736Y-79946150D02*
X115165736Y-79946150D01*
X111230736Y-83395150D02*
X110892736Y-82942150D01*
X109851736Y-82538150D02*
X107204736Y-82538150D01*
X110892736Y-82942150D02*
X110413736Y-82643150D01*
X111316736Y-79248150D02*
X111560736Y-79615150D01*
X107204736Y-82538150D02*
X106183736Y-81517150D01*
X116329736Y-84738150D02*
X112243736Y-84738150D01*
X111229736Y-78810150D02*
X111316736Y-79248150D01*
X111927736Y-79859150D02*
X112365736Y-79946150D01*
X115966736Y-83796150D02*
X116329736Y-83796150D01*
X110696736Y-78055150D02*
X111229736Y-78588150D01*
X115775736Y-80200150D02*
X115964736Y-80483150D01*
X107204736Y-77746150D02*
X109951736Y-77746150D01*
X111466736Y-84251150D02*
X111384736Y-83953150D01*
X110413736Y-82643150D02*
X109851736Y-82538150D01*
%TO.C,SW15*%
X183229736Y-91666600D02*
X183316736Y-92104600D01*
X184243736Y-97594600D02*
X183933736Y-97535600D01*
X182413736Y-95499600D02*
X181851736Y-95394600D01*
X188329736Y-96652600D02*
X188329736Y-97594600D01*
X181951736Y-90602600D02*
X182354736Y-90682600D01*
X183927736Y-92715600D02*
X184365736Y-92802600D01*
X183229736Y-91444600D02*
X183229736Y-91666600D01*
X183659736Y-97365600D02*
X183466736Y-97107600D01*
X187165736Y-92802600D02*
X187492736Y-92867600D01*
X184365736Y-92802600D02*
X187165736Y-92802600D01*
X182354736Y-90682600D02*
X182696736Y-90911600D01*
X183384736Y-96809600D02*
X183230736Y-96251600D01*
X183466736Y-97107600D02*
X183384736Y-96809600D01*
X182892736Y-95798600D02*
X182413736Y-95499600D01*
X183933736Y-97535600D02*
X183659736Y-97365600D01*
X179204736Y-90602600D02*
X181951736Y-90602600D01*
X183560736Y-92471600D02*
X183927736Y-92715600D01*
X183316736Y-92104600D02*
X183560736Y-92471600D01*
X183230736Y-96251600D02*
X182892736Y-95798600D01*
X187964736Y-93339600D02*
X188049736Y-93766600D01*
X188329736Y-97594600D02*
X184243736Y-97594600D01*
X187966736Y-96652600D02*
X188329736Y-96652600D01*
X187492736Y-92867600D02*
X187775736Y-93056600D01*
X182696736Y-90911600D02*
X183229736Y-91444600D01*
X181851736Y-95394600D02*
X179204736Y-95394600D01*
X179204736Y-95394600D02*
X178183736Y-94373600D01*
X178267736Y-91539600D02*
X179204736Y-90602600D01*
X187775736Y-93056600D02*
X187964736Y-93339600D01*
%TO.C,SW11*%
X165659736Y-77509400D02*
X165466736Y-77251400D01*
X169964736Y-73483400D02*
X170049736Y-73910400D01*
X160267736Y-71683400D02*
X161204736Y-70746400D01*
X166243736Y-77738400D02*
X165933736Y-77679400D01*
X170329736Y-76796400D02*
X170329736Y-77738400D01*
X169966736Y-76796400D02*
X170329736Y-76796400D01*
X164413736Y-75643400D02*
X163851736Y-75538400D01*
X161204736Y-75538400D02*
X160183736Y-74517400D01*
X161204736Y-70746400D02*
X163951736Y-70746400D01*
X165466736Y-77251400D02*
X165384736Y-76953400D01*
X165229736Y-71588400D02*
X165229736Y-71810400D01*
X165230736Y-76395400D02*
X164892736Y-75942400D01*
X164354736Y-70826400D02*
X164696736Y-71055400D01*
X164696736Y-71055400D02*
X165229736Y-71588400D01*
X169165736Y-72946400D02*
X169492736Y-73011400D01*
X165316736Y-72248400D02*
X165560736Y-72615400D01*
X165560736Y-72615400D02*
X165927736Y-72859400D01*
X165927736Y-72859400D02*
X166365736Y-72946400D01*
X169775736Y-73200400D02*
X169964736Y-73483400D01*
X163851736Y-75538400D02*
X161204736Y-75538400D01*
X164892736Y-75942400D02*
X164413736Y-75643400D01*
X163951736Y-70746400D02*
X164354736Y-70826400D01*
X169492736Y-73011400D02*
X169775736Y-73200400D01*
X166365736Y-72946400D02*
X169165736Y-72946400D01*
X165229736Y-71810400D02*
X165316736Y-72248400D01*
X170329736Y-77738400D02*
X166243736Y-77738400D01*
X165933736Y-77679400D02*
X165659736Y-77509400D01*
X165384736Y-76953400D02*
X165230736Y-76395400D01*
%TO.C,SW16*%
X149913911Y-114787200D02*
X149351911Y-114682200D01*
X145767911Y-110827200D02*
X146704911Y-109890200D01*
X150196911Y-110199200D02*
X150729911Y-110732200D01*
X150966911Y-116395200D02*
X150884911Y-116097200D01*
X150884911Y-116097200D02*
X150730911Y-115539200D01*
X150729911Y-110732200D02*
X150729911Y-110954200D01*
X155829911Y-115940200D02*
X155829911Y-116882200D01*
X155464911Y-112627200D02*
X155549911Y-113054200D01*
X150730911Y-115539200D02*
X150392911Y-115086200D01*
X150816911Y-111392200D02*
X151060911Y-111759200D01*
X155829911Y-116882200D02*
X151743911Y-116882200D01*
X146704911Y-109890200D02*
X149451911Y-109890200D01*
X155275911Y-112344200D02*
X155464911Y-112627200D01*
X154665911Y-112090200D02*
X154992911Y-112155200D01*
X149451911Y-109890200D02*
X149854911Y-109970200D01*
X151427911Y-112003200D02*
X151865911Y-112090200D01*
X149854911Y-109970200D02*
X150196911Y-110199200D01*
X151865911Y-112090200D02*
X154665911Y-112090200D01*
X154992911Y-112155200D02*
X155275911Y-112344200D01*
X150729911Y-110954200D02*
X150816911Y-111392200D01*
X151159911Y-116653200D02*
X150966911Y-116395200D01*
X151433911Y-116823200D02*
X151159911Y-116653200D01*
X151743911Y-116882200D02*
X151433911Y-116823200D01*
X150392911Y-115086200D02*
X149913911Y-114787200D01*
X146704911Y-114682200D02*
X145683911Y-113661200D01*
X149351911Y-114682200D02*
X146704911Y-114682200D01*
X155466911Y-115940200D02*
X155829911Y-115940200D01*
X151060911Y-111759200D02*
X151427911Y-112003200D01*
%TO.C,SW10*%
X165229736Y-54588400D02*
X165229736Y-54810400D01*
X169966736Y-59796400D02*
X170329736Y-59796400D01*
X165560736Y-55615400D02*
X165927736Y-55859400D01*
X165659736Y-60509400D02*
X165466736Y-60251400D01*
X165384736Y-59953400D02*
X165230736Y-59395400D01*
X165933736Y-60679400D02*
X165659736Y-60509400D01*
X170329736Y-60738400D02*
X166243736Y-60738400D01*
X169165736Y-55946400D02*
X169492736Y-56011400D01*
X164413736Y-58643400D02*
X163851736Y-58538400D01*
X160267736Y-54683400D02*
X161204736Y-53746400D01*
X169775736Y-56200400D02*
X169964736Y-56483400D01*
X161204736Y-58538400D02*
X160183736Y-57517400D01*
X170329736Y-59796400D02*
X170329736Y-60738400D01*
X165230736Y-59395400D02*
X164892736Y-58942400D01*
X164354736Y-53826400D02*
X164696736Y-54055400D01*
X165466736Y-60251400D02*
X165384736Y-59953400D01*
X164696736Y-54055400D02*
X165229736Y-54588400D01*
X166365736Y-55946400D02*
X169165736Y-55946400D01*
X169492736Y-56011400D02*
X169775736Y-56200400D01*
X169964736Y-56483400D02*
X170049736Y-56910400D01*
X166243736Y-60738400D02*
X165933736Y-60679400D01*
X163951736Y-53746400D02*
X164354736Y-53826400D01*
X163851736Y-58538400D02*
X161204736Y-58538400D01*
X165229736Y-54810400D02*
X165316736Y-55248400D01*
X165316736Y-55248400D02*
X165560736Y-55615400D01*
X164892736Y-58942400D02*
X164413736Y-58643400D01*
X165927736Y-55859400D02*
X166365736Y-55946400D01*
X161204736Y-53746400D02*
X163951736Y-53746400D01*
%TD*%
M02*
