%TF.GenerationSoftware,KiCad,Pcbnew,(6.0.6)*%
%TF.CreationDate,2022-09-25T18:06:26-06:00*%
%TF.ProjectId,miniErgo,6d696e69-4572-4676-9f2e-6b696361645f,rev?*%
%TF.SameCoordinates,Original*%
%TF.FileFunction,Soldermask,Top*%
%TF.FilePolarity,Negative*%
%FSLAX46Y46*%
G04 Gerber Fmt 4.6, Leading zero omitted, Abs format (unit mm)*
G04 Created by KiCad (PCBNEW (6.0.6)) date 2022-09-25 18:06:26*
%MOMM*%
%LPD*%
G01*
G04 APERTURE LIST*
G04 Aperture macros list*
%AMRoundRect*
0 Rectangle with rounded corners*
0 $1 Rounding radius*
0 $2 $3 $4 $5 $6 $7 $8 $9 X,Y pos of 4 corners*
0 Add a 4 corners polygon primitive as box body*
4,1,4,$2,$3,$4,$5,$6,$7,$8,$9,$2,$3,0*
0 Add four circle primitives for the rounded corners*
1,1,$1+$1,$2,$3*
1,1,$1+$1,$4,$5*
1,1,$1+$1,$6,$7*
1,1,$1+$1,$8,$9*
0 Add four rect primitives between the rounded corners*
20,1,$1+$1,$2,$3,$4,$5,0*
20,1,$1+$1,$4,$5,$6,$7,0*
20,1,$1+$1,$6,$7,$8,$9,0*
20,1,$1+$1,$8,$9,$2,$3,0*%
%AMRotRect*
0 Rectangle, with rotation*
0 The origin of the aperture is its center*
0 $1 length*
0 $2 width*
0 $3 Rotation angle, in degrees counterclockwise*
0 Add horizontal line*
21,1,$1,$2,0,0,$3*%
G04 Aperture macros list end*
%ADD10C,1.600000*%
%ADD11R,1.300000X1.300000*%
%ADD12C,0.800000*%
%ADD13O,1.600000X2.000000*%
%ADD14RotRect,1.300000X1.300000X63.200000*%
%ADD15RotRect,1.300000X1.300000X76.600000*%
%ADD16C,1.900000*%
%ADD17C,3.050000*%
%ADD18C,5.050000*%
%ADD19RoundRect,0.250000X-1.025000X-1.000000X1.025000X-1.000000X1.025000X1.000000X-1.025000X1.000000X0*%
%ADD20RoundRect,0.250000X-1.228843X-0.735234X0.765347X-1.210317X1.228843X0.735234X-0.765347X1.210317X0*%
%ADD21RoundRect,0.250000X-1.365778X-0.430436X0.464023X-1.354735X1.365778X0.430436X-0.464023X1.354735X0*%
G04 APERTURE END LIST*
D10*
%TO.C,M1*%
X121344824Y-109978700D03*
X123884824Y-109978700D03*
X126424824Y-109978700D03*
X128964824Y-109978700D03*
X131504824Y-109978700D03*
X134044824Y-109978700D03*
X136584824Y-109978700D03*
X136584824Y-125213700D03*
X134044824Y-125213700D03*
X131504824Y-125213700D03*
X128964824Y-125213700D03*
X126424824Y-125213700D03*
X123884824Y-125213700D03*
X121344824Y-125213700D03*
%TD*%
D11*
%TO.C,D7*%
X150183736Y-61743900D03*
X150183736Y-64543900D03*
%TD*%
%TO.C,D12*%
X168183736Y-98493900D03*
X168183736Y-101293900D03*
%TD*%
%TO.C,D15*%
X184833770Y-101206300D03*
X184833770Y-104006300D03*
%TD*%
%TO.C,D10*%
X168183736Y-64743900D03*
X168183736Y-67543900D03*
%TD*%
D12*
%TO.C,J2*%
X192783770Y-83054800D03*
X192783770Y-90054800D03*
D13*
X190483770Y-87654800D03*
X190483770Y-84654800D03*
X195083770Y-92754800D03*
X190483770Y-91654800D03*
%TD*%
D11*
%TO.C,D5*%
X132183736Y-81493900D03*
X132183736Y-84293900D03*
%TD*%
D14*
%TO.C,D18*%
X190420623Y-131942305D03*
X189158166Y-134441545D03*
%TD*%
D11*
%TO.C,D1*%
X113933736Y-71743900D03*
X113933736Y-74543900D03*
%TD*%
D15*
%TO.C,D17*%
X172634347Y-124220599D03*
X171985453Y-126944371D03*
%TD*%
D11*
%TO.C,D6*%
X132183736Y-98493900D03*
X132183736Y-101293900D03*
%TD*%
%TO.C,D16*%
X153683911Y-120637700D03*
X153683911Y-123437700D03*
%TD*%
%TO.C,D3*%
X114183736Y-105493650D03*
X114183736Y-108293650D03*
%TD*%
%TO.C,D11*%
X168183736Y-81493900D03*
X168183736Y-84293900D03*
%TD*%
%TO.C,D8*%
X150183736Y-78637700D03*
X150183736Y-81437700D03*
%TD*%
%TO.C,D2*%
X114183736Y-88493650D03*
X114183736Y-91293650D03*
%TD*%
%TO.C,D9*%
X150183736Y-95637700D03*
X150183736Y-98437700D03*
%TD*%
%TO.C,D14*%
X186183736Y-84350100D03*
X186183736Y-87150100D03*
%TD*%
%TO.C,D13*%
X186183736Y-67493900D03*
X186183736Y-70293900D03*
%TD*%
%TO.C,D4*%
X132183736Y-64493900D03*
X132183736Y-67293900D03*
%TD*%
D16*
%TO.C,SW8*%
X139183736Y-76236200D03*
D17*
X149683736Y-72436200D03*
X139683736Y-72436200D03*
X144683736Y-70336200D03*
D18*
X144683736Y-76236200D03*
D16*
X150183736Y-76236200D03*
D19*
X141183736Y-70236200D03*
X148183736Y-70236200D03*
X136183736Y-72436200D03*
%TD*%
D17*
%TO.C,SW17*%
X163875100Y-115689214D03*
D16*
X162508070Y-119269889D03*
X173208604Y-121819115D03*
D18*
X167858337Y-120544502D03*
D17*
X173602858Y-118006693D03*
X169225650Y-114805124D03*
D20*
X165844109Y-113896729D03*
X172653540Y-115518964D03*
X160470384Y-114878096D03*
%TD*%
D18*
%TO.C,SW12*%
X162683736Y-96092400D03*
D17*
X162683736Y-90192400D03*
X167683736Y-92292400D03*
X157683736Y-92292400D03*
D16*
X157183736Y-96092400D03*
X168183736Y-96092400D03*
D19*
X159183736Y-90092400D03*
X166183736Y-90092400D03*
X154183736Y-92292400D03*
%TD*%
D17*
%TO.C,SW5*%
X126683736Y-73192400D03*
D18*
X126683736Y-79092400D03*
D17*
X131683736Y-75292400D03*
D16*
X121183736Y-79092400D03*
D17*
X121683736Y-75292400D03*
D16*
X132183736Y-79092400D03*
D19*
X123183736Y-73092400D03*
X130183736Y-73092400D03*
X118183736Y-75292400D03*
%TD*%
D16*
%TO.C,SW1*%
X103183736Y-69092150D03*
D17*
X108683736Y-63192150D03*
D16*
X114183736Y-69092150D03*
D17*
X113683736Y-65292150D03*
X103683736Y-65292150D03*
D18*
X108683736Y-69092150D03*
D19*
X105183736Y-63092150D03*
X112183736Y-63092150D03*
X100183736Y-65292150D03*
%TD*%
D18*
%TO.C,SW18*%
X186464187Y-127344037D03*
D16*
X191373409Y-129823863D03*
X181554965Y-124864211D03*
D17*
X192640451Y-126206599D03*
X183714593Y-121697823D03*
X189124364Y-122077781D03*
D21*
X186045402Y-120410451D03*
X192293503Y-123566593D03*
X180590542Y-120119752D03*
%TD*%
D12*
%TO.C,J1*%
X192783770Y-90054800D03*
X192783770Y-83054800D03*
D13*
X195083770Y-87654800D03*
X195083770Y-84654800D03*
X190483770Y-92754800D03*
X195083770Y-91654800D03*
%TD*%
D17*
%TO.C,SW3*%
X103683736Y-99292150D03*
X113683736Y-99292150D03*
D16*
X103183736Y-103092150D03*
D17*
X108683736Y-97192150D03*
D18*
X108683736Y-103092150D03*
D16*
X114183736Y-103092150D03*
D19*
X105183736Y-97092150D03*
X112183736Y-97092150D03*
X100183736Y-99292150D03*
%TD*%
D17*
%TO.C,SW6*%
X126683736Y-90192400D03*
D16*
X132183736Y-96092400D03*
X121183736Y-96092400D03*
D17*
X121683736Y-92292400D03*
X131683736Y-92292400D03*
D18*
X126683736Y-96092400D03*
D19*
X130183736Y-90092400D03*
X123183736Y-90092400D03*
X118183736Y-92292400D03*
%TD*%
D16*
%TO.C,SW9*%
X150183736Y-93236200D03*
D17*
X139683736Y-89436200D03*
D16*
X139183736Y-93236200D03*
D17*
X149683736Y-89436200D03*
D18*
X144683736Y-93236200D03*
D17*
X144683736Y-87336200D03*
D19*
X141183736Y-87236200D03*
X148183736Y-87236200D03*
X136183736Y-89436200D03*
%TD*%
D17*
%TO.C,SW7*%
X149683736Y-55436200D03*
D16*
X139183736Y-59236200D03*
D17*
X139683736Y-55436200D03*
X144683736Y-53336200D03*
D16*
X150183736Y-59236200D03*
D18*
X144683736Y-59236200D03*
D19*
X148183736Y-53236200D03*
X141183736Y-53236200D03*
X136183736Y-55436200D03*
%TD*%
D16*
%TO.C,SW13*%
X186183736Y-64948600D03*
D17*
X175683736Y-61148600D03*
X185683736Y-61148600D03*
D18*
X180683736Y-64948600D03*
D17*
X180683736Y-59048600D03*
D16*
X175183736Y-64948600D03*
D19*
X177183736Y-58948600D03*
X184183736Y-58948600D03*
X172183736Y-61148600D03*
%TD*%
D17*
%TO.C,SW14*%
X185683736Y-78148600D03*
X180683736Y-76048600D03*
D16*
X186183736Y-81948600D03*
D18*
X180683736Y-81948600D03*
D16*
X175183736Y-81948600D03*
D17*
X175683736Y-78148600D03*
D19*
X177183736Y-75948600D03*
X184183736Y-75948600D03*
X172183736Y-78148600D03*
%TD*%
D17*
%TO.C,SW4*%
X126683736Y-56192400D03*
D18*
X126683736Y-62092400D03*
D17*
X131683736Y-58292400D03*
D16*
X121183736Y-62092400D03*
X132183736Y-62092400D03*
D17*
X121683736Y-58292400D03*
D19*
X123183736Y-56092400D03*
X130183736Y-56092400D03*
X118183736Y-58292400D03*
%TD*%
D16*
%TO.C,SW2*%
X114183736Y-86092150D03*
D17*
X108683736Y-80192150D03*
D16*
X103183736Y-86092150D03*
D17*
X103683736Y-82292150D03*
D18*
X108683736Y-86092150D03*
D17*
X113683736Y-82292150D03*
D19*
X105183736Y-80092150D03*
X112183736Y-80092150D03*
X100183736Y-82292150D03*
%TD*%
D17*
%TO.C,SW15*%
X175683736Y-95148600D03*
X185683736Y-95148600D03*
D16*
X186183736Y-98948600D03*
D18*
X180683736Y-98948600D03*
D16*
X175183736Y-98948600D03*
D17*
X180683736Y-93048600D03*
D19*
X184183736Y-92948600D03*
X177183736Y-92948600D03*
X172183736Y-95148600D03*
%TD*%
D17*
%TO.C,SW11*%
X167683736Y-75292400D03*
X157683736Y-75292400D03*
D16*
X157183736Y-79092400D03*
D18*
X162683736Y-79092400D03*
D17*
X162683736Y-73192400D03*
D16*
X168183736Y-79092400D03*
D19*
X159183736Y-73092400D03*
X166183736Y-73092400D03*
X154183736Y-75292400D03*
%TD*%
D17*
%TO.C,SW16*%
X143183911Y-114436200D03*
D18*
X148183911Y-118236200D03*
D17*
X153183911Y-114436200D03*
D16*
X153683911Y-118236200D03*
X142683911Y-118236200D03*
D17*
X148183911Y-112336200D03*
D19*
X144683911Y-112236200D03*
X151683911Y-112236200D03*
X139683911Y-114436200D03*
%TD*%
D16*
%TO.C,SW10*%
X157183736Y-62092400D03*
D17*
X157683736Y-58292400D03*
X167683736Y-58292400D03*
D18*
X162683736Y-62092400D03*
D17*
X162683736Y-56192400D03*
D16*
X168183736Y-62092400D03*
D19*
X159183736Y-56092400D03*
X166183736Y-56092400D03*
X154183736Y-58292400D03*
%TD*%
M02*
