M48
; DRILL file {KiCad (6.0.6)} date Sun Sep 25 18:06:19 2022
; FORMAT={-:-/ absolute / inch / decimal}
; #@! TF.CreationDate,2022-09-25T18:06:19-06:00
; #@! TF.GenerationSoftware,Kicad,Pcbnew,(6.0.6)
; #@! TF.FileFunction,Plated,1,2,PTH
FMAT,2
INCH
; #@! TA.AperFunction,Plated,PTH,ViaDrill
T1C0.0157
; #@! TA.AperFunction,Plated,PTH,ComponentDrill
T2C0.0157
; #@! TA.AperFunction,Plated,PTH,ViaDrill
T3C0.0315
; #@! TA.AperFunction,Plated,PTH,ComponentDrill
T4C0.0315
; #@! TA.AperFunction,Plated,PTH,ComponentDrill
T5C0.0354
%
G90
G05
T1
X4.0387Y-2.8959
X4.0683Y-4.2246
X4.0978Y-3.5455
X4.6194Y-4.2029
X4.7474Y-2.6104
X4.7474Y-3.9687
X4.7769Y-3.2699
X5.461Y-2.5366
X5.4659Y-3.2207
X5.4659Y-3.9195
X6.1253Y-3.949
X6.1549Y-3.2896
X6.1942Y-2.6104
X6.2828Y-4.2914
X6.8438Y-4.0573
X6.8635Y-3.3978
X6.8734Y-2.7089
X6.962Y-5.0022
X7.0406Y-4.1635
X7.0739Y-4.1425
T2
X4.4856Y-2.8246
X4.4856Y-2.9348
X4.4954Y-3.484
X4.4954Y-3.5942
X4.4954Y-4.1533
X4.4954Y-4.2635
X5.2041Y-2.5391
X5.2041Y-2.6494
X5.2041Y-3.2084
X5.2041Y-3.3187
X5.2041Y-3.8777
X5.2041Y-3.9879
X5.9127Y-2.4309
X5.9127Y-2.5411
X5.9127Y-3.096
X5.9127Y-3.2062
X5.9127Y-3.7653
X5.9127Y-3.8755
X6.0505Y-4.7495
X6.0505Y-4.8598
X6.6214Y-2.549
X6.6214Y-2.6592
X6.6214Y-3.2084
X6.6214Y-3.3187
X6.6214Y-3.8777
X6.6214Y-3.9879
X6.7711Y-4.9978
X6.7966Y-4.8906
X7.2769Y-3.9845
X7.2769Y-4.0947
X7.3301Y-2.6572
X7.3301Y-2.7675
X7.3301Y-3.3209
X7.3301Y-3.4311
X7.4472Y-5.293
X7.4969Y-5.1946
T3
X7.5524Y-3.76
X7.5525Y-3.7128
X7.6016Y-3.76
X7.6017Y-3.7128
T4
X4.1411Y-2.4839
X4.1411Y-3.1532
X4.1411Y-3.8225
X4.7774Y-4.3299
X4.7774Y-4.9297
X4.8498Y-2.2084
X4.8498Y-2.8777
X4.8498Y-3.5469
X4.8774Y-4.3299
X4.8774Y-4.9297
X4.9774Y-4.3299
X4.9774Y-4.9297
X5.0774Y-4.3299
X5.0774Y-4.9297
X5.1774Y-4.3299
X5.1774Y-4.9297
X5.2774Y-4.3299
X5.2774Y-4.9297
X5.3774Y-4.3299
X5.3774Y-4.9297
X5.5584Y-2.0959
X5.5584Y-2.7652
X5.5584Y-3.4345
X5.6962Y-4.4187
X6.2671Y-2.2084
X6.2671Y-2.8777
X6.2671Y-3.5469
X6.5293Y-4.4841
X6.9757Y-2.3208
X6.9757Y-2.9901
X6.9757Y-3.6594
X7.3246Y-4.7406
T5
G00X7.4994Y-3.3407
M15
G01X7.4994Y-3.325
M16
G05
G00X7.4994Y-3.4589
M15
G01X7.4994Y-3.4431
M16
G05
G00X7.4994Y-3.6163
M15
G01X7.4994Y-3.6006
M16
G05
G00X7.4994Y-3.6439
M15
G01X7.4994Y-3.6596
M16
G05
G00X7.6805Y-3.325
M15
G01X7.6805Y-3.3407
M16
G05
G00X7.6805Y-3.4431
M15
G01X7.6805Y-3.4589
M16
G05
G00X7.6805Y-3.6006
M15
G01X7.6805Y-3.6163
M16
G05
G00X7.6805Y-3.6596
M15
G01X7.6805Y-3.6439
M16
G05
T0
M30
